<mxfile host="app.diagrams.net" agent="Mozilla/5.0 (Macintosh; Intel Mac OS X 10_15_7) AppleWebKit/537.36 (KHTML, like Gecko) Chrome/134.0.0.0 Safari/537.36" version="26.1.0">
  <diagram id="VyWrsm6qYP2M0FCrNPQh" name="Page-1">
    <mxGraphModel grid="0" page="1" gridSize="10" guides="1" tooltips="1" connect="1" arrows="1" fold="1" pageScale="1" pageWidth="850" pageHeight="1100" math="0" shadow="0">
      <root>
        <mxCell id="0" />
        <mxCell id="1" parent="0" />
        <mxCell id="ZeLtd_sHloueYFeHt4TX-3" value="" style="rounded=0;whiteSpace=wrap;html=1;fillColor=none;dashed=1;" vertex="1" parent="1">
          <mxGeometry x="-770" y="-1040" width="120" height="440" as="geometry" />
        </mxCell>
        <mxCell id="ZeLtd_sHloueYFeHt4TX-5" value="&lt;font style=&quot;font-size: 17px;&quot;&gt;Sources&lt;/font&gt;" style="rounded=0;whiteSpace=wrap;html=1;strokeColor=none;" vertex="1" parent="1">
          <mxGeometry x="-750" y="-1060" width="80" height="30" as="geometry" />
        </mxCell>
        <mxCell id="ZeLtd_sHloueYFeHt4TX-6" value="" style="rounded=0;whiteSpace=wrap;html=1;fillColor=none;dashed=1;" vertex="1" parent="1">
          <mxGeometry x="-600" y="-1040" width="430" height="440" as="geometry" />
        </mxCell>
        <mxCell id="ZeLtd_sHloueYFeHt4TX-7" value="&lt;font style=&quot;font-size: 21px;&quot;&gt;Data Warehouse&lt;/font&gt;" style="rounded=0;whiteSpace=wrap;html=1;strokeColor=none;" vertex="1" parent="1">
          <mxGeometry x="-480" y="-1080" width="190" height="60" as="geometry" />
        </mxCell>
        <mxCell id="ZeLtd_sHloueYFeHt4TX-8" value="" style="rounded=0;whiteSpace=wrap;html=1;fillColor=none;dashed=1;" vertex="1" parent="1">
          <mxGeometry x="-120" y="-1040" width="120" height="440" as="geometry" />
        </mxCell>
        <mxCell id="ZeLtd_sHloueYFeHt4TX-9" value="&lt;font style=&quot;font-size: 17px;&quot;&gt;Consume&lt;/font&gt;" style="rounded=0;whiteSpace=wrap;html=1;strokeColor=none;" vertex="1" parent="1">
          <mxGeometry x="-100" y="-1060" width="80" height="30" as="geometry" />
        </mxCell>
        <mxCell id="4vZDOsLuTZYOKLJQRf3i-1" value="Bronze Layer" style="rounded=0;whiteSpace=wrap;html=1;fillColor=#ffe6cc;strokeColor=#d79b00;fontStyle=1" vertex="1" parent="1">
          <mxGeometry x="-570" y="-1000" width="100" height="20" as="geometry" />
        </mxCell>
        <mxCell id="4vZDOsLuTZYOKLJQRf3i-2" value="" style="rounded=0;whiteSpace=wrap;html=1;fillColor=none;strokeColor=#d79b00;" vertex="1" parent="1">
          <mxGeometry x="-570" y="-970" width="100" height="350" as="geometry" />
        </mxCell>
        <mxCell id="4vZDOsLuTZYOKLJQRf3i-3" value="Silver Layer" style="rounded=0;whiteSpace=wrap;html=1;fillColor=#f5f5f5;fontStyle=1;fontColor=#333333;strokeColor=#666666;" vertex="1" parent="1">
          <mxGeometry x="-435" y="-1000" width="100" height="20" as="geometry" />
        </mxCell>
        <mxCell id="4vZDOsLuTZYOKLJQRf3i-4" value="" style="rounded=0;whiteSpace=wrap;html=1;strokeColor=#CCCCCC;fillColor=none;" vertex="1" parent="1">
          <mxGeometry x="-435" y="-970" width="100" height="350" as="geometry" />
        </mxCell>
        <mxCell id="4vZDOsLuTZYOKLJQRf3i-5" value="Gold Layer" style="rounded=0;whiteSpace=wrap;html=1;fillColor=#fff2cc;strokeColor=#d6b656;fontStyle=1" vertex="1" parent="1">
          <mxGeometry x="-300" y="-1000" width="100" height="20" as="geometry" />
        </mxCell>
        <mxCell id="4vZDOsLuTZYOKLJQRf3i-6" value="" style="rounded=0;whiteSpace=wrap;html=1;fillColor=none;strokeColor=#d6b656;" vertex="1" parent="1">
          <mxGeometry x="-300" y="-970" width="100" height="350" as="geometry" />
        </mxCell>
        <mxCell id="4vZDOsLuTZYOKLJQRf3i-7" value="" style="image;aspect=fixed;html=1;points=[];align=center;fontSize=12;image=img/lib/azure2/general/Folder_Blank.svg;" vertex="1" parent="1">
          <mxGeometry x="-734.64" y="-940" width="49.29" height="40" as="geometry" />
        </mxCell>
        <mxCell id="4vZDOsLuTZYOKLJQRf3i-9" value="" style="image;aspect=fixed;html=1;points=[];align=center;fontSize=12;image=img/lib/azure2/general/File.svg;" vertex="1" parent="1">
          <mxGeometry x="-700" y="-920" width="24.35" height="30" as="geometry" />
        </mxCell>
        <mxCell id="4vZDOsLuTZYOKLJQRf3i-12" value="" style="image;aspect=fixed;html=1;points=[];align=center;fontSize=12;image=img/lib/azure2/general/Folder_Blank.svg;" vertex="1" parent="1">
          <mxGeometry x="-734.65" y="-860" width="49.29" height="40" as="geometry" />
        </mxCell>
        <mxCell id="4vZDOsLuTZYOKLJQRf3i-13" value="" style="image;aspect=fixed;html=1;points=[];align=center;fontSize=12;image=img/lib/azure2/general/File.svg;" vertex="1" parent="1">
          <mxGeometry x="-694.35" y="-840" width="24.35" height="30" as="geometry" />
        </mxCell>
        <mxCell id="4vZDOsLuTZYOKLJQRf3i-17" value="" style="endArrow=none;html=1;rounded=0;fontSize=12;startSize=8;endSize=8;curved=1;" edge="1" parent="1">
          <mxGeometry width="50" height="50" relative="1" as="geometry">
            <mxPoint x="-760.01" y="-770" as="sourcePoint" />
            <mxPoint x="-660.01" y="-770" as="targetPoint" />
          </mxGeometry>
        </mxCell>
        <mxCell id="4vZDOsLuTZYOKLJQRf3i-18" value="&lt;font style=&quot;font-size: 9px;&quot;&gt;&lt;b&gt;Object Type&lt;/b&gt;: CSV Files&lt;/font&gt;&lt;div&gt;&lt;font style=&quot;font-size: 9px;&quot;&gt;&lt;br&gt;&lt;/font&gt;&lt;/div&gt;&lt;div&gt;&lt;font style=&quot;font-size: 8px;&quot;&gt;&lt;b&gt;Interface&lt;/b&gt;&lt;/font&gt;&lt;font style=&quot;font-size: 9px;&quot;&gt;: Files in Folder&lt;/font&gt;&lt;/div&gt;" style="rounded=0;whiteSpace=wrap;html=1;fillColor=none;strokeColor=none;" vertex="1" parent="1">
          <mxGeometry x="-760" y="-740" width="100" height="40" as="geometry" />
        </mxCell>
        <mxCell id="4vZDOsLuTZYOKLJQRf3i-20" value="" style="shape=singleArrow;whiteSpace=wrap;html=1;fillColor=#dae8fc;strokeColor=#6c8ebf;" vertex="1" parent="1">
          <mxGeometry x="-660" y="-870" width="70" height="30" as="geometry" />
        </mxCell>
        <mxCell id="4vZDOsLuTZYOKLJQRf3i-21" value="" style="shape=singleArrow;whiteSpace=wrap;html=1;fillColor=#dae8fc;strokeColor=#6c8ebf;" vertex="1" parent="1">
          <mxGeometry x="-480" y="-870" width="50" height="30" as="geometry" />
        </mxCell>
        <mxCell id="4vZDOsLuTZYOKLJQRf3i-24" value="" style="shape=singleArrow;whiteSpace=wrap;html=1;fillColor=#dae8fc;strokeColor=#6c8ebf;" vertex="1" parent="1">
          <mxGeometry x="-340" y="-870" width="50" height="30" as="geometry" />
        </mxCell>
        <mxCell id="4vZDOsLuTZYOKLJQRf3i-25" value="" style="shape=singleArrow;whiteSpace=wrap;html=1;fillColor=#dae8fc;strokeColor=#6c8ebf;" vertex="1" parent="1">
          <mxGeometry x="-180" y="-870" width="70" height="30" as="geometry" />
        </mxCell>
        <mxCell id="4vZDOsLuTZYOKLJQRf3i-26" value="" style="html=1;verticalLabelPosition=bottom;align=center;labelBackgroundColor=#ffffff;verticalAlign=top;strokeWidth=2;strokeColor=#d79b00;shadow=0;dashed=0;shape=mxgraph.ios7.icons.data;fillColor=#ffe6cc;" vertex="1" parent="1">
          <mxGeometry x="-536" y="-870" width="32" height="39.1" as="geometry" />
        </mxCell>
        <mxCell id="4vZDOsLuTZYOKLJQRf3i-27" value="" style="html=1;verticalLabelPosition=bottom;align=center;labelBackgroundColor=#ffffff;verticalAlign=top;strokeWidth=2;strokeColor=#666666;shadow=0;dashed=0;shape=mxgraph.ios7.icons.data;fillColor=#f5f5f5;fontColor=#333333;" vertex="1" parent="1">
          <mxGeometry x="-401" y="-870" width="32" height="39.1" as="geometry" />
        </mxCell>
        <mxCell id="4vZDOsLuTZYOKLJQRf3i-28" value="" style="html=1;verticalLabelPosition=bottom;align=center;labelBackgroundColor=#ffffff;verticalAlign=top;strokeWidth=2;strokeColor=#d6b656;shadow=0;dashed=0;shape=mxgraph.ios7.icons.data;fillColor=#fff2cc;" vertex="1" parent="1">
          <mxGeometry x="-266" y="-870" width="32" height="39.1" as="geometry" />
        </mxCell>
        <mxCell id="4vZDOsLuTZYOKLJQRf3i-30" value="Raw Data" style="text;html=1;align=center;verticalAlign=middle;whiteSpace=wrap;rounded=0;" vertex="1" parent="1">
          <mxGeometry x="-550" y="-825" width="60" height="30" as="geometry" />
        </mxCell>
        <mxCell id="4vZDOsLuTZYOKLJQRf3i-31" value="Cleaned, Standardiized Data" style="text;html=1;align=center;verticalAlign=middle;whiteSpace=wrap;rounded=0;" vertex="1" parent="1">
          <mxGeometry x="-415" y="-820" width="60" height="30" as="geometry" />
        </mxCell>
        <mxCell id="4vZDOsLuTZYOKLJQRf3i-32" value="Business-Read Data" style="text;html=1;align=center;verticalAlign=middle;whiteSpace=wrap;rounded=0;" vertex="1" parent="1">
          <mxGeometry x="-280" y="-820" width="60" height="30" as="geometry" />
        </mxCell>
        <mxCell id="4vZDOsLuTZYOKLJQRf3i-44" value="&lt;div style=&quot;line-height: 30%;&quot;&gt;&lt;font style=&quot;font-size: 7px; line-height: 30%;&quot;&gt;&lt;b&gt;Object Type&lt;/b&gt;: CSV Files&lt;/font&gt;&lt;/div&gt;&lt;div style=&quot;line-height: 30%;&quot;&gt;&lt;font style=&quot;font-size: 7px; line-height: 30%;&quot;&gt;&lt;br&gt;&lt;/font&gt;&lt;/div&gt;&lt;div style=&quot;line-height: 30%;&quot;&gt;&lt;span style=&quot;font-size: 7px;&quot;&gt;&lt;br&gt;&lt;/span&gt;&lt;div&gt;&lt;font style=&quot;font-size: 7px;&quot;&gt;&lt;br&gt;&lt;/font&gt;&lt;/div&gt;&lt;div&gt;&lt;font style=&quot;font-size: 7px; line-height: 30%;&quot;&gt;&lt;font style=&quot;line-height: 130%;&quot;&gt;&lt;b&gt;Load&lt;/b&gt;:&amp;nbsp;&lt;/font&gt;&lt;/font&gt;&lt;/div&gt;&lt;div&gt;&lt;font style=&quot;font-size: 7px; line-height: 30%;&quot;&gt;&lt;font style=&quot;line-height: 130%;&quot;&gt;&lt;span style=&quot;white-space: pre;&quot;&gt;&#x9;&lt;/span&gt;- Batch Processing,&amp;nbsp;&lt;/font&gt;&lt;/font&gt;&lt;/div&gt;&lt;div&gt;&lt;font style=&quot;font-size: 7px; line-height: 30%;&quot;&gt;&lt;font style=&quot;line-height: 130%;&quot;&gt;&lt;span style=&quot;white-space: pre;&quot;&gt;&#x9;&lt;/span&gt;- Fill Load&amp;nbsp;&lt;/font&gt;&lt;/font&gt;&lt;/div&gt;&lt;div&gt;&lt;font style=&quot;font-size: 7px; line-height: 30%;&quot;&gt;&lt;font style=&quot;line-height: 130%;&quot;&gt;&lt;span style=&quot;white-space: pre;&quot;&gt;&#x9;&lt;/span&gt;- Trunc &amp;amp; Insert&lt;/font&gt;&lt;/font&gt;&lt;/div&gt;&lt;div&gt;&lt;font style=&quot;font-size: 7px; line-height: 30%;&quot;&gt;&lt;font style=&quot;line-height: 130%;&quot;&gt;&lt;br&gt;&lt;/font&gt;&lt;/font&gt;&lt;/div&gt;&lt;div&gt;&lt;font style=&quot;font-size: 7px; line-height: 30%;&quot;&gt;&lt;font style=&quot;line-height: 130%;&quot;&gt;&lt;b&gt;No Transformation&lt;/b&gt;&lt;/font&gt;&lt;/font&gt;&lt;/div&gt;&lt;div&gt;&lt;font style=&quot;font-size: 7px; line-height: 30%;&quot;&gt;&lt;font style=&quot;line-height: 130%;&quot;&gt;&lt;b&gt;&lt;br&gt;&lt;/b&gt;&lt;/font&gt;&lt;/font&gt;&lt;/div&gt;&lt;div&gt;&lt;font style=&quot;font-size: 7px; line-height: 30%;&quot;&gt;&lt;font style=&quot;line-height: 130%;&quot;&gt;&lt;b&gt;Data Model&lt;/b&gt;: None (as-is)&lt;/font&gt;&lt;/font&gt;&lt;/div&gt;&lt;div&gt;&lt;span style=&quot;font-size: 7px;&quot;&gt;&lt;br&gt;&lt;/span&gt;&lt;/div&gt;&lt;/div&gt;" style="rounded=0;whiteSpace=wrap;html=1;fillColor=none;strokeColor=none;align=left;" vertex="1" parent="1">
          <mxGeometry x="-565" y="-770" width="90" height="90" as="geometry" />
        </mxCell>
        <mxCell id="4vZDOsLuTZYOKLJQRf3i-47" value="" style="endArrow=none;html=1;rounded=0;fontSize=12;startSize=8;endSize=8;curved=1;fillColor=#ffe6cc;strokeColor=#d79b00;" edge="1" parent="1">
          <mxGeometry width="50" height="50" relative="1" as="geometry">
            <mxPoint x="-565" y="-790" as="sourcePoint" />
            <mxPoint x="-475" y="-790" as="targetPoint" />
          </mxGeometry>
        </mxCell>
        <mxCell id="4vZDOsLuTZYOKLJQRf3i-48" value="&lt;div style=&quot;line-height: 30%;&quot;&gt;&lt;font style=&quot;font-size: 7px; line-height: 30%;&quot;&gt;&lt;b&gt;Object Type&lt;/b&gt;: Tables&lt;/font&gt;&lt;/div&gt;&lt;div style=&quot;line-height: 30%;&quot;&gt;&lt;font style=&quot;font-size: 7px; line-height: 30%;&quot;&gt;&lt;br&gt;&lt;/font&gt;&lt;/div&gt;&lt;div style=&quot;line-height: 30%;&quot;&gt;&lt;span style=&quot;font-size: 7px;&quot;&gt;&lt;br&gt;&lt;/span&gt;&lt;div&gt;&lt;font style=&quot;font-size: 7px;&quot;&gt;&lt;br&gt;&lt;/font&gt;&lt;/div&gt;&lt;div&gt;&lt;font style=&quot;font-size: 7px; line-height: 30%;&quot;&gt;&lt;font style=&quot;line-height: 130%;&quot;&gt;&lt;b&gt;Load&lt;/b&gt;:&amp;nbsp;&lt;/font&gt;&lt;/font&gt;&lt;/div&gt;&lt;div&gt;&lt;font style=&quot;font-size: 7px; line-height: 30%;&quot;&gt;&lt;font style=&quot;line-height: 130%;&quot;&gt;&lt;span style=&quot;white-space: pre;&quot;&gt;&#x9;&lt;/span&gt;- Batch Processing,&amp;nbsp;&lt;/font&gt;&lt;/font&gt;&lt;/div&gt;&lt;div&gt;&lt;font style=&quot;font-size: 7px; line-height: 30%;&quot;&gt;&lt;font style=&quot;line-height: 130%;&quot;&gt;&lt;span style=&quot;white-space: pre;&quot;&gt;&#x9;&lt;/span&gt;- Fill Load&amp;nbsp;&lt;/font&gt;&lt;/font&gt;&lt;/div&gt;&lt;div&gt;&lt;font style=&quot;font-size: 7px; line-height: 30%;&quot;&gt;&lt;font style=&quot;line-height: 130%;&quot;&gt;&lt;span style=&quot;white-space: pre;&quot;&gt;&#x9;&lt;/span&gt;- Trunc &amp;amp; Insert&lt;/font&gt;&lt;/font&gt;&lt;/div&gt;&lt;div&gt;&lt;font style=&quot;font-size: 7px; line-height: 30%;&quot;&gt;&lt;font style=&quot;line-height: 130%;&quot;&gt;&lt;br&gt;&lt;/font&gt;&lt;/font&gt;&lt;/div&gt;&lt;div&gt;&lt;font style=&quot;font-size: 7px; line-height: 30%;&quot;&gt;&lt;font style=&quot;line-height: 130%;&quot;&gt;&lt;b&gt;No Transformation&lt;/b&gt;&lt;/font&gt;&lt;/font&gt;&lt;/div&gt;&lt;div&gt;&lt;font style=&quot;font-size: 7px; line-height: 30%;&quot;&gt;&lt;font style=&quot;line-height: 130%;&quot;&gt;&lt;span style=&quot;font-weight: bold; white-space: pre;&quot;&gt;&#x9;&lt;/span&gt;- Data Cleansing&lt;br&gt;&lt;/font&gt;&lt;/font&gt;&lt;/div&gt;&lt;div&gt;&lt;font style=&quot;font-size: 7px; line-height: 30%;&quot;&gt;&lt;font style=&quot;line-height: 130%;&quot;&gt;&lt;span style=&quot;white-space: pre;&quot;&gt;&#x9;&lt;/span&gt;- Data Standardization&lt;/font&gt;&lt;/font&gt;&lt;/div&gt;&lt;div&gt;&lt;font style=&quot;font-size: 7px; line-height: 30%;&quot;&gt;&lt;font style=&quot;line-height: 130%;&quot;&gt;&lt;span style=&quot;white-space: pre;&quot;&gt;&#x9;&lt;/span&gt;- Data Normalization&lt;br&gt;&lt;/font&gt;&lt;/font&gt;&lt;/div&gt;&lt;div&gt;&lt;font style=&quot;font-size: 7px; line-height: 30%;&quot;&gt;&lt;font style=&quot;line-height: 130%;&quot;&gt;&lt;span style=&quot;white-space: pre;&quot;&gt;&#x9;&lt;/span&gt;- Derived Columns&lt;br&gt;&lt;/font&gt;&lt;/font&gt;&lt;/div&gt;&lt;div&gt;&lt;font style=&quot;font-size: 7px; line-height: 30%;&quot;&gt;&lt;font style=&quot;line-height: 130%;&quot;&gt;&lt;span style=&quot;white-space: pre;&quot;&gt;&#x9;&lt;/span&gt;- Data Enrichment&lt;br&gt;&lt;/font&gt;&lt;/font&gt;&lt;/div&gt;&lt;div&gt;&lt;font style=&quot;font-size: 7px; line-height: 30%;&quot;&gt;&lt;font style=&quot;line-height: 130%;&quot;&gt;&lt;b&gt;&lt;br&gt;&lt;/b&gt;&lt;/font&gt;&lt;/font&gt;&lt;/div&gt;&lt;div&gt;&lt;font style=&quot;font-size: 7px; line-height: 30%;&quot;&gt;&lt;font style=&quot;line-height: 130%;&quot;&gt;&lt;b&gt;Data Model&lt;/b&gt;: None (as-is)&lt;/font&gt;&lt;/font&gt;&lt;/div&gt;&lt;div&gt;&lt;span style=&quot;font-size: 7px;&quot;&gt;&lt;br&gt;&lt;/span&gt;&lt;/div&gt;&lt;/div&gt;" style="rounded=0;whiteSpace=wrap;html=1;fillColor=none;strokeColor=none;align=left;" vertex="1" parent="1">
          <mxGeometry x="-430" y="-760" width="100" height="110" as="geometry" />
        </mxCell>
        <mxCell id="4vZDOsLuTZYOKLJQRf3i-49" value="&lt;div style=&quot;line-height: 30%;&quot;&gt;&lt;font style=&quot;font-size: 7px; line-height: 30%;&quot;&gt;&lt;b&gt;Object Type&lt;/b&gt;: Views&lt;/font&gt;&lt;/div&gt;&lt;div style=&quot;line-height: 30%;&quot;&gt;&lt;font style=&quot;font-size: 7px; line-height: 30%;&quot;&gt;&lt;br&gt;&lt;/font&gt;&lt;/div&gt;&lt;div style=&quot;line-height: 30%;&quot;&gt;&lt;span style=&quot;font-size: 7px;&quot;&gt;&lt;br&gt;&lt;/span&gt;&lt;div&gt;&lt;font style=&quot;font-size: 7px;&quot;&gt;&lt;br&gt;&lt;/font&gt;&lt;/div&gt;&lt;div&gt;&lt;font style=&quot;font-size: 7px; line-height: 30%;&quot;&gt;&lt;font style=&quot;line-height: 130%;&quot;&gt;&lt;b&gt;No Load&lt;/b&gt;:&lt;/font&gt;&lt;/font&gt;&lt;/div&gt;&lt;div&gt;&lt;font style=&quot;font-size: 7px; line-height: 30%;&quot;&gt;&lt;font style=&quot;line-height: 130%;&quot;&gt;&lt;br&gt;&lt;/font&gt;&lt;/font&gt;&lt;/div&gt;&lt;div&gt;&lt;font style=&quot;font-size: 7px; line-height: 30%;&quot;&gt;&lt;font style=&quot;line-height: 130%;&quot;&gt;&lt;b&gt;No Transformation&lt;/b&gt;&lt;/font&gt;&lt;/font&gt;&lt;/div&gt;&lt;div&gt;&lt;font style=&quot;font-size: 7px; line-height: 30%;&quot;&gt;&lt;font style=&quot;line-height: 130%;&quot;&gt;&lt;span style=&quot;font-weight: bold; white-space: pre;&quot;&gt;&#x9;&lt;/span&gt;- Data Integration&lt;/font&gt;&lt;/font&gt;&lt;/div&gt;&lt;div&gt;&lt;font style=&quot;font-size: 7px; line-height: 30%;&quot;&gt;&lt;font style=&quot;line-height: 130%;&quot;&gt;&lt;span style=&quot;white-space: pre;&quot;&gt;&#x9;&lt;/span&gt;- Aggregation&lt;br&gt;&lt;/font&gt;&lt;/font&gt;&lt;/div&gt;&lt;div&gt;&lt;font style=&quot;font-size: 7px; line-height: 30%;&quot;&gt;&lt;font style=&quot;line-height: 130%;&quot;&gt;`&lt;span style=&quot;white-space: pre;&quot;&gt;&#x9;&lt;/span&gt;- Business Logics&lt;/font&gt;&lt;/font&gt;&lt;/div&gt;&lt;div&gt;&lt;font style=&quot;font-size: 7px; line-height: 30%;&quot;&gt;&lt;font style=&quot;line-height: 130%;&quot;&gt;&lt;b&gt;&lt;br&gt;&lt;/b&gt;&lt;/font&gt;&lt;/font&gt;&lt;/div&gt;&lt;div&gt;&lt;font style=&quot;font-size: 7px; line-height: 30%;&quot;&gt;&lt;font style=&quot;line-height: 130%;&quot;&gt;&lt;b&gt;Data Model&lt;/b&gt;:&amp;nbsp;&lt;/font&gt;&lt;/font&gt;&lt;/div&gt;&lt;div&gt;&lt;font style=&quot;font-size: 7px; line-height: 30%;&quot;&gt;&lt;font style=&quot;line-height: 130%;&quot;&gt;&lt;span style=&quot;white-space: pre;&quot;&gt;&#x9;&lt;/span&gt;- Star Schema&lt;br&gt;&lt;/font&gt;&lt;/font&gt;&lt;/div&gt;&lt;div&gt;&lt;font style=&quot;font-size: 7px; line-height: 30%;&quot;&gt;&lt;font style=&quot;line-height: 130%;&quot;&gt;&lt;span style=&quot;white-space: pre;&quot;&gt;&#x9;&lt;/span&gt;- Flat Table&lt;br&gt;&lt;/font&gt;&lt;/font&gt;&lt;/div&gt;&lt;div&gt;&lt;font style=&quot;font-size: 7px; line-height: 30%;&quot;&gt;&lt;font style=&quot;line-height: 130%;&quot;&gt;&lt;span style=&quot;white-space: pre;&quot;&gt;&#x9;&lt;/span&gt;- Aggregated Table&lt;br&gt;&lt;/font&gt;&lt;/font&gt;&lt;/div&gt;&lt;div&gt;&lt;span style=&quot;font-size: 7px;&quot;&gt;&lt;br&gt;&lt;/span&gt;&lt;/div&gt;&lt;/div&gt;" style="rounded=0;whiteSpace=wrap;html=1;fillColor=none;strokeColor=none;align=left;" vertex="1" parent="1">
          <mxGeometry x="-290" y="-760" width="100" height="110" as="geometry" />
        </mxCell>
        <mxCell id="4vZDOsLuTZYOKLJQRf3i-50" value="" style="image;aspect=fixed;html=1;points=[];align=center;fontSize=12;image=img/lib/azure2/analytics/Power_BI_Embedded.svg;" vertex="1" parent="1">
          <mxGeometry x="-105" y="-943" width="39.75" height="53" as="geometry" />
        </mxCell>
        <mxCell id="4vZDOsLuTZYOKLJQRf3i-51" value="" style="sketch=0;points=[[0,0,0],[0.25,0,0],[0.5,0,0],[0.75,0,0],[1,0,0],[0,1,0],[0.25,1,0],[0.5,1,0],[0.75,1,0],[1,1,0],[0,0.25,0],[0,0.5,0],[0,0.75,0],[1,0.25,0],[1,0.5,0],[1,0.75,0]];outlineConnect=0;fontColor=#232F3E;fillColor=#01A88D;strokeColor=#ffffff;dashed=0;verticalLabelPosition=bottom;verticalAlign=top;align=center;html=1;fontSize=12;fontStyle=0;aspect=fixed;shape=mxgraph.aws4.resourceIcon;resIcon=mxgraph.aws4.machine_learning;" vertex="1" parent="1">
          <mxGeometry x="-86.5" y="-762" width="53" height="53" as="geometry" />
        </mxCell>
        <mxCell id="4vZDOsLuTZYOKLJQRf3i-52" value="" style="shape=image;verticalLabelPosition=bottom;labelBackgroundColor=default;verticalAlign=top;aspect=fixed;imageAspect=0;image=data:image/png,iVBORw0KGgoAAAANSUhEUgAAAgAAAAIACAYAAAD0eNT6AAAAAXNSR0IArs4c6QAAAERlWElmTU0AKgAAAAgAAYdpAAQAAAABAAAAGgAAAAAAA6ABAAMAAAABAAEAAKACAAQAAAABAAACAKADAAQAAAABAAACAAAAAAAL+LWFAABAAElEQVR4AeydB3hVxdaGF+kJgdB7Cb2Dha4CUlSsoKJiQwWxoKhYsd97/UWvimLhCgoK9oLYsF1BQQSkqEiX3lvoLaH+822NFyE5Zc/sds63nmcgOXvPmpl3ds6sPTNrjQiFBEiABEiABEiABEiABEiABEiABEiABEiABEiABEiABEiABEiABEiABEiABEiABEiABEiABEiABEiABEiABEiABEiABEiABEiABEiABEiABEiABEiABEiABEiABEiABEiABEiABEiABEiABEiABEiABEiABEiABEiABEiABEiABEiABEiABEiABEiABEiABEiABEiABEiABEiABEiABEiABEiABEiABEiABEiABEiABEiABEiABEiABEiABEiABEiABEiABEiABEiABEiABEiABEiABEiABEiABEiABEiABEiABEiABEiABEiABEiABEiABEiABEiABEiABEiABEiABEiABEiABEiABEiABEiABEiABEiABEiABEiABEiABEiABEiABEiABEiABEiABEiABEiABEiABEiABEiABEiABEiABEiABEiABEiABEiABEiABEiABEiABEiABEiABEiABEiABEiABEiABEiABEiABEiABEiABEiABEiABEiABEiABEiABEiABEiABEiABEiABEiABEiABEiABEiABEiABEiABEiABEiABEiABEiABEiABEiABEiABEiABEiABEiABEiABEiABEiABEiABEiABEiABEiABEiABEiABEiABEiABEiABEiABEiABEiABEiABEiABEiABEiABEiABEiABEiABEiABEiABEiABEiABEiABEiABEiABEiABEiABEiABEiABEiABEiABEiABEiABEiABEiABEiABEiABEiABEiABEiABEiABEiABEiABEiABEiABEiABEiABEiABEiABEiABEiABEiABEiABEiABEiABEiABEiABEiABEiABEiABEiABEiABEiABEiABEiABEiABEiABEiABIJNoEiwq2+s9uWVpg4qtVapgUo1VCqrUlGVUlSikAAJkAAJkEC0BParDHtU2qzSMpUWqjRNpe9U2qSSpxLPBkApRb6nSler1EKleGahmk8hARIgARJwicARVc5PKr2h0jsqbVPJdYnHQa+SonyXSn1Vwhs+hQRIgARIgAS8IrBbFTxMpWdUWu9mJRLdLMzjspJU+beq9JFK7VXi1L6CQCEBEiABEvCUAMaitirdpBJ+nqLSIZUcl3iZAaijSL6n0omOE2UBJEACJEACJGCfwCyV9VKVltpXEVnOhMhuC/RdF6jaz1SJg3+gu5GVJwESIIG4IHCyauXPKp3ndGtjfQmglwL4pkrpToOkfhIgARIgARIwRCBV6blEpQ0qYUbAEYllA6CPIjZCpVhuoyMPBZWSAAmQAAl4TgAz9OeqtEalX5yoTazuAcC0/xiVOPg78dRQJwmQAAmQgFsEDqqCLlTpM9MFxqIBUFtBwpRJcdOwqI8ESIAESIAEPCCwS5WJeDWLTJYda5sAkxWc91Xi4G/yKaEuEiABEiABLwkUU4W/pVKSyUrE2hQ5AvxcZRIQdZEACZAACZCADwggiN0OlaaaqkssLQEADqZHMk3BoR4SIAESIAES8BEBLAXUVQneAdoSS0sAePvn4K/9SFABCZAACZCATwlgKWCAqbrFygwADvZZpRJj+5t6MqiHBEiABEjAjwRwdkA1lbQPEIqVGYDLFQwO/n58VFknEiABEiABkwQw032ZCYWxMgOAYxVbmgDSqFEj6dWrl3Ts2FGqVasmRYvSrjDBlTpIgARIIN4I7NmzR1atWiUTJkyQ119/XebPn28KATYC4gAhLYkFA6C8IoAjFLXakpqaKk8++aT07t1bEhJiZWJE69lgZhIgARIgAUMEDh06JK+++qrcd999sn//fl2tR5QCjH2bdRRpDZo6BRvMi1OT3tXRh8H/448/lnbt2umoYV4SIAESIAESCElg4sSJ0q1bNxNGAM4K+CBkYWEuxkIcAMT8bx2mnSEvDx48WLp37x7yHl4kARIgARIgAV0C2dnZUqJECfnmm290Va1WCrSUxMIMwJcKwll2SWLNf9q0aZz2twuQ+UiABEiABKIigOWAli1bysKFC6PKd8zN49TvOCzItsTCYncd261XGbHhj2v+OgSZlwRIgARIIBoCiYmJ1tgTTZ4C7tUa+6AvFgyAEgWAifijTp06RXwvbyQBEiABEiABEwQ6d+6sq6akroJYMAAQGcm2VKlSxXZeZiQBEiABEiABOwTgZq4p2ofexcIeALhD2Bb4aVJIgARIgARIwG0CBuLMaI3hsTAD4HafsTwSIAESIAESCDwBGgCB70I2gARIgARIgASiJ0ADIHpmzEECJEACJEACgSdAAyDwXcgGkAAJkAAJkED0BGgARM+MOUiABEiABEgg8ARoAAS+C9kAEiABEiABEoieAA2A6JkxBwmQAAmQAAkEngANgMB3IRtAAiRAAiRAAtEToAEQPTPmIAESIAESIIHAE6ABEPguZANIgARIgARIIHoCNACiZ8YcJEACJEACJBB4AjQAAt+FbAAJkAAJkAAJRE+ABkD0zJiDBEiABEiABAJPgAZA4LuQDSABEiABEiCB6AnQAIieGXOQAAmQAAmQQOAJ0AAIfBeyASRAAiRAAiQQPQEaANEzYw4SIAESIAESCDwBGgCB70I2gARIgARIgASiJ0ADIHpmzEECJEACJEACgSdAAyDwXcgGkAAJkAAJkED0BGgARM+MOUiABEiABEgg8ARoAAS+C9kAEiABEiABEoieAA2A6JkxBwmQAAmQAAkEnkBS4FvABpAACQSGwKFDh2T+/PkyY8YMmT17tqxatcpKu3fvFiRIVlaWZGZmSo0aNaRWrVrSpEkTadOmjWRnZ1vXg/zP3LlzZeTIkTJhwgRZvny5JCQkWO3q0KGD9O7dWxo3bqzVvAULFsjrr78u48ePt7ju2bNHS1+sZy5atKhUq1ZNOnbsKNdcc400bNgw1pv8t/YV+dtvwfzliE61+QeiQ495SSA8gYMHD8rXX38tn3zyiXz55ZeydevW8JkKuKNq1apy/vnnS7du3SyDoEiR4Hx97du3T+655x557bXX5MiRgr+yYAzACHjyySclNTW1AAKFf7R//36577775NVXXxUYWZToCSQmJkqfPn3kiSeekJSUlOgV2MgBA0RTtP4ItDJrVtxU9oL/miLUTgMgQlC8jQSiJICBftiwYdYb77p166LMHfr2Bg0ayE033SRXXHGFpKWlhb7Z46sY/Lt37y4//PBDRDVp166dfPzxxxEbARj8of/777+PSD9vCk2gffv2Fn83jACvDQDuAQj9LPAqCZBAlARgVOMttlGjRvLYY4+J6cEf1cFUd//+/aVZs2YyevRoX7/14s080sEfbZs0aZL1No+fIxHo5+AfCanI7pk4caIMHDgwspsDfhdnALhGFvBHmNX3E4H//ve/ctttt8nKlStdrdbJJ58s//nPfyyjw9WCwxQ2Z84cadu2rRw+fDjMnX+/jOWAadOmhW0PDKFWrVr52gD6e8uC8RuWA3766SfBTJOTwhkAJ+lSNwmQgCsEcnNzpV+/ftb6vNuDPxo4a9YsOfXUU2XIkCGFrrG7AuKYQrDhL9rBHyqQB3nDCfYUcM0/HKXor4PpqFGjos8YsBxcAghYh7G6JOA3AqtXr5YuXbpYu8+9rBvWwu+//365+uqr//Io8LI+KFtnaj6SvNjtT3GGQDywpQHgzLNDrSQQFwQWLVoknTp1kp9//tk37f3oo4/kvPPOk+3bt3teJxhHdiWSvGvWrLGrnvnCEICLaqwL4wDEeg8f0768vDyZPn26YKPL77//bvkir1ix4jjXrGLFill+2PDFrlmzpjW9etppp4mBNatjasRfg0pg3rx5cvbZZ0tOTo7vmoBnvGvXrvLFF19IyZIlPasf1pIpJOBXAtwEGAebADHojx07Vt555x2ZMmWK7N2719bzCLeY1q1bywUXXGC5X8FIoMQngbVr18rpp58u+N/Pcsopp8inn37qmasgNicuXLjQFiJsQJs5c2bIvDr6QyrmRSsoEAJWOSkGXqi0xnAuATjZux7rxpfzgw8+KHXq1LECjHz77be2B380BWuscFG68847pXbt2nL77bcLpoAp8UUABuSFF17o+8EfvfLjjz/KjTfe6FkHYXnEriA6YDjp3LlzuFt43SYBnb6zWaTr2bSsB9drW3CBDAR0DBf4YT/77LPWjmi7b/vHqCz0V0xxXnvttfLwww9L6dKlC72PF2KHwM033xy4HdLPP/+8ZQS73QsIe4xZs2h36sMNEG5o4ULTYnahZcuWUet3m0PQysP3GpaR6tev72jVOQPgKN74U46p/hNOOEEGDRqk9bYfKTl8sSH8aNOmTa2ob4WFOY1UH+/zNwE8X0F0j0KwHOx5cVswgCO8bLRy/fXXhx38oRMDFO6lmCVwww03OD74m62xPW2cAYiRPQBY58eX3PDhw+09CYZynXvuuVYdcKALJbYI4LAeGJfr168PZMMwpT5u3DjX6x5tqF7Uc8yYMRHvW4hWv+sAAlYg9rbA0E1OTna85pwBcBxx7BcAdxWsV3k9+IP0559/bnkMIAIaJbYIYFYpqIM/egJ+9XARdFuweRYDCvYihPIKwLQ/3jxRx2jON4hUv9vtDlp56Bssb7k1+PuBD2cAAj4DsGzZMssVKxKfYTcfuOLFi1unv2F9khJ8Aps2bbLC0jq9p8RpUnXr1rWiBmKw9UIQuhdLKPnH9SLiH46jxVvnddddF9G0f6h65x8HjOOGEZGRh52FoiXWsdPgj82UvXr1cn3a3+sZABoAATYAlixZYg3+fnXFohEQ+ssnSFcfeOABee6554xWObF4RUmrf6akVm8tSaVrSGKx8nLk4H45vG+bHNyyTPJWTJXcRf+VQzvNLjm8+eab1ul5RhtDZSRggwANABvQjskSl14AGzduFATm8evgn99HiBWAA2KaNGmS/xH/DxgB7C+B2yeO9zUhGOiLdRgg6fXOEEkIEyjnyGHZN2+c7Jr8ojFDAIfz4JmkkIDXBLw2ALyZB/OaesDLP3jwoBXv3O+DPzDv2rXLChq0c+fOgFOP3+pjX4epwT+9wVlStvfHkt6ga/jBH8iLJEh64/Ok7LVjJL3+WUY6YerUqYKlMwoJxDsBGgABfALgcz958uTA1Hzp0qXSt29fX53SFhh4PqioqY1zRU++Qkqc96QUSSkadauKpGZKifOfFOjQFbiqvv/++7pqmJ8EAk+ABkDAuvC7774TBDUJmnz22WfyyiuvBK3acV9fuJghgqSupNVuL8U73q3U6Gw7KiLFO90jafW66FbHSJu0K0EFJOAxAZ2/Ro+r/lfxcbMH4MCBA1ZUMbuxxf8i5tEPOJTlt99+k1KlSnlUAxYbLQHMNJ155pnRZvvb/YnFKqhp/4/Um3/m3z63+8uR/Xtk84hucmjXRrsqJCkpSXCSHs+zsI2QGQ0Q4B4AAxDjRcXLL79s+2ARPzDatm2bPPbYY36oCusQIQETx/xmnnKjscEf1cYSQrF2t0XYgoJvwz6aX3/9teCL/JQE4oQAlwAC0tE7duyQxx9/PCC1LbyaI0aM8CQka+E14pVQBHQHSbj6ZTS+IFQRtq5hE2FiZjlbefMzMVhVPgn+H68EkuK14UFrN3yXTe+kr1Y+WS7qkCWdTs6UBtXTpExWoqSmFJE1mw/KolW5Mn7mbvngux2yetMBY7jw5oWZjMGDBxvTSUXOEUAwGR1Jq90hst3+0Rai3AfTGp4te6a/Hm3Ov+5HHA0KCcQzAc4ABKD3sWvZ5Aa66mrgHzmwivz+Tj35900V5cyWxQTGQEZagiQmFBFcP6NFMXlSXcM9ox+sKpXLmIuL/fbbbwviylP8T0DX1TS15mmONTK16slauhFLg0IC8UyABkAAeh8xzBcvXmykppd1KiGzRtaRq84saQ324ZQmJRaRnp1LyG+j6kqP080c8IPYAO+99164onndBwR0/f8TS1ZzrBVJZetq6d68ebNWfmYmgaAToAEQgB785JNPjNTyth5lrLf5rKJhoq8VUFrxogny1sPV5JaLShdwNfqPTPmWR18yc0RDAG6AOpJY1MzzUlAdEtJLFvRxxJ/Bq4ZCAvFMgAZAAHofB3voyiUds+TpfhWliIbjJ/I+06+SnN26mG51ZNq0abJv3z5tPVTgLIFDhw45W4CH2nEQD4UE4pkADQCf9/7y5csFkfR0BOv7w+6uoqPir7w4RG30Q/p7AnJzcy0j4C/F/MGXBDIz9Xz3D+3Z4li7cGiQjqSnp+tkZ14SCDwBGgA+78IpU6Zo1/Cx6ytIZrq5rsYSwgNX67lgoVGTJk3SbhsVOEugRIkSWgUc2qbnRRCq8IObfw91Oey1cuX0n+GwhfAGEvAxAXOjgo8bGeSq6boqVSmbLJj+Ny3XnF1SoFtHdGc2dMpm3sgIVK5cObIbC7krd9kPhVzR/zhv9SwtJRUqVNDKz8wkEHQCjAPg8x7EEoCO9OxSIqLd/tGWkZxURM49pbi8/LH9KV7dtkVbZ94fPYG6desKTs+zK3mLvxfpeK/5WACHD8m++ePsVsvKV69ePa38djLPnTtXRo4cKdjXg+c/Qa2pZWdnS4cOHaR3797SuHFjO2r/yrNgwQJ5/fXXZfz48bJq1SrZs2fPX9f4w/EEEIq3WrVq0rFjR7nmmmukYcOGx98Uw59wBsDnnat7bOlpTaM/eS1SJGe10tsMuGLFikiL4n0eEWjQoIFWyYd2bZC9cz7W0lFQZgz+h3frufHptq2gehX2GTa83nrrrdZZHsOGDbPcehEUC14Wv//+uwwfPlzatGkjt99+u+Tl5RWmptDPoWfAgAHSqlUrefHFFwWGAAf/QnH9dQGMwOqll16y+gYMdT1f/lIegB9oAPi8k3Sj/zWpleZYC+tUSdHSDR9zBDmi+JfAKaecol253VNeliP7zQV+gq5dk/ROxExNTZUTTzxRu22RKMDg3717d+vNP9TzDq8EBPzq1q1bVEYABizoh2ERy14bkbDWuQfswBD848UIoAGg88S4kFfXVal08eh9/iNtVoVSensAIi2H93lHoFmzZlK8eHGtCuDUvm2fDRQ5YsLt7ohsH/eQHNq9SatOeFN2ywvgvvvukx9+iHwvBDbHIk+kgnsRLIxihsDEiRNl4ED1vMaB0ADweSfTovd5B8V49RITE6Vr167arcxbOlF2TnhK6dGZ8TkiO/77uOQuHq9dH90jjiOtAA4cwpp/tPLqq6/KvHnzwmbD9DXupZglgJkYsI11oQHg8x7GJiEd2bLTuUAuG7bqRVIrohOVSAcK80ZF4JJLLonq/sJu3jPrLdn26T22lgMO5+2SbZ/cJXt/0Q8hjb+pHj16FFZNo59j8Lczi4c8kRgOr732Gqf9jfbYH8rw4jVq1CgHNPtLpd7o4q+2xGRtdN2w5izNdYzL76uj36x0dGXKly+vIhOq8IIUXxPIyjLnRpq78GvZ/OoFsm/e5yKHD4ZvN3b7z/1EckZeJLmL/hv+/gjuaN++vej+XUVQjHWLztR8JHmx25/iDIF4YEs3QGeeHWNaq1atqqVr0uw90tVA6N6CKvHVT3obu+D+RPE3gffff19uuukmo5U8pHbvbx93v+ya+Jyk1T9TUrPbSFLpGpKQWVaOHMi1ZggO5iyVvBXTrEEfngQmpX///ibVhdS1evXqkNdDXYwk75o1a0Kp4DUNAnCjjHWhAeDzHq5evbpWDd/573Z57PryxmMBHDh4RMZN2alVNxoAWvgczYwp6H/84x/yzDPPOOapgY18e2a+YSVHG3OUcvjZd+nS5ahPnP0ReygoJOBXAlwC8GvP/FmvRo0aadVwbc4BeXf8Di0dBWV+7Yttsmaz3h6A+vXrF6San3lMYPfu3dKzZ095+umnHRv8vWriY4895uqyU5Uq9s/gQICacKKjP5zueL8eCf+gM6IB4PMebNeunRUtTKeaD72yQXbtNeGC9Uctduw5JP83Ws8NC5qwFkvxFwEEZ0JUtM8/V2v0MSZnnXWWq2//wNepUyfbFBEdMJx07tw53C28bpOATt/ZLNL1bDQAXEceXYGlS5cW3VmA1ZsOyPVPrlFvc9GVXdDdOEH16n+tlnVqZkFH4Ft+0kkn6ahgXsMEJk+ebBllkbifGS7acXV43p599lnHyzm2AISXtbMMAE+F66677lh1x/1+7bXX2tJ/nCJ+8DcC6DP0XawLDYAA9DDeyHRlzMQdcscL67SMABgQA15cJ19M26VbHWugSUriFhRtkIYUIH78eeedJzk5OYY0+kvNkCFDrJjvbtcKseX79OkTdbHXX399RHHpsYyGeylmCdxwww0SD0uUseCDpfVeG4R42fPnz5cWLVoYecJ7nJ4lQ++sLCUyo9uchGn/G/69VmBImJC33nrLCrlpQhd12CeAePSIejZ06FD7Snyes2/fvp68/edjyQ/VG4lbH/Jg6n/MmDGSlhZZGO9o9efXi/8XTOD000+XsWPHSnKy85FOcRiRpmiN4ZwB0KTvRna8ReCgEBPywXc75KTrFsvor7bJwUPhbSfs9n/j623StNdiY4N/pUqV5NxzzzXRHOrQILB9+3a58MILY3rwxxr5U08hAqF3kpKSYg0oN954Y8jpekz7483zo48+injwR6si1e8dgWCUjGn/m2++2bXB3w9UtKwHPzRA1SH8KBaiokGYAUD133nnHVtTiSGaLtXKJ0v3dlnS6eRMaVgjTYpnJEhGWoKsU7v7F6kgP9/O3C0wGHTX+4+tw/333y8PPPDAsR/zdxcJLF682IqGh/9jVU477TT58MMPJTMz0zdNRHhZRJjLP64X7pbYbY63Tqz56x5HC/1YzsFxwytXruSJgGF6Hs8G+MNQ7NWrl+vT/l7PANAACMB52QhLiWMqYyHmN/7gEB+9XLlyYf40edkpAt9++61cffXVsmOHmeUcp+qpoxf7Zt577z3JyMjQUcO8JOAoAa8NAC4BONq9+spxNjh2o8bC4A8a9957Lwd//cfCtgbEl7/44otjevDHmzTW0Dn4235MmDFOCHAGwMczAFu3brWmaadNmxYTjyMi/82aNSuq9c2YaLgPGoGNYrfffrujB5zkH1xl5/AbE4gwu4T1fsxuUEggCAQ4AxCEXvKgjvkBWWJl8AdCbGRMTU31gGZ8FwnXPmy6dPJ0Mwy+b7/9tmB5QTduhZ3ewhr6jBkzOPjbgcc8cUuASwA+7Ppff/3VisYWaxu0sJHxsssuk1279OMI+LDbfFmluXPnCqJJ/vjjj47VD+dVYFMb4gi0atXKKgthhCtUqOBYmfmK69WrJziwCJEL4yF0a367+T8JmCDAJQCfLQHgi/Tyyy8XxGOPValTp468++67ru+4jVWehbXrs88+szxHnHyWTjnlFOvNv0yZMsdVY9++fdaOdOxfWbhw4XHXdT449dRTLZctzGzYibSnUzbzkoApAl4vAdAA8JEBgClU+KEeOKAXZtfUw+mkHkwZv/zyy9K9e3cni4lL3UdUyEashf/rX/8SJ9fj4Tb13HPPWX7o4UBPnTpVPv30U/niiy9kyZIl4W4/7joG+SZNmsj5559vxS6AEUkhgaAToAGg34MxEQcAX9g4fhVf3vEiRYoUsTamod18izPT63jrhhGJaXGnBH31+OOPyy233GKrCJxh//PPP8vs2bMtX3X8jlkKLA3BYMnKypKSJUsKTrrDQI89Bdg/gnj+FBKIJQI0APR7U2vE9DoQEHz877rrLhk+fLg+iYBqQMCW0aNH0z1Qs//Wr19v7bGYOXOmpqbCs2PmBoFmunbtWvhNvEICJBARARoAEWEKeVNgDQD4+OOgEIT+jHepXLmytZbcvHnzeEdhq/14m7700ktl9erVtvJHkqlWrVrywQcfCDbeUUiABPQJeG0A0AtAvw9tadi2bZvlmsXB/w98a9eulTPOOMN6u7QFNI4zIdwtQpk6Ofgjst6kSZM4+Mfxc8amxx4BGgAe9Cl8/OG3PGXKFEdKzw/I4ohyB5ViRqRfv37WvgAErqGEJoD18kceecSKFLl3797QN2tczT8gpUSJEhpamJUESMBvBGgAuNwj8+bNky5duohTPv41a9a0Nli98cYbUqNGDZdbZ6a4V155xYqD4OQbrZmaeqcFm+auuOIKgb+9UxtHk5KS5JlnnrE8CvAzhQRIILYI0A3QRTdAp338EYQFa7SlS5e2nlK8USP624gRIwQBYUwKdmTv3LnTpMrjdJUvX15gyMDXnPI/AphBuuSSSwTGpFMCv/633npL4G9PIQEScIYA9wA4w9V3WuHjf9FFFzkW4AcBURANLX/wBwCE3e3bt6/89NNPMnnyZLnpppsstyq7cMqWLWsdWfrll18KXLfw9pmcnGxXXdh8GzdulHPOOSemz6sPC+GYG9CP7du3d3Twh9vdxIkTOfgfw56/kkCsEeAMgAszAE77+MOTYPDgwRH70sNd7IcffpD58+cL3iaXL18uW7ZssZ5trL3DPx+78jHg4wCfE088UbA7v3bt2sc9/9jHcOWVVwoGaycFIYRfeOGFuD7h7bXXXrOOhXZyfwQMScwYwd2PQgIk4CwBr2cAaAA4aADAx//OO+8UrGk7IRioH374YbnnnnucUB+xThgUMAKcPrioadOmlqtgUPc2RAz0mBsPHjwoAwcOdHQmBM8SnlVsKgzqJtJjsPnyVyzF4UjmCRMmWIY3WMPI7tChg/Tu3VsaN26sVe8FCxZYnjRYbly1apV4HedEqzEuZMYAjDMk4OVyjTp2vWHDhi6U+r8iaAD8j4Xdn3wZBwAR2fBAYVreCcHU+0svvWRtBHNCf7Q68VZ67733Oh7QCBHi8CaMjZTxINu3b5errrrKGjCcam9aWpr85z//sfYVOFVGvOvF9wEMdTy7hW3ahDEAI+DJJ5+M+tRM/P3dd999gnMX8OJBiZ4AIlxiNvWJJ56IKLx19CUcn4MGwPFMov3EdwbA1q1b5eKLL7bW3qNtTCT3Y3oWG7Tg++03Qb369+8vubm5jlUNX5QPPfSQ3H333dZyhWMFeawYniI9evRwzGMEzatYsaJ1MBMDMDnX2Rj8ceYFlt0iEZze+PHHH0dsBGDwh/7vv/8+EvW8JwwB7LEB/5SUlDB36l/22gCgG6B+H/5NA9bUMZ2EjXdOCHbGf/31174c/NFeuKZh+tHJo1nh/47zA2L5aOFvv/3W2uznlLso+urkk0+2gvtw8AcN5wRv5pEO/qgFAi4hT6SCezn4R0or/H3YAIslt3gQ7gEwuAfg119/tU4qc2pDHA5GgWWKNUO/CzYVYgkEa51OSiweLfziiy/K/fff7+hULtwIhw4dKunp6U52T9zrnjNnjrRt2zbqUxkxy4U9NfDICCVY84f7L6f9Q1GK/hqWA/AS16BBg+gzR5GDMwBRwPLzrXjrPfPMMx3bDY8/cgymQRj80U9wR4SxMmDAAEen6fGGjCm7sWPH+vnxiKhumMpF1D3spXDqCx0Dy6OPPmptROPgH1G3aN2EDX92jmRGHuQNJ9hT4NSzEq7sWL4OpoihEuvCJQADPeyWj3+pUqUM1NY9FbCicSb9m2++6ahbGaLiYaPcgw8+GNgvw5ycHOtsCCe/dLB3BM9qrO+dcO8JD1+SztR8JHnx4kFxhkA8sKUBoPnswMcfwXYOHDigqang7NiVii/tjIyMgm8IwKfdunWz1jUxXe+UYGf1s88+KxdccMFfMQ2cKsu0XriGYePXjz/+aFr1X/qqV69u7c0477zz/vqMPzhPQCecdSR5EZCL4gwBuFHGunAPgM09AJgiigcff5N/ALt27ZLrr79ePvvsM5Nqj9OFDYgwmhDAyI4gQNKsWbMER+wiSNLKlSutCI6oPwQumAiSVKlSJSs4EtZpsUQDH2L400cjYAEjD7MYTglCKYMHwvtS3CWATbt2+xbrw5s2bQpZYR39IRXzojVr6dR+rny8Xu8BiO7bKr/W/vrfdTfAePPxN9ndeFNHCGEsDTi5dgnf9iFDhlgBisLVH+utCLH73nvvWR4WCGxkR7Dv4ayzzrI2gsJFM9QBOuCA2SNwsLNGHGn9sBETMyNuuDRFWqd4ug+eFgsXLrTVZGxAmzlzZsi8OvpDKuZFy6CfMWOGoyS8NgC4BBBl98LHH/HpnQrwg3VanO8Od7pYFLwhYw36o48+EgT1cUoQh+CGG24IebQw3uiff/55a6d1165drQhqdgd/tAOeD4iDgDMfMBvw73//WxDI51iBAXnttddaroxODf7Yf4HyESyKg/+xPeDe7506dbJdWIcOHcLm9WMskLCVDsgNOn0XkCYKZwCiWAKAjz/Ws53yzcZ0HgbGE044ISjPj1Y9wbNnz57y22+/aekJlxnT8xiYEfQGglMShw8fbg2QMOiclKysLCsw0m233Wa53K1bt04uvfRS68hmp8pFmThFMR6+wJxiaEovlpNat24d9WwXvDXghhYuNC1mF1q2bBm1flPti1U9MKCnT58u9evXd7SJnAFwFK855fDxR4AfpwZ/bJCDm1+8DP7oGbg0os0I6OOk4IsU6+DYZAffanwhI3iK04M/2rRjxw5rmr9FixYybNgwa7Pfzz//7Fhz8RwhkAkHf8cQR6UYAzj2eEQr2CsTbvCHTgxQuJdilgBmD50e/M3W2J42zgBEMAMAd5DLL7/c9maecF2DN1RM+wfNzS9cu6K5jlj0iL7llDcF6oLNe9h34NS0ezTtdeJeDPp488cMAMU/BKIN1Yup/zFjxgj2sUQi0eqPRGc833P66adbcUWcPOo8ny9nAPJJ+PT//DVduzt5wzULx69iP0E8D/5gdNNNN8kXX3whWAZxSmBcxOrg369fP2v5iIO/U0+Pfb3Yg4FAVTfeeGPII7sx7Y83TywDRjr4o1aR6rffgvjIiWl/BOJCX7kx+PuBKmcAQswAYJc2Ys4XdnqXbgdianDw4MEhvxR0ywhafreOFg4al8Lqiy9/7PK/Ru32p/ifAEL3ItgTZhXhZw6DFG6reOu87rrrIpr2D9XK/OOAsbQG91UeBxyKlliufuCPzZS9evVyfdrf6xmAoBoA1VW3nqRSM5UeCd3Foa8W9AdCH//QzJy+iilNN44WdrodTuuHXz/8+7G/gUICJBA8AjQAIu+zU9WtPVTqqpKxkHLHGgD08Y+8Q5y+E8svTh8t7HQbnNKP4EMffPCBIMIfhQRIIJgEaACE7jfEv73hz1Qv9K32riIGe/6hKNgVfvHFFzt2lC98/DGo0Xc38r6C9wVcBeMhLGekVLBvZMSIEY6erxBpXXgfCZCAfQJeGwB+DQSUrJAOUGm5SoNVcmTwV3ottzscVrNs2TLLzQ8uY04INrd9/fXXHPyjhAu3SETpgwtmvEt+EKV33nmHg3+8PwxsPwkYIODHPQAdVLuGquTsQczHwMMOUKdC08I3G0fjwu+dYo8A+gbH2GLDm1ObMu3VzJ1cmKUaOnSoXHLJJe4UyFJIgAQcJ+D1DICfDIAkRftBlR5Sya8zE1E/EAgAAx9/HsQSNboCM8BVsHfv3rJz584Cr8fihxUqVLDOKWjevHksNo9tIoG4JUAD4I+uxzFlH6sUU9uZsVb7+uuv/7XHIG6fcsMNX7RokRVO16mojIarq6UOh73gkKL8MMZaypiZBEjAVwS8NgD88KZdS/XIFJViavCHjz9ctPI3GPrqqQt4ZerVqyc//PCDxPrZ9pjux74RDv4Bf2BZfRLwKQGvlwBqKC6TVKriUz5RVwsbtR555BHrxLuoMzNDVAScPlo4q2yaNDi1nNRoVlLKVCsqGcWTJSk5QXbm5EnOmr2y/NetMv+HTer33KjqHe5mRIR7+OGH5a677hI8TxQSIIHYJOD1DICX3y4VVJdOVgkzADEhCB+J41dj9Shfv3bSl19+ablvmqpfVrk0aX9FTWnSobwUSQj9J3L40BGZP3mTjH9tiezakmekCpUrV7bOkIchQCEBEohdAl4bAF59w6SoLh2jUswM/vDxx2Y/Dv7u/7GaPO++Ubvy0vf5ltK0Y4Wwgz9ampBYRBq3Ly83Dm0lDdVsgQlZu3atTJmCVTEKCZAACThHwCsD4FnVpLbONctdzfTxd5f3saXh8BQT0uqCqtL9rkaSWhQOKdFJakaSXHhPY2lxnpnVLET5o5AACZCAkwRCz286U/IZSu1XKnlRtvEW0cffONKoFB48eFBq1qwpW7ZsiSrfsTc3PK28GsAbHftx1L9jX8J7//pNlszQq0/ZsmVl+fLl3AMQdQ8wAwkEh0C8LQFkqq55RaWYGPxbtWolOHWLAX68+4ObO3eu9uCPzX7n9q9vpBHYtNf9zkZSrHSqlr7NmzfL0qVLtXQwMwmQAAmEIuD2EsCdqjLVQlUoKNfg4z9u3DgpVapUUKock/XEWQG6cnqvWpKSlqir5q/8WEI47bLsv363+8P06dPtZmU+EiABEghLwE0DADuk7gpbowDcgEh09PH3R0fpGgDFy6RKo9PMbN47msgJnSsJdOvIjBkzdLIzLwmQAAmEJBD9bqeQ6kJe7KeuYgnAmFRNS5Hu5UrJ6aWypH7RdCmdnCSpym1rbd5++X1Prny3daeM2bRF1uTuN1YmFJ100kmCswMo3hNYsGCBViUad4hst3+0hSQkFZG6LcvIzC/WRpv1r/tXrlz518/8gQRIgARME3BrBgCvQjeYqny1tFQZ3rCmzG3bTB6vU026lM4SGAMZiQmSqNZgcb2z+uz/6lS17hnZqJZUSoXnoRl5+eWXzSiiFm0COM5ZR6o1KqGTPWTeWs1Lh7we7uLGjRvD3cLrJEACJGCbgFsGwLmqhuVt1/KojD3Kl5ZprRrL5RXLWIP9UZcK/DFJGQSXVCgts1o3kQvLm1mvnzNnjvz4448FlscP3SWwbds2rQLLZRudlPpbXUpVyvjb79H+smnTpmiz8H4SIAESiJiAWwZAj4hrFOLGW6pVkJGNa0nxpOin34upPKMa15abqyIAob6Y8j3Xr0l8a9A1ABDe1ynJLKk367R7926nqka9JEACJODKsbv4FjxHl/VF6u39CTXdr+M/iLxP1q1mZCYA4Wcp3hNA+OVYFZMRDmOVEdtFAiRgn4AbMwAnquppzbNifX9ogxr2W3lUThgBL9WvIRU19wRgg5buBrSjqsUfbRJACGYd2bvzgE72kHl3b9PbfJqaqudFELJyvEgCJBD3BNwwALSP+f1HrapS1OCueywH/LO2fshWuml5//dTvHhxrUpsWuHcNPvWtXu16paRobeHQKtwZiYBEoh5Am4YAE10KFZWb+qY/jctF6vNhNCtI/Pnz9fJzrwGCFSooLenY+Xc7QZqUbCKJbP0wgHXqGFm1qvg2vFTEiCBeCfghgGgdeLfpWoHP1z7TEsyQrZqGhYIQ0vxlkDDhg21KjD3+w1y5PARLR0FZT588Igsnp5T0KWIP6tbt27E95q6cd68eXL33XdL8+bNpVy5clbCz/fcc4/Q4DVFmXpIwB8E3DAAqus09ZSSxXSyh8zbUQUQ0pF169bpZGdeAwR0DYBdW/Jk7kTz/va//Hed7MzJ02ohDppyS/Ly8uT222+X1q1by9ChQ639LXv27BEk7HV56aWXrGsDBgyQ/fv19ja41SaWQwIkEJqAGwaA1gjeONO5ddC6GWmh6YS5un27c9PHYYrm5T8JNGvWTJvFd6OXyf59h7T15CvI23NQJr+7Iv9X2/+3adPGdt5oMmLw79atm7zyyity+PDhQrMeOnRIhg0bZt1LI6BQTLxAAoEh4IYBUFSHRikV3tcpKZ+q50K2Y8cOp6pGvRESQFjmMmXKRHh3wbftzMmVz4aokMIGVgJwHPDYZ+bJrq16b/8VK1YU3dmNglt7/KeY3p80adLxFwr5ZOLEiTJw4MBCrvJjEiCBoBBwwwDQYnFIfaE6JYc1dSck+B6fU+h8oxdnMpxxxhna9Vnw4yb5+pXf9YwA9ah+88piWTJDb/MfGtOpUyfB0cJOC9b8R44cGXUxmC2gG2zU2JiBBHxFwI0RbI9OizfkOeenveXAQZ2q8ShgLXrmMuNoZhMy47M18tG/50qumsKPVjDtP+bJuQIdJgRT8m7IqFGjQk77F1YHLAcgL4UESCC4BJybX/8fk13qx5L/+zW6n5bty5Pammv1hZW4YM++wi5F9HmpUubdEyMqmDf9jUDXrl0FU+br16//2+d2fpk/eZOsWbhTOlxZQ3BSYEJi6Ldw7PafO2mjfDdqqfa0f359s7Oz5cwzz8z/1dH/x48fb1u/Tl7bhTIjCZCAMQJuGAArVW2r2a3xVznb5Qx1sp8TguOCdYQGgA49c3kRMveGG26QRx991IhS7An49LkFMvGt5VK/bVmpcUIpKVutqKRmJElyaoLsVJ4DW1SQn+W/bJX5P2wyNvDnV75Pnz7i1vLSmjX2ZyxWrVqVX2X+TwIkEEACoV9vzDQIC4zX2lWFYD3zTmkmONXPpBxU6/+Np8yWNbn2XZr69u0rzz77rMlqUZdNAlu2bJH69evL3r160fdsFm8sGyIbYl3eLeOyaFGtPbqWm6CxxlMRCcQZAd2/P4VLa2B0Yw/AHJ0+XZu3X95YpxdQpaDy392wRWvwh86WLVsWpJqfeUCgdOnSlh+7B0UbLfK+++5zbfA3WnEqIwESCBwBLeshwtZilPwpwnsLvA0H9/zSpolkGjoPYMfBQ9LqpznaBsDs2bOldu3aBdaZH7pPYN++fdKiRQtZvny5+4UbKLFmzZoyc+ZMcfMQIN03EAQKopAACdgjoPv3p0rVGsPdmAH4RVUSGwFty3o1C3Dd3KViImIrnApvWbBce/CH73mtWlpRjm3zYMaCCaSnp8tTTz1V8EWffwqXv6efftrVwd/nSFg9EiABhwm4YQDAj2+cbju+UJsB7/59pZYRgMH/zkUrZeymrbrVkfPPP98VP23tisaZAngEYG9G0KR///6u7fwPGhvWlwRIwBkCWtMHUVTpQnXvmCjuL/TWrmVKyMhGtQRH+kYju5Xfct/5y+TTTduiyVbovXCBQtx0iv8IIEwt3OimT5/uv8oVUKNWrVrJ119/LcnJepEpC1Ad9iPdKUguAYRFzBtIoFACun9/SrHWGK6VudBWHX8hRX20UiW9s1v/1FtBhfC9v0ZlubpS2bDeAdjt/77a8PePpWsEGwpNCA5p+eWXXzgDYAKmQzrWrl0rHTp0EL8f2IR1/2+++caKY+AQipBqdb+AaACExMuLJBCSgO7fn1KuNYZrZQ7ZsuMvPqI+evT4j+1/UkltDjy7bAnBrEB2WqpUSUtRNIoIIvzN3b1XJm/bJe9tzBHT0QQff/xxue222+xXnDldIbBkyRLBkoBfjYAqVapYg3/16tVd4VFQIbpfQDQACqLKz0ggMgK6f3+qFK0xXCtzZE38666y6qclKhX/65MA/oCIc7/99ptkZDh3SmEAsfi2yn41AjD4f/755+Lmkb8FdZLuFxANgIKoHv/Zrl275MsvvxQcpDRnzhxZuXKl4DCxAwf0Qp1j2SgrK0tgRDZt2lTat29vGb2ZmZnHV4Kf+I6A7t+fapDWGK6V2QbNh1Sef9rI55ssL7zwglx33XW+qQ8rEp4Aot1deeWVMmPGjPA3u3BH27Zt5a233pJy5cq5UFroInS/gGgAhOa7ePFiGTx4sHz44YeuBanCy0mPHj1kwIABdFMO3T2eX9X9+1MN0BrDtTLboIewY3NVyraR1/MsdevWtQaRpKQkz+vCCkRHAGfe33vvvdaZ99HlNHs3wvzCVRHhi/0gul9ANAAK7kXEpPjnP/8pQ4cOlYMHoz9cqmCt0X2K2YF+/frJQw89JGlpadFl5t2uEND9+1OV1BrDtTLbJNRZ5ftGt+I2y7adDX9M2KzF6H+2Efoi47hx4+Tuu++2pmDdrBA2+w0ZMkQ6duzoZrFhy9L9AqIBcDxiLDv17NlT5s+ff/xFDz7Bd9Y777wjFSoY2YPtQQtit0jdvz9FRmsMT/AA7beqzBc9KFeryEceeYSDvxZBf2Q+55xzZNasWYKQuwgc5LQUK1bMmnmAS6LfBn+n2x6P+hEdtFOnTr4Z/NEHePbatWsnc+di8pVCAv8joGU9/E9N1D/B4XmCSqdGndODDGeccYZ89NFHdPvzgL2TReIAoVdeeUWGDx8uGzduNFpU2bJlrelXBCXCJi2/iu4bCGcA/tezePPH4J+TY/7skv+VYv+nypUryw8//CDly5e3r4Q5jRLQ/ftTldEaw7Uya5LAUzhZpdqaehzNfsIJJwimjUuUKOFoOVTuHQHsD/jiiy+sXfkIyLNtm71gURjozz33XOnevbv1tu9mTH+79HS/gGgA/EEea/54y/bLtH9hzwOWA7766iuGnC4MkMuf6/79qepqjeFamQ2wggP0DypVNaDLuIrGjRtbrjtuHc1qvAFUGDUBbNjClClctXAsL77QN2zYIDt37rSOvkWUwZIlS1on9uEEQhxBfOKJJwoMRbhh+WVzX6QN1/0CogHwB+mBAwfK888/Hyl2T+9DXR988EFP68DC/yCg+/entGiN4VqZDXViDaXnS5XqGdJnRE3Dhg2twR+H/lBIIFYJ6H4B0QAQgatf8+bNPdvtH+2ziRgBiGXCpYBoyZm/X/fvT9VIawz3YhPgsRSXqw9OUQkzAb6QCy+8UL777jvh4O+L7mAlSMDXBODn75Wrnx0wu3fvlkGDBtnJyjwxRkDLejDMAs71mJdCiu6kH0MVgX8/dvvfcccd3PBniCnV+JuA7htIvM8AIMIfXDz37t3r744+pnbo92XLlgkjBh4DxuVfdf/+VHW1xnA/zADkIz+ofnhUpQ4qzVHJVcHJfnjrR/QsnM1OIQESIIFwBBDeN2iDP9oEww2bASnxTcBPBkB+T8Az4GSVbldpQ/6HTv1frVo1GTVqlHz77bdy0kknOVUM9ZIACcQgAcT2D6oEue5BZe63emPa3Y+CEzKGqDRcpT4q3ahSQ5WMC471ZZhM41ipkATiggC8RYIqQa57UJn7rd5+nAE4mtE+9csLKjVSqa1Kz6q0UCVjwsHfGEoqIoG4I7BixYrAtjnIdQ8sdJ9V3O8GwNG4pqpfBqjUQCXEDeim0qMqUUiABEjAEwLYBBhUQWwLSnwTiIXdbkd0ujDedzHrsGPe4BPQ3YUc738/OvwSE4pI7oTGWg9Rcge9JYh47z8t+AYy6zw/fxavNYYHaQbAAG6qIAESIAESIAESAAEaAHwOSIAESIAESCAOCdAAiMNOZ5NJgARIgARIgAYAnwESIAESIAESiEMCNADisNPZZBIgARIgARKgAcBngARIgARIgATikAANgDjsdDaZBEiABEiABPwaCpg9cwwBHOG5dOlS6+zxdevWyfr162Xz5s2Sk5MjW7ZsEVzHoST4H0eT4v+jBf6mycnJghMPs7Ky/kolS5a0zgXH2eCVKlWyUnZ2tlStWtW692gd/JkEnCKAgDo4WAfx6RGiduXKlbJjxw45cABRwe0Lnnk879WrV5emTZtK+/btpWvXrjwFzz5S5owhAlpBBHzCIaYCAeGLD1+AS5Ys+VvCgO+m4IsTByXVqlVLGjVqJI0bN7b+r1+/vmVIuFkXluUcAd1AJLqBZBYvXiyDBw+WDz/80LVT9TIyMqRHjx7WyZ+1a9fWgqvDj4GAtNDHRGad5+dPAFpjuFZmn/RAYA0AfHn+9NNPMmXKFJk1a5aV8DbvZ0lPT5eTTz5ZTjnlFGnbtq3gGGWeKe7nHgtdN90vILsGwL59++Sf//ynDB061JqxCl1LZ67CyO3Xr5889NBDtg8E0+FHA8CZfg2SVp3n5892ao3hWpl9AjowBgCm5qdOnWodPTx58mRrwNed4vS6DxITE63ZgXyDoEOHDoJlBUowCOh+AdkxADC71bNnT5k/f74vILVs2VLeeecdqVChQtT10eFHAyBq3DGXQef5+ROG1hiuldknveFrA2Dr1q0ybtw4+eqrr2TChAkS6wdwwCDArADWWZGwZEDxLwHdL6BoDYDZs2fL+eefb+1d8ROVypUry0cffWQZs9HUS4cfDYBoSMfmvTrPz59EtMZwrcw+6RLfGQAY9D/55BMZO3astakJb/7xKjAALr74Yrnoooukbt268YrBt+3W/QKKxgDAm3+nTp18N/jndw6MgB9++MHaFJv/Wbj/dfjRAAhHN/av6zw/f9LRGsO1Mvuke3xhAGAq/5tvvpE333zTetvfv3+/T/D4pxrNmjWTK6+8Ui677DIpVaqUfyoWxzXR/QKK1ADAmn+7du18M+1fWJdjOQCzdampqYXd8rfPdfjRAPgbyrj8Ref5+ROY1hjOOACaj92KFSvkwQcflDp16sgll1win376qXDwLxgqpn/vvvtuwc7rq666Sr777js5ckTLfiu4IH7qOwLY8OeXNf9QcKZPny5PPfVUqFt4jQRihoCW9eATClojSKRvMEe3FYPW+PHj5eWXX5avv/5aDh8+fPRl/hwFgXr16slNN91kbQqjN0EU4AzdqvsGEsnfD1z9mjdv7tlu/2hR4Tn87bffIloK0OHHGYBoeyb27td5fv6koTWGcwYgimcK0/zYLdyqVSu54IILrMAlHPyjAFjArYsWLZLbb7/d2h/wyCOPWMGNCriNHwWYAPz8g7QPBkG0Bg0aFGDirDoJREZAy3qIrAjH73J8BiAvL09GjhwpQ4YMkdWrVzveoHguAHEGrr76assoQCAiirMEdN9Aws0AIMJfzZo1XQvyY4oWuCxbtixsjAsdfpwBMNVbwdWj8/z82WqtMZwzACGeHbzxjxgxQpo0aSJ33XUXB/8QrExdwmaxYcOGCTYM3nnnnbJhwwZTqqnHAwII74sQ1UETGDbYDOikHBGtdxcnq0bdcUKABkABHY01/vfff19OOOEE6d+/v6xdu7aAu/iRkwSwkRJ7LGB8IVIb4sJTgkcAsf2DKkGue1CZs97uEqABcAzvmTNnSpcuXeTaa68V7PCneEsAb49YQ8Z5BC+99FKg1pK9JeeP0nGuRVBl7ty5jla9iGjN3jpaNyqPDwI0AP7sZxy2c8011whC2SJcL8VfBLZt2yb33HOPtGnTRr7//nt/VY61KZRAkI3o5cuXF9ouExe4BGCCInXoEIh7AwC7+LHB78QTT5QPPviAfuk6T5MLeeFLfs4551hxBHAcMsXfBLAJMKjidNhuzgAE9cmInXrHwhyU1k6ak046SX7++edA9GjxoglStVyKZFdIlqrlU6RauWS5f7jeJrlO19SSnVvyZMemXNm5OU+2bdgneXuDEboYhw499thj0qtXLylSJBYeZfcfQ91dyOG8AHT0J6o+3dGxhRaUzPHTtfI72b4E9fqVN6GJVv2SO+gtsYRrn1blmDksAZ2/jz+Va33xJYWtYYzf4MfBPyW5iDTMTpOmtdKkSU31f+0/fi6TdXx36RoAbS6qflwP78zJky1r9kjO6r2yYdkuWbd4p/XzkcNattZx5eh+gGUBHOc6ZswY+c9//iNVqlTRVcn8JEACJBA3BI4fUeKm6f5paGZ6grRulCGnNSsq7VRqXj9D0lK0DDutxhUvkypINU74X7z+A7mHZP3SXbJq7nZZOWebrFm4Uw7kHdIqx1RmnLKIGO5PP/20XH755abUUg8JkAAJxDQBGgAedW+D7FQ5r21xOVelFg3SJSnRuwE/EgTJaYlSrVEJK516abYcOnhY1izYIYtnbFEpR80YeOvrDTfBN0xpEQAALoJJREFU66+/Xr744gvLWyArKyuSZvEeEiABEohbAjQAXOp6LFHjLb/7aVly/qnFpVblFJdKdqaYxKQEqd6kpJU6X1dbtq7fJ4umbJK5kzbKxmW7nSk0Aq04gvmXX36RUaNGWfHnI8jCW0iABEggLgnQAHC426uXT5YrzywpV6kU9EE/FKpSFdMF+wmQclbvkXnKEJj97QbZmZMbKpsj1+B61rlzZ8EJdAjkRCEBEiABEjieAA2A45lof5KcVEQuap8lfc4rJac1LSrY7RtPUqZqUWl/RU1p17OGLJm1RX7+ap0smblF3NxEiDDOAwcOtGYDEEAoIyMjnrqAbSUBEiCBsARoAIRFFPkNcNO7+qyScsclZaWaevOPdymSUETqtChjpe3KzfDnL9daKXePe26GCOm8YMECeffddyU7Ozveu4Tt9xEBxgHwUWfEaVVoABjoeEzz39WzrFylBv+iaXH2uh8hvxLl0qRjr1pyysXV5eev18m0satkz/b9EebWuw3haNu3by/vvfeetG7dWk8Zc5OAIQKxFAkQAZ9w8BPOT8Df28qVK63zOzATpyPJycmCDb3Vq1eXpk2bWn/HXbt2DXtKo06Z8ZTX31vPI+sJz5zTK5dJlvuuLCvXnVNK4LvvhegGAnnws45eVNtyIZz1xVqZOkYZAjvcMQTS0tLklVdekQsvvNCTNvuxUN1AJOECyejoZyCg8E+M7t9/uP4LV4PFixdbZ3V8+OGHrp36iOW8Hj16yIABA6R27drhqujr6zp/H382TGvg4euqjcejfMkkeeaWirLw7XpyY7fSng3+NqrumyzJqYnSuns1ueXVNnL6VTUlJT3R8brl5uZaUQOHDBnieFksgARimQCO7cYem+bNm8vo0aNdG/zBFAeE5Xv5PPDAA4K/a4o9AjQAouCGzX0DLi0jC96qJ/0vLuNpsJ4oqu3rWxFf4JRLsqXf8DZyctfKkuBwPASc/XD//fcLvjhw7DOFBEggOgJLliyRdu3ayfPPP+/p6ZxYXnjuuecESwIbNuiFRI+OQOzcTQMgwr7s0iJTfhlZR568qaIUyyC2CLFFfFvREinS9eZ60ue5FlK1gfNBfPDFARdBGAQUEiCByAjMnj1bOnXqJDiUyy8yffp0yyBx+vhmv7TXZD2CPpJdYxJGQbqqlE2WDx+rLl88VUPqVUst6BZ+ZpBAuexM6fXkyXJu//qSXsxZTwqcAtm7d29P32IMoqMqEnCUAN78zz//fMnJyXG0HDvK165da+3t2bhxo53scZsnyAbAVarXRjjZc726lpRfXqsjF6jIfRQXCahtLSd0qSQ3/ae11G9b1tGC4SbYp08fOXTIH+caONpYKicBmwSw5t+zZ09fDv75TYIRcNlll0leXl7+R/w/DIGgGgBXqHa9ppIj9cfu/k+fyJZX760iJTKd35wWpo/i9nJGVrJcPLCJdL+7kaOzAR988IH07duXRoDPnrRYcpPzGdqoq4Oomn6a9i+sAVgOeOqppwq7zM+PIeDIAHpMGaZ/7akUjlLJkZH5ko5Z8uvrdaRr62Km6019Ngk0alde+r7YUrKblrSpIXw2BArC0cLcGBieFe+ILwJw9Rs6dGhgGv3CCy8IlwIi666gGQDnqWaNVsn44J+q/Pifv62SvPVwNb71R/bsuHpXsVKpcsW/TlAhhmsIIgw6IW+88YblHeCEbuokgaASGDx4cKD2yezevVsGDRoUVNyu1jtIBkArReZdlYxHL8yumCITX6wlN3Uv7Sp8FhYdAQz8p11WQ678vxMFXgNOCGIEME6AE2SpM4gEEOEPQX6CJm+//bbAEKCEJhAUAwDhnj5TyfiJLme1KibTh9eWk+ulhybFq74hUL1xCen9bHOpWNuZZRrECMCSAIUE4p0Awvsi8E7QBBEOv/rqq6BV2/X6BsEAwDbwL1Uyvh38ZvXG//Gg6lKymPEVBdc7Mt4KLF4mzXIXbNyhgvGmYx/AzTffLFOnTjWumwpJIEgEENs/qBLkurvF3O8GABzvP1XJaMDnRDWV/OytlWSIWvPHz5RgEkhKSZBuAxqqZYFs4w2AKxFcilasWGFcNxWSQFAI4GCfoEqQ6+4Wc78bAC8pEEaPb8tMT5CPHq8ut1zE9X63HjJHy1H2W/sralqBg0yHEUbAExw6wrVER3uQyn1MIMgGcJDr7tYj4WcDoK+C0NskCPj0f/l0DTmbLn4msfpCFwIH9XigiWBWwKTA9xnLARQSiEcC2AQYVNm5c2dQq+5avY3vqDdUc7z1P29Il6UG6/zj/p0tLRoY30dosprUpUGgTosy0vMfJ8h7/5wt+/eZi+w3ZswYadGihdx6660atWPWaAkUES7PRcvM9P3799s/qhteOw98crpWlR47b4Lt/IwIGB6d2del8OVFckd5dRP8TrD+b0RwfO+EITU5+Buh6W8l8BDo+WgzSc0wa9s+9NBDMmXKFH83PsZqx0iAMdahbI7vCPjNAIDJ/7pKlU2RwuA/Xg3+jWummVJJPT4nULVhCbnskaaCo4ZNCY4eve6662T79u2mVFIPCZAACXhKwG8GwC2KxlmmiBQvmiCfPZnNU/xMAQ2QHhgBlzzY1OiegNWrV3M/gIvPAJcAXITNouKSgJ8MgEaqB5401QvpqQnyyaBsObEuA/yYYho0PTWalZSL7mssJr0DPvnkExk9enTQUASyvlwCCGS3sdIBIuAXAwDr/W+qZGS0Tk4qIu/+o5qc2rRogLqCVXWCADYGnt2vnlHVd911lyxfvtyoTiojARIgAbcJ+MUA+Idq+AmmGj90QGW6+pmCGQN64CJoMlgQwoz279+fJwfGwLPBJpBAPBPwgwHQTHXAnaY6of/FZeSas507NtZUPanHXQLtL1cbQQ2GDZ4wYYKMGjXK3UawNBIgARIwSMBrAwDbtIerZMRnq3PzTHnyJvOx4Q3ypiqvCCj/knNvrW/0AKGBAwfy3HGv+jMGylVHTlBIwFMCXhsA/VTrW5oggCN933ioqiQlwpOQQgLHE0CUwEseairFSpkJMYFIYzACKCRgh0ARflXZwcY8Bgl4aQBUUe14zERb/tjxX13KZBmZSDBRJerwKQEM/t3uaiiIUmZC3n//fZk0aZIJVdQRZwQ4AxBnHe7D5nppADyjeBg50P2ZfhWlYTYD/fjw+fJllao3KWlsUyCODr7jjjsEgYIoJEACRxHgEsdRMPz5o1cGQCuFo4cJJN3bFZfrzy9lQhV1xBEBeAUgToAJWbhwoYwYMcKEKuqIIwIxvwRgZpItjp4I95vqhQGAx2KwStqPR7XyyTLsbqwkUEggOgJF1Lfv+QMaSnqx5OgyFnL3oEGDhKePFQKHHxdIIOaXADgDUGC/++lDLwyAixSAtroQElTNX7u/quCUPwoJ2CGA/QBn9q1jJ+txeXJycuSpp5467nN+QAIkQAJ+JeC2AZCiQAwyAaP3uaWkXTNG+jPBMp51IDZAvTZljSAYOnSorF+/3oguKiEBEiABpwm4bQD0Vg2qrduoSmWSZdAN9PfX5cj8fxBAqGATSwG5ubny9NNPEysJkAAJBIKAmwYAFlvvMUHluf6VJKsop/5NsKQOkaJZKXL61bWMoHjttddkzZo1RnRRSWwT4CbA2O7fILTOTQPgKgUkWxfKBacWF+z8p5CASQInnllRqtTP0laZl5cnzzwDD1cKCYQmwE2AofnwqvME3DIAEKFHO2RaWkoRefqWis5TYQlxRwBeAV1vrmckQNCbb74pW7dujTuGbDAJkECwCLhlAFymsGiv/d+qDvrJroB9hBQSME+gfI1MOaGLvoG5d+9eGTlypPkKUmNMEeASQEx1ZyAb45YBcLcunbIlkuTeK8zs1tatC/PHLoH2V9SUlHT9/SXDhw9ndEDNxyTWp8hjvX3COACafwHOZ3fDAGinmtFUtykPX1OOG/90ITJ/WAKZJVOk7UXVw94X7oa1a9fK2LFjw93G6yRAAiTgGQE3DACc+KcldaqmSp/zGO5XCyIzR0yg1QVVJSNLP0LgSy+9FHGZvJEESIAE3CbgtAGABdXuuo26T03985hfXYrMHymB5LREadO9WqS3F3rfzJkzZdq0aYVe54XQBGJ9jTzW2xe6d3nVDwScNgBuVI3UepWqruL99+xcwg+sWIc4ItD8nCpWfADdJiM6IMUegVhfI4/19tnrdeZyk4CTBgB2UvXRbcxdPctKcpL2uUG61WD+OCOAWYBW3apqt/rzzz+X7du3a+uhAhIgARIwTcBJA6CTqmwlnQpXKJUkvbqaObJVpx7MG58ETupaWVKUIaAjCAz08ccf66iI27ycIo/brmfDXSLgpAFwpW4b+l1YWtJTnayibg2ZP5YJpBVNkmYG4gK8//77sYzJsbZxitwxtFRMAhYBp0ZXHNOntfkvJbmIXHcOd/7zOfWWQMvzq2pHB5w8eTJPCfS2G1k6CZBAAQScMgAw+GcWUF7EH13UPkvKlUQEYQoJeEegZIV0qXWSniF66NAh+fDDD71rREBL5hJAQDuO1Q4MAacMgMt1CVxPv39dhMxviMBJZ1XW1vTBBx9o64g3BVwCiLceZ3vdJuCEAYA3/446DWmQnSqnNsUqAoUEvCdQu3lpKVY6Vasis2bNksWLF2vpiLfMnAGItx5ne90m4IQBcIZqhNa35TVdSwn/+N1+FFheYQQSEotI044VCrsc8eefffZZxPfyRhHOAAT7KTjCwwB834FOGADn6bQaA/9FHfTPZdepA/OSwLEEGrUrf+xHUf8+YcKEqPMwAwkElUARYfwWv/edaQMA+rrqNLpt46KC6H8UEvATgXLZmVK2ut6y1NSpU2Xfvn1+ahbrQgIkEMcETBsALRVLrVelSzry7T+On0dfN113FiA3N1dgBFBIIB4IcAnA/71s2gDorNPkxIQicqFy/6OQgB8J1G9TVrtaXAbQRkgFJEAChgiYNgDa6dSrRYN0QfhfCgn4kUCZqkWlVKUMrap99913WvmZmQSCQoB7APzfUyYNAIzcrXWafEaLYjrZmZcEHCdQp0VprTJ+++03ycnJ0dLBzCRAAiRggoBJA+BkVSGtEfyMllrBA03woA4SCEmgTssyIa+Hu3j48GGZOHFiuNt4nQQCT4B7APzfhSYNAK3p/5LFEqV5/XT/E2MN45pA1QZZkpSi92fz008/xTVDNj4+CHAJwP/9rPdN9vf2tf37r9H91qVFpmATIIUE/EwgMTlBqtTX26iKqIAUEoh1ApwB8H8PmzQATtRp7mkM/auDj3ldJFCtcQmt0n799Vc5cOCAlg5mJgESIAFdAqYMAHwjVtOpTIsGerurdcpmXhKIhkB1TQMA8QAWLlwYTZG8lwRIgASMEzBlADRTNbM9f5+WUkSa1Ewz3jgqJAEnCFSsU1yKaC5XzZs3z4mqUScJkAAJREzApAEQcaHH3nhS3XRJSbZtPxyrjr+TgKMEUtISpXRlvRmr+fPnO1pHKicBEiCBcARMGQBNwxUU6jqn/0PR4TU/EqhUR8vjVWgA+LFX3a0TTzt0lzdLO56AKQOg3vGqI/+E0/+Rs+Kd/iBQoaaeAbBo0SJ/NIS1IAESiFsCpgyAmjoE61VL1cnOvCTgOoHSKiywjqxZs0YQFIgSvwRw9DmFBLwkYMIAwO69CjqNoAGgQ495vSBQpqreHoD9+/fL5s2bvag6yyQBEiABi4AJAyBbabKtp3zJJEEUQAoJBIlAVpk0wWZAHVm7dq1OduYlARIgAS0Ctgfuo0qtcdTPUf/It/+okTGDHwio6duSFfVCV9MACN2RR0JfDvxVbgIMfBcGvgEmDIBsHQrVK6ToZGdeEvCMQPGyerEraAB41nUs2A0CsW7BucHQ4TJMGABldepYoTROEaaQQPAIZNEAcLTTYn2PXMxvAoz1DnT06XdHuQkDQOuA9IqlaAC409UsxTSB4mX0vFfgCUAhARIgAa8ImBh9S+lUvhwNAB182nkfO2+Ctg4qsEdgw4YN9jIazJWSkiLwSLAru3fvlszMTLvZQ+aL9RnkmN8DEOsdGPLpDcZF72cASicHgxRrSQKGCezcudOwxujV6Q7enMWInjlzkIBfCHhuAJSiC6BfngXWw2UCeHv2WkqWLKlVhfHjx2vlZ2YSIAHvCJgwALRiomakmaiCdwC9KnnnnsPyyIiNXhXPcg0Q2LVrlwEteipq1qyppeD111+XQ4cOaelgZhIgAW8ImBh9tfz40lNNVMEbeF6Uuv/AEXnhwxypf8UiefyNTV5UgWUaIrBnzx5DmuyrqVdP6xgP61CjV1991X4FmJMESMAzAiY2AWot4mek0Vckkt5H2Ph3x2+XR0ZulBXr7W/aiqQs3uMOgYMHD7pTUIhSWrRoEeJqZJfuu+8+gSHRoUOHyDLwLhIgAV8QMPH6rWcAcAYg7IPw9fRd0rLvYun1f6s5+IelFZwb/GAAtG/fXopoOqTDi6B79+7y8ssvczkgOI8fa0oC9mP4H8XOtgGA752kRM4AHMXybz/OXLhPzhiwXM69Z4XMXpL7t2v8JfgEYAAc8dgXrGzZstK8eXNtmDAC7rzzTmnVqpU8//zz1tKAHzY5ajeMCkgghgmYGH23Kz5Zdhnt/baxJCeZqIbdGvgv35I1efLQqxtlzMQdaoDwX/1YI3MEsBEwIcHERJz9Og0fPlzuuOMO+wqYkwRilEDRokWlWrVq0rFjR7nmmmukYcOGRlsK/ZqiNXhqZf6z4jjTtIzdRuz4qpHQE+APehu2HpTHRm2SkeO2yoGDHPntPlNByZeUlCQ7duzwvLrbtm2T+vXrC9/YPe8KVsDHBBITE6VPnz7yxBNPCAJomRCvDQATrx5ac9P7OdBJvktf/csXybBPtnDwN/GXFQAdpr5EdJuKWADXXXedrhrmJ4GYJgB312HDhkm3bt20omf6CZIJA2CfToPi+U33WJe+Pblqqz8lbggkJ9vePmOc0W233eZYSF/jlaVCEvCQwMSJE2XgwIEe1sBc0Z4bAPvy4m+qGy59b/93uzS6+ncZ8OJ62bzde3cwc48UNUVKID09PdJbHb+vQoUK8sADDzheDgsggVgg8Morr8iCBQsC3xTPDYCtO+Nr8KNLX+D/Zow1ICvL9t5ZY3U4WtHNN98sJ5544tEf8WcSIIECCGA5YNSoUQVcCdZHJgyAvTpNztkRH2FE6dKn85TEZl6/GQDYlDh69GgpVkwrundsdhZbRQLHEIiFczBMGADwArAtW2J8BgAufT0fXSVtb1oi3/3s/eEvtjuKGY0T8JsBgAbibICRI0cKjAEKCZBA4QRWrVpV+MWAXDHxV651Is2WGJ0B8ItLX9NiGfKPWlWlS2l/TTcH5O8jZDUHr1wvDy9ZHfKeUBdLlSoV6rJn184++2wrmE+/fv08D1TkGQQWTAJxQMCEAaB1Is1G5fseSwKXvmfe3SxDPsgRL3f1Z6enykM1q0iP8qUlwUS0h1jqJENtWZOrdyYDNt75VXr16mVVrX///uKHkMV+5cR6xS8BBAgKupgwALRmAJbHyME2cOmDD/+gNzd7uqu/dHKS3FujkvSpXF5SOPI7+ve5OjdPS3/FihW18judGUYAQgX37t1bdu7c6XRx1E8CgSLQqVOnQNW3oMqaMAC0ZgCWrtV7iyqoUW5+5pdT+oomJsgt1SrI7dUqSrGkRDcRxG1ZqzVnAPxuAKBjsRzw448/ytVXXy2//PJL3PY1G04CRxNAVMBrVGjgoIuJTYBrdCAsXav3FqVTtm5eP7j0JasTlfpUKSe/tW1mTflz8Nft1cjyI3rFin16z26VKlUiK8zju7Ax8Pvvv5dBgwYxWJDHfcHi/UHghhtusMJn+6M29mthYnW4uCpeK6D55s8bSonM4Ly1wqXv/uEbPN3Vj47rVq6UPFqritTKSLP/BDCnLQJY/6//46+28uZnWr58uZQrVy7/10D8v3HjRhkyZIiMGDGCZwcEosdYSdMETj/9dBk7dqyYiOTp9VkAJgwA8N2gUnm7oKe+XFua1/dPVLTC2uGXU/ralSwu/6pdVU4urn2SVGFN5edhCHy7ZYd0+3VRmLsKv5yZmSkYTIMq27dvl/fff1/effddmT59Or0FgtqRrHfEBDDtjzf/xx9/3Mjgj4K9NgBM7AFAOxarZNsAmL1kn68NALr0oYspRxNYuEfrCAypUaPG0eoC93OJEiWkb9++VsrJyZFJkybJjBkzZNGiRbJs2TLZunWrNUOQl6e3TBI4MKxwTBGAoY7d/p07dxZsisWpmbEkJg2AU+2CmfX7PultN7OD+eDSN/i9zfLc+3TpcxBzIFXP1zQA6tatG8h2F1TpMmXKyIUXXmilgq7zMxIgAX8SMGkA2G7hL8oA8JPQpc9PveHPuszcqRfVsXHjxv5sGGtFAiQQNwRMGQCzdYjNWZorOBY4OcnUlgR7tTmitnaPmbhDHlAb/Jat8849MUO59N1YpbzclV1JitOlz15nOphrtzoIRHcJoEmTJg7WkKpJgARIIDwBUwbArPBFFX5HngqiM295rpxQx7uNgHDpw8A/e0lu4RV1+Apc+npVLisDa1SW8in+OSve4WYHTv2snXvksOYp1o0aNQpcu1lhEiCB2CJgygDAduY1Ktl2bJ746x5PDAC69MXWA+1Ga37aoTf9jzMAqlat6kZVWQYJkAAJFErAlAGAAjALYNsAwEl5t/UoU2hFTV9YufGAPDpig7z13+3Khcm09sj1tcrKlMeUS1+bEjyCNXJq3t45cateWNyWLVtKETXbQyEBEiABLwmYNgAusNuYSbP3uLIPIGfHQbWzP0eeV4f1YOnBK2lQNF3ur1lZuqtgPpTgEMhVsZ+na84AwACgkAAJkIDXBEwaAD/pNGbX3sMya9E+ad0oQ0dNoXnp0lcoGl6IgsC07btlHw6A0JAWLVpo5GZWEiABEjBDwKQB8KOqErbOp9it2vhZu40bAH5x6SuTkiT3qF39PKXP7tPhj3wTtmpFvbYiiHEGwB99yVqQgJcEdu3apVu8dpQtkwbAHtUazAKcZrdVn07eKQ9cbSY2Ok/ps9sLzBeKwGebt4W6HPbaySefzAN1wlLiDSQQ+wRWrVql20i9zUiqdJMGABozQSXbBsDPKiDQivX7Jbui7UkE1EG+mbFL7h9Glz4LBv8xRmCRiv63eK+em2iHDh2M1YeKSIAEgktg/PjxupXXextRpZs4DvjoRnx39C92fh47yb5RA5e+MwYsl3PuXuGZPz/2dmNj38zWTeS5etn057fzEPg0z6eab/9oFg0An3Yuq0UCLhI4pIKJjRo1SrdEnMGjJaZnAKap2uxVyfZOvo8m7ZA7Lo3OHdAvp/S1V6f0/ZOn9Gk9kH7O/MkmPYO7WLFi0qpVKz83kXUjARJwgcCwYcNk4cKFuiXZP470z5JNGwDYlPCNSt3stuyn+Xtl9aYDUrVc+Eh4PKXPLmXmi5bAAjX9/+subHOxL126dJGUFL3lLfulMycJkIAfCHz33Xdy//33m6jKVF0lppcAUJ+xOpVCUJ7RX4V+04JL36MjN0r9yxfJsE+2WPEDdMq0mzc7PVVGNKolk1s0li6ls+yqYb4AEHhnfY52Lc8++2xtHVRAAiQQTAKY9n/ppZeke/fucuDAAd1GwBf5e10lToQjQ2QbhAa2PbtQvUKK/P52PUk4xjyhS59udzO/HQKI+1//x19lXZ79A6ISExNlxYoVgjDAFBIggfggsHv3blm5cqVgwx/W/A1M++eDm6J+OCX/F7v/2x6kQxS4VV2bqFKnEPeEvLRyw35BTIAuLTKt++jSFxIXLzpM4Fvl+68z+KN6sP4Z/9/hjqJ6EogfAm+YaKoTBgDq9bFKtg0AKBg5bqtlANClDzQoXhIYvgYTWhQSIAES8AUBRBB6z0RNnFgCQL0qqrRKJdsGRkpyEWmjwgLjlECvBHC6KZe+R2tVkVoZaV5Vg+V6SGD5vjxpNnW29vG/HjaBRZMACcQWgX+r5txroklOGQCo2+cqnWOikl7ooEufF9T9V+b9i1fJ86s2+K9irBEJkEA8EkCgnLoqGZmWtP2GHgH519U9gTMAeEpfBD0bJ7fsOqiCdazbHCetZTNJgAQCQOBhVUcjgz/a6qQB8JnSv0Wl0ijI7wKXvodqVpEe5UtLgpPzIn4Hwfr9RWCYWvvfoYwACgmQAAn4gMAMVYeXTNbDSQMAQYHeUekWkxU2ratUcpLcXr2i3Fy1vKQd63doujDqCwyBXOV68jI3/wWmv1hREohxAttV+y5T6aDJdjppAKCer6rkSwOgaGKC3FKtgtxeraIUS0o0yZS6YoDA62s3y4Y87WAdMUCCTSABEvCYAAb9K1VaZroebkx244TA001X3K6+5CJFpFflsjKwRmUe1GMXYozn26N89ptO+U027qcBEONdzeaRgN8JqDBk0lul15yoqNMzAKjzcyr5wgDoWqaEPFGnGl36nHiSYkgndv1z8I+hDmVTSCCYBLAB6SaVHBn8gcSNGQAE9MWpRbVRoBdClz4vqAezzC0HDkrjKbMFHgAUEiABEvCIwA5V7hUqjXOyfDdmAHBowfN/JifbcpzupsUy5B+1qvKgnuPI8IPCCPzfsrUc/AuDw89JgATcIIDd/tjwZ3zN/9jKuzEDgDIR1H+lSq6chEKXPiCnREvgt1175bQZ8+QQjqSkkAAJkIC7BBDk5xGVXlTJ6G7/wprh1vZ3HKOG2Qat8wEKa0T+52VSkqywvcMa1pJm6u1f7fejkEBEBDDkXzV3iazKhfcqhQRIgARcI7BblTREpZ4qjVcJs+auiJtDZDHVIkxplDHdMrj03apc+m6jS59ptHGj7+31OdJ3vuMzbnHDkw0lARIISQCD/DSV3lAJB/tsU8l1cdMAQONwgMETplpJlz5TJONbzybl7td82hzZqjYAUkiABEjAIAFMKeL0vhyV8IaxQCUM/N+rhM88FbcNgKKqtYBQTrfVFVKT5euTGtClTxck88sVc5bIJ5u2miCxVClpqBKWvCgkQAIk4GsCcNFzU3C2r5EZAERp+2WXd0cFuwmNZTlH4KONW00N/qjkQJU4+DvXXdRMAiRgkIDbMwCoeopKv6lUD7/oSJYK4Tu1VWOplpaqo4Z545TAurz90uanuQLffwOCab22KtGFwABMqiABEnCegNszAGgR3pDuMtE0nNTWZ94yum2ZgBlnOg6rYRqb/gwN/hj08Uxz8I+z54jNJYEgE3DLDfBYRr+rD1qrpB0dcHXufimamChtSsDJgEICkRF4euU6GbVuc2Q3h7/rfXXLs+Fv4x0kQAIk4B8CXiwB5Le+kfrhV5W0oxHCG+CLk+rTCMgny/9DEvhx+y459+eFcsBMwB/48OJZXhWyUF4kARIgAZ8R8GIJIB/BPPXDC/m/6PyPL3Ls5F6r1nQpJBCKAJ6Rq9SzYmjwR1EPqcTBPxR0XiMBEvAlAS9nAAAkQyVsCKyFX3QF0f/+e3JDyVCBgSgkcCyB3MOH5axZC2TmTmPeI7NUGa1U4slBx8Lm7yRAAr4n4NUegHwwOHAdMwFXqaRtjOAIV7zhnVe2ZL5+/k8CFgHszrt5/nL5ZgsO2TIicB24QKV1RrRRCQmQAAm4TMBrAwDNXa5SVZVOwi+6Mmf3XklXMwDcFKhLMrby/9+yNfLymo0mG/WcUjbKpELqIgESIAE3CWi/dRuqbAmlBzMBlUzoQ6NeblhTrqho/NgBE9WjDpcJjFa7/W9eADvTmMxXmpqrtM+YRioiARIgAZcJ+GEGAE3OVQkGwBUqGTFKvsrZrk4ELCp1MtKUSkq8EsBzgFgROHnDkCC2d1eV1hjSRzUkQAIk4AkBvxgAaPxSlTJVaotfdAVf+J9v3ianliwmVRkpUBdnIPNP3LZTLvttsew34+6XzwAHWn2c/wv/JwESIIGgEjDytm2w8QgTPFmlFqZ0lkhKks9OqicnqtkASvwQmLZjt1zwyyLZc8joBv1vFcEzVTI4oRA/fcKWkgAJ+IuA3wwA0EF0wJ9VMhbaD2cGjD2hnrTMwgQDJdYJYPC/8NdFslOFijYom5QubFRda1AnVZEACZCAZwT8tASQDwHnsq5Q6aL8D3T/z1OB38eoU9/gGcCDg3Rp+jv/JDXtf+Gvv8tus2/+cPk7T6U5/m49a0cCJEACkRPwowGA2s9Vydh+ACjEOvBH6sz35sUzpUY6Tw8Ek1gT+PhfOnux7FUBfwzLnUrfe4Z1Uh0JkAAJeErArwYAoExQCVHWsCRgRBD+dawyAmpmpErDTAQhpMQKgbfW50jveUsFsz2G5W2l7x7DOqmOBEiABDwn4GcDAN/k41S6UKXSpkgdVEbAJ5u2SaI6QOgU5SHgx00QptoaD3rwkAxatlbuW7xKHQttvMWzlcZuKiFiJYUESIAEYopAEMa/Bor4VJWyTJO/XAUKerF+DUlJCAIG060Pvj7E9r91wQp5Z0OOE42Bn38blfA/hQRIgARijkBQRr7TFfkvVTK+eI84AW82riNlUpJirnNjuUE48+Fy5eM/y9zBPkfj2q5+OU0l7EWhkAAJkEBMEvDzEsDRwFeoX7ADu4dKRo/6W5W7X95Wb5BNVZwAbg5UdAMgU7fvkvOUj//ivQggaVxwpjSm/acZ10yFJEACJOAjAkExAIBskUqbVToHv5iUPYcOywcbt0hykT8OEQrKtIhJBkHQhf19T69cJzeoU/12mXXzy28+3AeuUunT/A/4PwmQAAnEKoEgGQDog5kqYXzuoJJRwTf/98qH/Gc1pdy5dJZkqBMFKf4hsE5N+SOsLw72Me7k90czsYWwn0qv//Er/yUBEiCB2CYQNAMAvfG9Sojre4pKxmXpvlx5W7mU1UhPk3pF043rp8LoCcB18+LZv8vCPY4dvofB/1aV/hN97ZiDBEiABIJJIIgGAEj/VyXUvT1+MS1YEhijBp0FasBpV7I4ZwNMA45Q3+b9B6zp/kHL18o+88F9jq7FfeqX547+gD+TAAmQQKwTCKoBgH75TqVkldrhFycEb5xvbthsnSbYMJOzAU4wLkgnXsffVRsze6iofr/s2lPQLSY/u0spe9qkQuoiARIggSAQCLIBAL4TVMJW8M74xQnZq2YDPlazAZPVzvNmxTKkXApsDopTBObs3itXzVkiQ1dvdPqtH3YGQvwOdqot1EsCJEACfiYQdAMAbH9UaYdKZ6jk2Ab+lbl58rragLZRTUvjVMF0bhJUuM3JlgMH5cElq+XWhStklWLtsKCAK1Qa4XA5VE8CJEACviXg2IDpQYsRI2C0SmlOl10yOUnuq1FJrqtcTtIT6C2gwxv7LV5ctUGeW7Vedpk9vrewau1SF7qrNL6wG/g5CZAACcQDgVgyANBfiN72iUol8YvTUiE1WQZUryjX0hCIGjXC+I5SMyr/Xr7OmlWJWoG9DBtVNsSRmGUvO3ORAAmQQOwQiDUDAD3TUCUcIpStkisCQ+AOGAKVytFjIAzx3SqAz6trNskL6q0fyykuyi+qLET4W+VimSyKBEiABHxLIBYNAMAuo9I7Kjm2ORCFHCtYGrimUlnpU6WcVE8zfmzBscUF6vfVKuTyq2s3yog1m2X7wYNu1/19VeC1Ku11u2CWRwIkQAJ+JRCrBgB4Y4Pj4yrdrZKr7cRRw2eXKSE3VCkv7UsVd7dw1Vi/CLbZT1LRFYepHf3jcrar43rxiauCoIGPqPR/KrleuKstZWEkQAIkECUBVwfGKOtm6nZsDhypUqYphdHowQFDl1YoLZeULyN1izq+PzGaqjl271J1SA+O6H1n/RaB94RHskWVe41Kn3tUPoslARIgAV8TiAcDAB2AfQFYEmiKX7ySE9SJgzAGupUrpYILpXhVDUfKXb4vTz7dvFU+2bRNpu/Y7UgZUSj9Xt17pUpro8jDW0mABEggrgjEiwGATsWiPJYE7lDJ83YjsuCZpUvIGergodYliqmTCD2vksISuRxQ0/kz1EA/YesOGbd5uyCAjw8Emwv+qRL6+ZAP6sMqkAAJkIBvCQRr1DGDERsDX1epshl1+lqKJSVKe3XmQCsVYAgJMwV+O40Qbnu/7tprDfoT1br+D9t2yR5njuS1C3SZythLpcl2FTAfCZAACcQTgXg0ANC/pVV6UaXL8IvfJEnNBjTJzJDmWUWlkfq/bsYfJxOWdykM8VYVlQ8HISHNU2/2v6gjkmerwR9v/T4UbPR7QaUHVNrjw/qxSv/f3r2rRhVFYQAeMENIQI0YDSlEg5BGNNaihYWFgo9gpaBYaGHhA9jZWIlPIQqWoo1CRFAsBAUtAor3MIgiGET8l8kUmkbM7Uzm2/AzJxMm2fPtYq9z24cAAQKNFOjXAqA7GMeycTXZ1X2jya+bc6RgcnioNTE82NrWbrfGs/5APZtgLK+j+XlTfl8DOtKeX+F5ZGDg99epPfWavH9m/v6c1fY6meA7uRWvJvrZuR+tukWvlt99lcwkn/Jej7Rn6efJZLpH+qubBAgQINAggeH05XJSq9LULq4036AeAHUpsdhCEDQCBAgQWJrAVD5+L1EANNvgRsZo99KG2qcJECBAgMBigbpI8GmiEGiWQR3uP7p4uLxDgAABAgSWT6CdP3Uu+ZgoBNbW4HXG4Ewyf0FDNjQCBAgQILDSAiP5B3VfeSdRCKyuwduYn0/6Y/nEfFGNAAECBJonsDFdqsmoJiWFwMoa1FGXi0ldnKkRIECAAIFGCNTzBC4ktcSsQmB5Deoc/+nExB8EjQABAgSaKbAh3Tqe3E5qIRrFwP8b3F+w7Pc1KcKgESBAgEAvCexNZ68lXxKFwL8ZvI/VlWRPohEgQIAAgZ4WGErv69HDt5K5RDHwp0EtL1hHTMpofT0KMV9II0CAAAECJTCW1G2ED5J+PkVQhVBN+meTMtEIECBAgEDfCIznm55KbiZfk/V+ZKAeyHM9OZFsSTQCBAgQaKCAC69Wd1DqnvbDyZHkULI/6fUFbuoZCg+Tu8mdpI56fE80AgQIEGiwgAJgbQen1hc4kBxcyFRem77X/C59fJQ8TqaTen5CHdnQCBAgQKCHBBQAzRusnenSvqSKgcpkMpFUsbCarZN/9iJ5mTxPniQ18b9JNAIECBDocQEFQO8M4Gi6WoVAZUeyPdn6V+oUQxUK3dMKtajOYPItqcPydX6+LsyrPfbarlX3PiS1V9/dnsl2TfyziUaAAAECBAgQIECAAAECBAgQIECAAAECBAgQIECAAAECBAgQIECAAAECBAgQIECAAAECBAgQIECAAAECBAgQIECAAAECBAgQIECAAAECBAgQIECAAAECBAgQIECAAAECBAgQIECAAAECBAgQIECAAAECBAgQIECAAAECBAgQIECAAAECBAgQIECAAAECBAgQIECAAAECBAgQIECAAAECBAgQIECAAAECBAgQIECAAAECBAgQIECAAAECBAgQIECAAAECBAgQIECAAAECBAgQIECAAAECBAgQIECAAAECBAgQIECAAAECBAgQIECAAAECBAgQIECAAAECBAgQIECAAAECBAgQIECAAAECBAgQIECAAAECBAgQIECAAAECBAgQIECAAAECBAgQIECAAAECBAgQIECAAAECBAgQIECAAAECBAgQIECAAAECBAgQIECAAAECBAgQIECAAAECBAgQIECAAAECBAgQIECAAAECBAgQIECAAAECBAgQIECAAAECBAgQIECAAAECBAgQIECAAAECBAgQIECAAAECBAgQIECAAAECBAgQIECAAAECBAgQIECAAAECBAgQIECAAAECBAgQIECAAAECBAgQIECAAAECBAgQIECAAAECBAgQIECAAAECBAgQIECAAAECBAgQIECAAAECBAgQIECgkQK/AM4ZWoEqKc9jAAAAAElFTkSuQmCC;" vertex="1" parent="1">
          <mxGeometry x="-57" y="-940" width="48.54" height="48.54" as="geometry" />
        </mxCell>
        <mxCell id="4vZDOsLuTZYOKLJQRf3i-53" value="" style="shape=image;verticalLabelPosition=bottom;labelBackgroundColor=default;verticalAlign=top;aspect=fixed;imageAspect=0;image=data:image/png,iVBORw0KGgoAAAANSUhEUgAAAgAAAAIACAYAAAD0eNT6AAAAAXNSR0IArs4c6QAAAERlWElmTU0AKgAAAAgAAYdpAAQAAAABAAAAGgAAAAAAA6ABAAMAAAABAAEAAKACAAQAAAABAAACAKADAAQAAAABAAACAAAAAAAL+LWFAABAAElEQVR4Aey9B4Ac1ZE3Xj1pcw5a7SqtckRCCIHIIphkwAatjE0wOIDPZ3Nnn33Bn++Ou/vfd76zz5+NjQ0OBEnYRsIkAyLnJEAChFZCOWzOeSdP/6tmNdLG2Z6Z7n6vp6tgNTPdL9T7vdf96tWrqqcAEyPACGhD4M47HVA7sxwijnJQnFWgRKaAolRCRJkCDrUQVMgGUAoB1FwsMGfoD6+DQt9d+NeLfxPRAN6gv35M3wUQOf5b6cdyW0CBVvyrBzXSgvcboL+7Bbbe4Z+oML7OCDACjMBkCCiTJeD7jICtELj693mQ5ZmHk+5cUBX8VOfhJD8fJ/VZiEM5/jklwqMdeWnCvwPI436IqPvB4dgHamAfbLm1WSI+mRVGgBGQEAEWACTsFGbJBAQueMUFU+oWQlhZiav3U3GyX4G1LsS/ChNqN6MK0jbsR63BpyjM7EABZjt4HB/CQzfG00KYwRfXwQgwApIgwAKAJB3BbBiJgKrAFzYuAdWxBiKwEhSc8AFOwb8sI2uVsGwVedqPAsF23EbYDg5lB6ju92HLetx2YGIEGAG7IcACgN163A7trdnshMjgQnA4z0bV+MWoxl+LzS61Q9OTaGMY83yEGpC30O7gTQiFX4DHb+1OohzOwggwAhZDgAUAi3UYszsBAjWbFuPK/gpc3V6AKc7Bv4IJUvLl+AiEUDvwPgoDr6HG5BXIDb4OD9zqi5+F7zICjIAVEWABwIq9xjwD3HJ/Jgw6zkGL/Itx4r8GJy3av2fSHwEv2g+8hPj+BcLwF3j0JjI6ZGIEGIE0QIAFgDToRNs0oea+MgD357G9V+LfRfhH7nVM5iFA2wXv4N+T0b8tN+01r2quiRFgBPRGgAUAvRHl8vRF4IZN+eBXP4fW7NdjwZfgH/nTM8mBwG7sl4cg5HgIHr3hqBwsMReMACOgFQEWALQixenMQ+DyuzIgr/AzuAddg+rna7FiXumbh36yNaFnAWwEl/Mh+OOXKD4BEyPACEiOAAsAkneQrdj7wsaVaMR3G/7Rap+N+KzZ+RidUHka7TI2QuHg0/Cb24PWbAZzzQikPwIsAKR/H8vdQjLm63deBYrjNlztXyw3s8xdggg0ozD3ILhcd8OfvliXYF5OzggwAgYjwAKAwQBz8RMg8IUNizAK35dxpfh1XDEWT5CKL6cHAmg8qG7Fvv45bL6ZPAooIBETI8AICEaABQDBHWCv6jEi37qHrsT3/99ju8+1V9u5tccR2IWfvwLI2MgRCHlMMAJiEWABQCz+9qi9ZrMHVP/1GJUPJ351iT0aza2cBIFe3B74NSgZ/4OCQOckafk2I8AIGIAACwAGgMpFHkeATtbL8HwFJ/2/Q7XvdMaFERgHATzuWLkPlDAKAl9uGOc+X2IEGAGDEGABwCBgbV3s5+4vBI/77zAG/7cRB7bmt/Vg0Nx4H8YUuA8coR/Dn249ojkXJ2QEGIGkEWABIGnoOOMYBGo254LivwNVu9/De0Vj7vMFRmByBNBtUHkIDUTv5OBCk4PFKRiBVBBgASAV9DjvEAK0xw/+W/DHnfg3Ff+YGIFUEQhgAQ9ASP1neOzm1lQL4/yMACMwFgEWAMZiwle0InDBKy4orf8qqm5/iFmmac3G6RiBBBDAo4mV/wbw/ByNBfFgIiZGgBHQCwEWAPRC0m7lrH9oLaiRn2Ozl9mt6dxeIQiQgeC/Q9u0++DVtXhkMRMjwAikigALAKkiaLf8NRuqcUX2v9hsOpWPiREwG4Hd6DVwBzxyIwYUYmIEGIFUEGABIBX07JT3qnuzISv779HA7x+w2Zl2ajq3VUYE1KfA6f4mhxiWsW+YJ6sgwAKAVXpKJJ/rNlAQnx8jC7zPL7IfuO7RCGAwIeVfob3ql7wtMBoa/s0ITI4ACwCTY2TfFNdunApOuBsBYHW/fUeBFVq+EwXUb8LmG9+yArPMIyMgCwIsAMjSE1LxgTH7azZ9A1n6Ef7lS8UaM8MIjI+Ait4oD4Ca8T0OLTw+QHyVERiNAAsAoxGx++/rHpoNjshvEYYL7Q4Ft9+SCLQg17fBlpuetCT3zDQjYCICLACYCLbUVZFPf3k9hu+Ff0U+s6TmlZljBCZDQIHfgS/wXXjyq32TJeX7jIBdEWABwK49P7zdNRtmoGvfJrzER/QOx4W/Wx2Bo3gQ1Vdgy80vW70hzD8jYAQCLAAYgaqVyly/8Tpc9ZPKn2P3W6nfmFetCKiY8LeQqX4XNt48oDUTp2ME7IAACwB26OXx2kgH96i+n6P1NB7Xy8QIpDsC6qcAjvWw5cZP0r2l3D5GQCsCDq0JOV0aIfCFjSvx8J7tPPmnUZ9yUyZBQFmI2wHvQc3Gv5kkId9mBGyDAGsAbNPVxxs69AL8H/yFJ/gxJYOA0+mA4qIcKCnOhsLCbMjNzoCcHA/k5mRAXi59z4h+97id0eIzMl1AeRT8LyvLHb0WCoUhEAxHv/t8QYiEVYjgXkx/fwAGBvzRv/5B+gxAP/719nqho2sAOjoGYNBLB+UxJY2ACg+Cf/Cb8JfbB5MugzMyAmmAAAsAadCJmppwy/2ZMOD+Na6CbtGU3uaJFHwySkpyoWpqAf4VwpSyvOjv6KRfkA0Oh7hHx+sNRoWB9o5+oL+m5l6ob+yCpqZe8Af4nBxtQxe3BBxQAw/fvEtbek7FCKQfAuLeYumHpbwtuv6P0yEc+jMyeLq8TIrjjCbzyooCmF1dBtOrCqGqEv9w4s/MHFqti+MssZpVVYU2FAjqG7qhoakHjh7rgEOH22FgkDUGEyCJxwur30Yvgd9PcJ8vMwJpjQALAGndvdi49Q9eDKrjT/itJN2bqrV9GR4XTJ9WBHNwwp87uwzmzC6FnOz03RFpb++HA4fb4MChdjiIn03NPYCyAlMMAVW5CxTPdzGC4NCeTOw6fzICaY4ACwDp3ME1G2/D5v0S/6y1lDWgTypxRb9scRUsWjgF5s8pj+7JG1CNJYrs6fPBftwuONrYA++99il0d/Zbgm+DmXwegqEvwOO3dhtcDxfPCEiDAAsA0nSFjoxcfhdaoxX9Hm3KbtCxVEsVRer7ZYsrYcmiqdG//LxMS/FvBrN9EYCjfhX8/hB01XXAJ+/uh0931ZtRtax17IaI4yr48w2HZGWQ+WIE9ESABQA90ZShrKt/nwcZnkeQlc/IwI6ZPLjR6n7R/Ao47dTpcOry6QiDy8zqLVkX7QR0od3gsSAKAigQuHBvwNfWAx+/vQ8+fh/nQfttFXRgm9fBIze9askOZaYZgQQQYAEgAbCkT3r9HyvR2O9p5HOF9LzqxKDb5YTly6pw0p8RXfGTEMCUOAI490NzQIUGFAYixyd9VyQCPcfa4d0Xa+HoITpjxzaEVpPq7Wgc+IBtWswNtSUCLACkS7df9+Ap6Jv2DDanKl2aFK8dU8rz4ewzq/FvTtTnPl5avqcdgSBKAkdRG9AxypswIxiCY7X18MrTH8HggE97gVZOqcJ/oCbgX6zcBOadEYiHAAsA8dCxyr2aDXh0r/IosltgFZaT4ZNW+6fgav/cs+bAwnkVGMgwmVI4jxYEOtEe/gjaB6AsMIJIvxJo74F3n90Je3c3jLiXpj9+DUsOfgvuvJOUJEyMQFohwK9Qq3dnzaYvobryfmxG2vqxFWLgnQvPn4cT/1zIzkrbZko3EkkJUOcHaA2NkgKOc+oMBGHftgPw5vM7IYyRDNOX1D9AkfcW+M3twfRtI7fMjgiwAGDlXh+a/B/EJqSltds0DMhzwbnz4MzV1UCrfyYxCHSjJHAY7QPw/3GJDAdb99TDs39+H3zpG6YYbWsyajBWAAYPYmIE0gMBFgCs2o/rN30do7ncg+yn3YFOC+dPgcsuXgyLFlRYtXfSjm9a4Nfj+rd59J7AsJa60Hy++2gbPLv5XejtSssw+2+gEHAVCgE9w5rNXxkByyLAAoAVu27dpm+Dov4cWU+r/ptTXQpXX3EKkADAJCcC5DJ4CFUBE+wKRJl2oiDQi4LA1odREOhOO0HgQ4DgpbDlK21y9hBzxQhoRyCtJhDtzbZwynWb/g4n/59YuAVjWK+eVQJXXLIUTllaOeYeX5APAdoKOOBTgQIJxSMSBLoONMPTKAh48YTDNKKdEIpcCI99uSON2sRNsSECLABYqdPXb/wBvlP/00osx+N16pQCuPbqFTzxxwNJ0ns099eht3wLbglMYBpwgnPaGmj65Bhs3bINQqFJpIYTuaT/8gGGDr6EQwdL30/MYBwEWACIA45Ut9ZvuANUhdT+liey5L/skkVw0QULweVMOxMGy/dPIg3oQnfBg6gN0HKKjluNwK5Xa+GtF2oTqULmtO+CR7kUHrqxV2YmmTdGYCIEWACYCBmZrq/beDPu9j+ALFm6vxxOBc4+Yw5cc+UyyMvl2PwyDbFUeMFwAbAf/xnQIgVgRU6fH17CbYFDe5tSqVaWvG+jYSDaBKznE5Vk6RHmQzMClp5QNLfSygnXb/wcalC3YBMs7eo3f145fPG6VUCn8jGlHwKk2D+MQkD7qAiCE7WU9D4DDR3w2P2vgW8Q9xKsTW9CpnoZbLx5wNrNYO7thgALADL3+PoHLwbV8RSymCEzm/F4y8pyo2X/Mlh77nyM3MfDLR5WVr9HtgAN6CrYiFaCk9kFxNrqxhgCO1/8BN55ZXfsklU/n4Wiwas5WJBVu8+efPMbWdZ+r3loNR7L8hKylysri5PxdcqSKvjS+lVQVJg9WVK+n0YItKFh4GEUBHBu10xK3yA8/rtXoaPNwtvpCjwEm2+8CXfqEmi5Zog4ISOgOwIcXk13SHUo8LoHluBuP07+iiX15QUFWXDrDWfC1VeeAlmZbh0A4SKshEAO2nrkORQgA0HNM2GGG5asmQtFaCB6eF+zlZo7nNdTYOlOgNrHXh1+kb8zArIiwBoA2Xrmi38ohVD4XWRrjmysaeHn1FOmwY3Xr+YT+rSAleZpvGgYsBc9BMhIMBEibcCf730ZujstalenKn8Nj9z4q0TazGkZAREIsAAgAvWJ6rzl/kwYcL+M66Y1EyWR9brb7USf/uVw4XkLZGWR+RKAAAUNIiFgMEH3fxe6DO549iP44I19ArhOucowqJHr4JEvP5FySVwAI2AgAiwAGAhuYkWrCqzbtAFV/zcmlk986pkziuGrN6+BKWX54plhDqRDgM4R+BTVAP24JZAI0cvJ39wJm3/9EgSCCWZOpCJj0g6CQ7kIHr6RtHlMjICUCLAAIEu31Gz6F1z5/5ss7Gjhg4z6P3Ph4qhfv5MD+miBzLZpokIAagL6E9QEEGCuUAie+f2rUH+03Wr4NYHTtQr+9MVGqzHO/NoDATYClKGfazatw8n/bmTFMgJZRoYLvnrTWXDh+fPBgQZfTIxAPARoiJS4lKgAkKhNQMThgPmrqiETTQrrDlvqDJ483Ao4G2au3QQHtlpOhRGvP/leeiDAAoDofoy6+6m0V2gZc3lS9f/tN9cCBfdhYgS0IkBCQDF6CPTiVEi2AYmQirJx6ewpsGBuOdR+eCQB94JEajEk7TRwZ06B3Y/9xZDSuVBGIAUEeOmWAngpZ63ZXIy7nDuwnJkpl2VSAeTb/5Wb1gAF+GFiBJJBgLYD9qIaoC/JNbHT64OHf/ECHjVsocB7KnwDHrnp3mTw4jyMgFEIsABgFLKTlXvnnQ6onfM0JrtssqQy3Kf9/s9etgyuvHQpRvSTgSPmwcoIRI4LAaQNSIbc4Qhsvf8VOHbIMlsCQdzBuAiFgDeSaS/nYQSMQIC3AIxAVUuZpV/5PziT3qYlqeg0dGLfl790Bu73L+DJX3RnpEn9JETSdkA3CgAYODBhiuB+wryV1aB4A9BU15lwfgEZnLiLcTks+dyfYPfjfQLq5yoZgTEI8FpuDCQmXFj/0Fo0DnoBa5JeAKOje//qq+fyfr8Jw8KOVZAtwG5v4sGCYljRC+zotn3w4hO0k2YJehPapq2FV9dqPDbJEm1iJi2KgPQTkEVxnZjtL/5hCkQiz2EC6cP8lpbkwne+tRZmzSiZuD18hxFIAQFUAkABvoXoFMEkFAHRmgunlcC86lKo3XEkBU5MyzoDcntVDhdsGt5cURwEWAMQBxzdbw3t+z+L5V6ie9k6FzitshD+Bi398/MydS6Zi2MExiJAtgAUMTCJMAEnCgs0dcFDdz+HyrUTl2T9EjluD/CqrAwyX/ZAgI7lZjILgV1z/hmrkn7ynzm9CL77rQt58jdrXHA9kI9agNmZqa1HPFOL4MvfuxIsEJTKgfYAD8Dn7i/krmcERCLAAoBZ6F/34Kn40P8fs6pLtp55c8pw8r8IcnIyki2C8zECSSFQgkLADE9SWU9kchTmwS3fvxLcbteJa5J+mQlu1+8k5Y3ZsgkCbANgRkdfflcGZGRvxaqmmlFdsnUswMA+37rtAsjkI3yThZDzpYhAHhoFBPFYjIFU1PgZHli5ejbUvncQwuguKDEthqXX1UHtox9KzCOzlsYIsAbAjM7NK/xPrGapGVUlWwcF+LnjGxcAhfhlYgREIjATlU85Kb6ZwjmZ8OW//yxkyC7MqurP4bqH5onEm+u2LwIpPmb2BU5zy9dvOhtU5W81pxeQcOH8KXDbV84Gl4sVQgLg5ypHIUAvpfloD4BHB6REoawMuBltAiTfDsgFh/ogkIEwEyNgMgL8xjcS8Js25EAIyOq/1MhqUil79qxS+PbtF4DHwyv/VHDkvPoiQO6B2RgtqCPJSIExblS0BTh1dTXsfGc/et8m62gYK82wz+nQVtyC5wV8YFgNXDAjMA4CLHWOA4pul3zKT7GsubqVp3NB06sK4dvfOJ/V/jrjysXpg0AhyqSV7hTVAMhKJCcLbvruFXhqpdSvux/B9X+crg9yXAojoA0BqZ8IbU2QNNW6jRcgZ1+XlDuoqiyA7/z1hUCR/pgYAVkRmIbDk1wEUyWlMBduuOMzqRZjZP58CIfuMbICLpsRGI0ACwCjEdHj9wWvuNDl7y4sKvXlix78jCqjMD8rqvZnV79RwPBP6RCgB2huhgIeHZ4kd3khrPvK+dK1cRhDV8D6TTcO+81fGQFDEWABwAh4yxq+h8UuM6LoVMskF79v/9UFUFSYnWpRnJ8RMAUB2gWYjUKADjIAFMydCpd+fpUpfCdViar+DChcOBMjYAICOijXTODSSlXUbJiB7D6Mf9Lp1h1oWfXNr50HczBuOhMjYCUEMnGpEkQRIKX4AMcbXFBVDJ5QCBqOtssIQTaoajmeFfC4jMwxT+mFAGsA9O9PUv3n6F9s6iVef+1psHhhReoFcQmMgAAEZrgBMvAY4FSJfAFOuXQ5zJ4vaVwuFW6Cmg3npNpOzs8ITIYACwCTIZTI/ZqNl+G2/zWJZDEr7aUXLYbzz+F4I2bhzfXojwDN/XNQr5a6CAAQxlIuufk8KCyWUlbHJio/49gA+o8hLnEkAiwAjMQj+V81m7Mw893JF2BczkXzK+Bznz3FuAq4ZEbAJATycNOyXAfXQGI3iBLF+m9fCk6XlK/B06B29s0mwcrV2BQBPYRpm0I3qtnrN/4zHvH576OuCv9ZgiucH3zvUsi14OE+tO9bjr7gRfjCp9CwGfin07t/wn6huDNh1BGr+EfBaJwYjIbqzMTJgu4F8UYI7/Xj+fV9GGa+FxPTd/oMkm6ZyXAEKLr/J4MAPuokHcjb0A5/vPtFHUrSvYhmdH9YAA/d2Kt7yVwgI4AIsBGgHsPg8xvKwaH8CYuS6gg9N4b2veOv1kJ5aa4erTStjFwclYuzFViEf2U4+9JvD07+NCEbTVhNtB4KQ0sqZ6qSJhya+OkHnVibi4wUYgJaiU5H6/Q5WcSrA6bh9wK8Tnzi0fZRQcJofu1YPvUJCYRtKHjpQe78bCjKcsPhfc16FKdnGbkodbowQuALehbKZTECMQRYAIghkcrn0ut+gpPD2akUYUTem65fDcsWVxpRtCFl0kp7IU6mNPnTpE8vepmIIskG8C+68sRPF2oH8P8o0UcWSgwl2IiZKAiQQDAVndcpwHI/ShCkVWDSDwHSBunlFUBclUwvhZ76Dujq6NePSX1KOh0WrXsY9jzaqU9xXAojcBIBFgBOYpHct5qNC3Cm+h1mpsWjNHTe2XPhykulPoBwBFZZOBJX5ShQipbesk38Ixg9/oPU/T6UCEgAoG2C0TzT72xUBVSiMLAAhYFSFAxIBujDfQSWBcZDNPFrece1AKShSZWoT+YtmwG12/ZDKEibPdKQE5RIOWoBHpGGI2YkbRCQatKyKKr/g3zTQk8amjqlAGo+d6o0/EzGSBGqzdfk4j6/xcRRmjQGcGnfG4pE7QImaic9ZJWoDTg73wGfLXbqctLdRHXZ6Tpt01SiwKgXBZ0OWH/7RXoVp2M5ynqoeWiFjgVyUYxAFAEWAFIZCOsfOg+zX51KEXrndeJL7JYbz7TM6X5k6LccPbHoZW5VIqNAEgL8GozSSMg5DZeuV6EgQFsdVm63DP1VgQCSgaZe5CorgPMvl85jBhsY+Xe92sjlMAIxBFgAiCGRzKeq/iiZbEbmuebKZTBrRrGRVehWNhnLrUT7RD3ivOvGVJIFkTagHyUB0ghooSHBBzUCRU6oJstCpqQQoC0YChCkJ80/dxGUVxbpWaQeZV0FX9h0ph4FcRmMQAwBFgBiSCT6uW4THi2mrkk0m5Hp580pg0vWLjKyCl3Lrsb98VwdV2+6MpdkYWQXQIKAViLbhzNRI3BhoQMKLLYForWNRqcrwg04PbGjIEGf+9oFoMj2doyo/5/RWHL59kJAtiFuHfQV9YcyMZuFbkxfvfksPPPcGqtJWvXPlMppUr/epK0ArZqAWK1T0EjwMtwWWIrbAtbowRjncnzOpAiBOgIXysyAK78glXxPQF+EIYIvlANx5iIdEGABIJleHHoIz00mq1F5rr1qhaVO+CO1N20BpCuRJoD+EiF6GJehg/ta1AZk8ZOZCHRRF8xynQ0qKpbNhGkzZTs4S/mPhIDhxIxAHAT4NRMHnIlvKf8y8T3z75Dq/9yz5ppfcZI10kqtElds6U6kBUhgN+AEHKQNuBxtA8hzgEk7AlVoC6DnC43cCy+/WSo5n8A4C7UA52tHhVMyAhMjoOfzMnEt6XRn/SYK+CPNA+jCaH83fOF0XdWfRndXIS79cY6zBfWhd0AyRIFuzi9wRAMjJZPfjnloTJXprAUIZ2XAJdecJhmcyvclY4jZsSgCLAAk2nGq+m+JZjEy/WcvWwLk928lKnQlphq3UttG80rT/6BGz4DReen3qbkOOA3/bCIvjQdBQtdIs6Q3VrPOmAslpfkJ8WFw4ivgugeWGFwHF28DBFgASKSTr3uQoutclEgWI9NWVRbAZy60jtV/DIscixgqxvhN9ZNsAVKJLTcfwyOfgZ4C/LBO3hO0a0LnR+hJ5BVw9a3n6VlkqmUp4HB9L9VCOD8jwO+URMaA0/G3iSQ3Om3N51YCBf6xGtHBPnYi0nd4kzEGGAYSGU2ei1sC6Ww4Oay5KX3V2xaAmHEU5cLyM2enxJe+mdUb4Po/Tte3TC7NbgjY7FWcQvfSiX8qrE+hBF2zrlw+HRYtqNC1TLMKc9owGn4AXQMTdAoY0x1kFHgOhhNmIWAMNCMukBaADmXSk0iIO+OK02Rys3VDOPRtPdvIZdkPAali2EsNvwv+GvnLlIFHF676P3/1chlYSYoHfV/NSbFgeiaaQOgUwewUndVJCDgPhYDXeyN8wmCcXqx0q0PHBetobhJCg9tLPrcKnnv0/Tg1m3cr0+387v2vN9fkZLqPW5qqBbhbMbSoUwEDbEPM1yaA1weinKEcilYSPSe5VHvw3lB+VRnAI6sCdA9hw+tqt6I6uvFXNw7dHiwZf9M1tTvkdHWjRNutBCLd15xT1neyPP5mJQRYANDSW5ffhSFrlNu1JDUjzSW4719emmdGVVyHjggE0BgwWwf7hwoWAibtlUwUtEqcKnSEJk2aUIKZq2ZD7vOfQH+/L6F8RiT2BcPO1z9tnHX5ihknix9f4PHgjB4TBjCtWnIyA/2M/VJPfqVLKp1gefwmSe34Fc+/xMsoZUSOyxw4Fp98r51MXFBQgHZ8T7ZgqmOqqjRh0gZMWo+aryZPBI7VuYpbbl+lBDEdkyQIsACgpSNyim7CZFO0JDU6TX5eJlx2sfUM/4zGxQrl01uSTAH08FQjIYC2A95kTcCEXT8Vge5I0fZidOEhnNWuvOlsePjXL42+JeT31o/qYIQAIIQLoCDWJFTgn7qAWFCU44IDfpBKIoT/TI10qH95r70Z5YpGvN2At+rpz6Eo+yNhZV++t2ff2rXV4iUraoBNiAUALR2twDe1JDMjzWcvWwqZmTqffmIG41xHFIEQ6lJdKW4DxKDk7YAYEuN/0smL9DdAkpeOlDejDMorCqG1mRa9YulIWy/sbeqGBVMLxTKirXYSC6aiGmEqfp5GWaKKBXwmFIcKfTl5gAJCE16uxSuHQFUPoSCxW1EitR+sKj9yJ37RVg2n0oqAHbdjtWIzlO4LG1fiDtn2xDIZk7q4KAf+44dXAgX/sTKtxhMAC/VYBlsQBA9uAeTpbMXXGFBZEzDBWGjHLYCDfpxudKZASxds+vlzOpeaXHEXL5sGd1y2LLnM1snlRe3CPkVR9kVU5ROHEt6OMsOOK1eXN1unCfJxyhqAyfpEha9OlsSs+xT0x+qTv1lYyVpPmFwBdBYAWBMwcW+X4BvuGJq1BXWWATKmFEHVjFJoOIbb3oLp9T2N8JW1CyE3I601g1moL1iOyoLlaIVQo6qOaGwN0hhg125HVUIt6gd2o33C9qtXl9QK7hLLVM8agHhddcv9mTDgasQkwg8HJ6O/f/vBleDQefKI13yj7tlZA0CYFruNiezXjJoA9g4YO2qPogDQrLcEgNWE23vhwZ8+M7ZCAVduv2gxXLlypoCapayyGS0Vd+COwXb6dLqDb12xcmqblJwKZoo1APE6YMB9LaqdhE/+xOJnL1+aFpN/PLjtcg9XMYac3cCGgeOPoHIMPd1sgO25sywfpleXQd1h8XPLszvrWAA42f0V6MJ4BdoRXEFGBqGQGz0VOg7h7RfRhfEtVB28dNVZpQ0nk9v3GwcCitv3ka/FvW3SzSnl+XA6S/cmoW18NUZaMsW2A9JAUaRbR2Sh3UWuEWYzKMhd9PnTdeMzlYKOtvXBoda+VIpI87zqbFzM3YYeCA+qLqhHgeAg/t37l23tN//l7faqNG/8hM1jDcBE0NRsqMZ12gUT3Tbz+iUXLpQpApmZTee6kkCANQFjQSvDN12/zt4AVIsLDwkqRwv8VrTEF01kCzC7POqFJ5oVC9RPAgGQQHAbuEDFWAa1qC14BeMevJjpCb906fKKocBJFmhJKiyyBmAi9BTli3hLuI1EHvr9n7lq1kRc8nULIoALR8OJNQEjIS5GrxMjHmbS5lyI0QFlIBIAaHuJKWEEaGgsRffEbyuq8oTf7+p+8r22N5/c1v4PT73TntZBV1gAmGisqPCFiW6Zef2Cc+aB222E/tLMVnBdIhCIRQzk7QBcqWMHFBr0GOVOL4G8fDRSF0ztfT74tLFLMBdpUT0OF+VslBh/FHHC7iffb9+98fXW3/7mxebr06J1wxrBAsAwME58rdlIerRTTvwW9MWN/v7nnT1XUO1cbTogwELAyV7U+4CgWMkRnCkuvCYa1yZ2Sdjn63sojg6TrgiosKgg0/G1iKr+8b+eaAj+7JnG7b9+vvF2lXwRLU6Wb4Ah+KsghaS35ozZQKF/mRiBVBBgIWAIvUJ82xmlDalYWCWFl86be5sgGmsilQHDecdFoLLADaW5TlevL7yyrT98z38/2ei/a2vTe799oeGacTNY4CILAON1kqLUjHfZ7GsXnjfP7Cq5vjRFgIWAock/36BtgCCGdz77wiXCR0/PYAB2HusQzke6MjAlzwXTi4YCLgXCEVe3N3R6U1/k8R//paHv7mebHv7Viy2zrdR2FgBG99Z1D+BTrAp/kufOLoOpFQWjuePfjEDSCLAQgEGYjFIBYK8sOFOO7bq393F03KQfEg0ZS3JcQNqA4eQNRnI7BkPrO/oCB//fM43HfvVC0/etsEXAAsDwXqTvDtd1oy+J+H3umjkiquU60xwBuwsBUUNAI9wBcNxEsjKhamap8BH0wcE29gYwuBfKURNQkTdSCKAqyQujzxee3t4X+p//frLe98vnmp7+1VPyagVYABgzUCJXjrlk8oWsLDesXDHd5Fq5OrsgYGchgM6gyjPwrXfOZcJth6Gj3weHW3vtMpyFtbOiwAXF2eRfMj4FwuDuHAhd0REIHPzZ0w377nm5BSPLykUGPgpyNVQTNzX3laH7h3Cn3jNWVYPHM/HA0tQWTsQIxEHAzkJAkUF2AAR3AR4Q5HCIf62+f6g1Tu/zLb0QmIb2ANme+P1NoRl6/ZF5rd2BP//4L/Vdv3yu8Yd61Z9qOfE5T7V0q+VXPFcgy8IxOefM2VZDjvm1IAJ2FQLyDbQDCCkOOP088dH43j/UZsERaT2WMco0VJd4QOsJ7d6gWtg5EP6P/3myfvBXzzXfu3mz6hHZauGTncjGj6lbjVw+5prJF6ZVFsL0aVKcP2Ryy7k6EQjYUQjIxree2yA7AOrDJavF2+/sb+qBbvQIYDIeATcKlDMKE5vHfSE1q30geNuRzIbeu59r+rEog0EWAGLjo2YzKQYvif0U9XnaqTNEVc312hQBuwkBNPcb5Q5IQ8hRlAvZORlCRxNOKLBDglMKhYJgYuX5WU4oxL9ECQWBjI6B0Pd+/FTDwC+ea/5povlTTc8CQAxB1X8W7v8Xx36K+lzFAoAo6G1dr92EgILE39Wax0cEN33PWLtYc3qjEpI3AJN5CJA9gIv2BJIgX1DN7BoIfufHTzV23/NS061JFJFUFhYAYrA54KLYV1GfM1D1X16WJ6p6rtfmCNhJCMgzUACgYVS9TLwXT219J7sDmvhM0+RfkZ+a8bY3EC5o7Qndh+GGD//25UbD40uzABAbIKp6XuyrqM9VK1n9Lwp7rncIAbsIARkYuc9IOwBHXjbk5IgN49014IfGLlucaivN41uMQYLIJiBVwnDDs1p6Iu///JmGF+9+pTU31fImys8CACFTsxktOJQzJgLJrOunLWcBwCysuZ6JEbCDEECvaCPjAUSw/DPWij9Jdlc9nw448UjX/w7tAFCQID0IDx9SenyRi/r7Au2/frn5K3qUOboMFgCiiPhW40f2aHDM/F1VWQClpYYJemY2hetKAwTsIATkGrwNMHNJlfCRUFvH5wKY3QmlqAVwJmkLMB6vfjQUbOsO/v7nWxs/ePDF+pLx0iR7jQUAQk5RhKv/lyyqTLYPOR8jYAgC6S4E5Oj4kh6vA1wFOXhCoNhX7K66zvFY42sGIoC7S1CYqb902eMNn9bsVZt+/XzL7XqxL3Z06tWKVMtRxQsAS1kASLUXOb8BCKSzEJBj8NsvDAosXTnTgF7RXmR7nw9aewe1Z+CUuiBQlKO/AECM+YPgbusP3PPzZxpfvfdedexhBAlyb/AjkCA3IpJH/f9VdAEURxkZLphTratmR1xjuOa0QyBdhQCy1cqk5ZqBtHBltYGlayt6Vx3bAWhDSr9UuRgeWGt0wGRq7fGFzx+oamh68I22+cnkj+VhASAyuBDBEOp7t2h+BbiMHC2x3uZPRiBJBNJVCMhxUKR246ioSnhoEdjX1G1cA7nk8RFAuTLbbez02h9QS5o6/bt/9VzTl8dnYvKrxnI4ef3iUzgcK0UzsWTRVNEscP2MwKQIpKMQkG2MpvYElkGXC4pKha4v4GBz7wl++It5CORMckiQHpwEwqoTIwk+8MutDXclUx4LAAoIFwAWLpiSTN9xHkbAdARICDgn3wE6uDqbzvt4FWYabAhIda5YPXu8qk27dqS9D8IUnpDJVAQmOyVQL2aoZzt9kW//8rmmJxMtkwUAVTE82lK8TsnLy4RywSuEePzxPQMQwDjtVqbK40KACXOn4TBlKcb3RdWcCsPbEa8CfzDMAYHiAWTQPT0CAmlmDYdx50DoKjQO3LFZVTXrtewtANx5J7V/hWaQDUg4t7rUgFK5SJkRoCAxVicSAs7MdaCdu7UpC40AjW5DtgThvQ+28DaA2SNVz1gAWnlH48BTm7Y2fYiHQWka1vYWAD6ZTxaUQjfo5lSXae1bTpcmCISNX3SagtTMTNw/QyHA0oSvSaO3AcJoB5AtOCzwIRYATB+mIgQAaiQKAcvuerZxu5YGW/zp1dLEOGmc4VPi3DXl1pzZrAEwBWiJKglZfAtgOJTzsxRYnK1psTE8m1TfMwzeBiB5b4ngeAAHW3qkwpyZMRaBHm/k1Lu2Nr4+WS32FgBUhVwAhRG5/tEJgEz2QiCEM0I62WQtx4g6MzKsKwRkmGDMMHO+WE+fw6199nrIJGhtRPBD3u0Nn/vLZ5vuiweFvQUAiCyIB47R96ZPK2T/f6NBlrB8WhEG0kgLQBCvxpN1rLob4DFYA0D4FFYU0Icw6scQcr3egLD67VhxSAJjny5v6NZ7Xmi6dSL8bS4AiNUATK/i1f9EAzPdr3txdZAmpgDRrqKjdc8ucIAJi2ndh4YZGgBnttijgQk0PhpY96ETt0D00Y9734ybtM7oHgz/9revNY57NKWNBYColWRKYRRT7cCqqWJXBanyb6X8ETUEjYO7YU/PS7Cr61k42PsODIQ6hDWBtIM+CV4QegJQ7FKAtgOsRmbsXoTQ2yC/KEcoNI1dfCaAmR3gRfdLGYiCBfX2qS+Px4s+BxePV7Ls167/0zQIg9Dzd6sqWQNg9DChib+2+/nopB+IjH0BVmYvgdNLa6DQM81oVsaUP4hSgBuXzDhvpg0tRKPAer8CbUHxqx+toLpM2AIgNObigV873t6vlS3d0zWxAKA7pvEK9AbkeQYGApGKe55v+eU3PjPlW8N5tp64Ppz7VL5HAkL3/4n1qkrWAKTShZPlpQn/+cafwo6OR2G8yZ/yNw7WwlP1/xeO9u+YrDhD7veFI2llEEggnZ6ngJVeLG7DIwEMDZ0qwS6/vAVgyCM8bqE09ff7JTACGMZdpzfwzd+82DtC622l53RYU3T4GnHM0aGUpIsoRnVgdpYn6fycMT4CtMP+WvM90OLdFz8h3g1HAvB6y2+g1Xdg0rR6J6CtABIC0skmsADjBM9FTYBViMIam/EiLCoXK/CzAGDeiBzAyT9ED7dEFMLzqQdD/X8YzpIZ4354fTJ9rxLJTOXUfJHVp33dh3CPn/b8tRJtFbzTugknYvOldnIL7EGTYTl2DLUiFj/dKWgLkGWhtwsZMRpNmflZRlcRt3y2AYgLj6430QVP1/L0KqzPGz7t96+2rImVZ6FHNMayTp8OMH/TdxjrZSVCAxAO4yQ9v+7ueTHhhnUH6qHJ+2nC+fTIQK8LEgJ8uGqQa92QXOtoQl1iIYNAMw43UjLEmlx5AyHo8wWT61DOpRkBWvh3DsopAJCmsXcwfG+sMfYVAFRlegwEEZ8lxWItgkW02aw6veEe6PTXJVVdw+DOpPLpkYkezgH0DOgJRtBmwfpiwGw0r7eKFsCMF2EQNxoyMt16DJWky+jq9yWdlzNqQwCP5wXRQYDicdrvDy+7f2vTLEpjxriPx4vAexGhGoCSEhYAjOr8gSC59yU3gfZH8xrFmbZyae3Qh4JAF2oESCDwozBA2wRWsxOgVfWCbGu8YszyxKiaJfbsj64BDgak7SlMLhU9o219cq7+Yy0iHr0O9T/pt1idVIwjIZ+KUAGgtESoB6IQxM2qNBjxJ11VUJVnhURKAN+JWR9/mEC0FY4u69GVgRO/0LmiTpzDPXQxCZqHBwbtRu/LgPmmFQlxa8YWADE0pbIQDn3amBBveibuGkj+2dCTj3Qtq60/BAE06pWdBoORK4hHewoANZvRHNcvdAbmLQDZHxF78kdiBskc9Ao7cWgR/lBQo+LCmAU4n0djF2gVB2hlTUJA7aA5AkyyveaICjjG81gk+GhgFgCSHSGT5yOr/5a+0OQJJUgxGFQLf/NG73xr6Od0B8wvVA+XifuAOdnsAqh7t3KBhiFAU2MQX3DRrQm0URjErYkTyolJap2dKf9rxoRYQFGUCoqFrjugq581AJMM16RvN3YH0aXYeCEyaQaHZ0Q2w4ODt8r/ZA5nWrfvjmLdikqioALB7kBJsMxZGIETCNArjs4yIBsFLV4LubiPQGGCZaYkdzgSblJmrtgzAboG5NniShg8iTOQ25+slv8TwRaMRM6xpwCgqoUTgWLG9dwcXv2bgTPXYSwCJAiQkWIvCgJkpBiPqmnvQGIyiztnpthnv5M1ALqPwiA+A/Vd1nOvRL4X2FMAcKgluo+CBArMzclIIDUnZQTkRoAmfxIC/HH2BGagS6A9XzYj+87hIrNKcTSIsQCY9EOANP6HOwLSRf3T0kLcrsi35zMZUYSewpPDAoCW8clpLIQAKQD6URIgjcB4RGYAxWaE2xuvcpmuCRYAfAG5XdRk6iotvNR3BWBQdheXCRqCwovLngIARITaAOTmsgZggjHJly2OANkEkCAwHk0RGwNnPJZOXDPLcSt6CPmJWs3/4g2yBkAv1Jt7Q5bb9x/edjTqJQ9fG5KiCA3EzzYANhxzNmoybQWMpwkol1gDML7Ion+nRdChUkF3SlHEGgB9kG9Hf//mXuvt+49uvU0FAFWoKW6WYEOg0YOAfzMCeiNAmgD6G05lKACYFXBneL1avkfi2C9oya81DSGSl5+tNbnu6bzBsGb3Td0rT5MCKdRvPbr8WZ2cDkfEngIAKEJNcd1usYZAVh+4zL81EKBYAcN3A2jyl9UdcKSoYiy+WQJtgFQUdAJ4LixTcghQoJ86C1r8j9daBwb3sqcAoCpCN+FddjW9GG8U8rW0RYAm1T70DhhOhZLKvmYKAB6PWBB8qAVgShyBxp4gNOFfuhCOeYc9BQCICNUAOG1qepEuDw63QzsCNP2TJiBGuZIGBDIzfLvbIzYCu48NAWPDUdMn7WQdQVe/VouE+dXUKEwUwkEvdiRq5VT3dII1AE6xKwDd4eQCGYE4CJAtQAbq/2nU50s69M20jXcL1gDE6Sq+NQoBOtjncHsAvMGTQuyoJJb92e9DP0DLcp8S4ypuAYizxOUtgJQ6jzNbDAF6dXrRGIBW/3mSWgEOt1UwGl62ATIaYX3K7/OF4UinheL7J9Bsmv0aMIaBTQUARejWh4u3ABIYqpw0HRAIoPFZBJ3gc1ADQC8f2dZTZgoALrdNX7sWGcg0NlvQx7+5D/f7ZRuoOmHoRkF8EINC2XUkmqnx06nLuBhGwLoI0HvUh0JANp66Q0oAMyfcyVAjO4WRpoqT5bD2fbMOPrIiSn4cmEc7/Tg5punMf7xTBo5HL7SpAKCgACCug8n4gokRsBsCATQGzMYgOBQPSCYBwGxeghyPX76hj9NBx2AYGnoCEEnz1zPFoTrY4o32gT0FAFUNCTQBgNAo1yj5ngbmiBHQHwFyPvPiy1U2RwCzBYAQW+HrP7hSKNEXjMAx9O23akz/RJtOW3C+40aN9hQAFBQABEoAoTD74SY6aDl9eiDgR48AV1QHLU4DNxpJv8msBFgDMLoLhPwO45YU7fW39uP7GL/bgWjyP9TmP9FUmwoAuAUgsL/DvAVwYgDyF3shQD7VsmkASCgxk4J+sTpmh1gbaDOhnrCuTlT3U1Cf4LAYFRMmTrMbXRjKOEb2FAAitAVAspAY4i0AMbhzreIRUFDyFvfkjd9+f/SIPvOEgIBfbDS5bMGBiMbvBXOu9qPw1Yj7/Olu5DcemuR8trthaO8/dt+eAoADBkRqAIIcijM2/vjTZgjQ2lc6AcBkDYBfoABA655MGwYiov19Or2v1ydW+yLyce/3hsF73Po/xoc9BQBw9Ij0Ahj0BmL48ycjYDsEwop5q20t4JppA0DCT1/PyFWYFh71SuNxOcEhUPupVzu0luNFAz/a5+/Gyc/ORH7/HzX7xkBgUwFARQFAHA0MsAAgDn171qxEgpDZ/wm4fcdAiQQg7C4GX94pEPKUmw6IGqFpUB4hwEwBwIntjgj0M8uyyUmkvOI/+Vi7cPIfrfqP3bWnABCBbpF6yP6Bk1aYsY7gT0bACATI4SW/5REoaN4CjnD/mCq8+adB17SvQyCresw9oy7IpIQlbygz7cAUwdbmWRnp/cqn8L10ZC/t9TPhdhvK2o1dfhjwj68BSe/RMOEIIA0ArULEUH8/CwBikLdXrTThlx+8EzL7Ppmw4Vm92yHz013QNuvvYbDonAnT6XlDnrU/nlRo9jwh2P4nKw0NAMmEg1T8dFof+fQznURgEAWiRoxxMBEJjYk/EVOGX3dAr+F1xKmANQBxwOFbOiGgQtmh/4w7+ccqUiJ+KDvyI8jor41dss2n12QDwIjgIEDptAVAYXsb0JWvtskHxzoDPPmPeWpV2DvOvv/wZPYUAFRn13AQzP7ONgBmI26/+nI7XoSs3h2aG042AiXHfoFb8/ZaQQ1GXQA1w5RywiAewCKS8jI9IqtPuW7aQaHV/oF2P+zBya0NV/1hk4W4lBthQgF03sZHRwcnrcmmWwDhZpFbAD194qyAJx0RnCAtEMhvfTzhdni8hyGr7yPw5q9MOK9VMwyaaQCAIPkHxlpim4ldcR6ehG5BIqM+Ct7TNRBGmw2ZNpHkA9OJG/8fHhlr7zMep/YUAIq8TdCVTUsdIRoQny8IA4MByMm2tjQ+3oDia+IRcAY7wTN4MClGsnres40AQNMInU1gJvV09JlZ3Zi6inKsIwAEUMVPq/1OjFznM/vAhjHIWeMCrfxp8tc6rIVMgMKh/M3tZBXRIZKP9o4BkdVz3WmMgCvQiq1LbpXkCrSkMTIjm+ZD1bHWF+XInMn/6mgW6oEMxblyCwA00ZMV/95WP+xGFX8j7vHz5K9hvOHEH8HxvP3IQEJj2p4agCE8G/GjTAO0hiTp6OyHmdOLDCmbC7U3Ako4eTWzIzL5vmG6oNtv9uyPwDU3CDU/gqKcTOm6j4L19KAqhlb7bMWfePfQ8b59iN/+40f8JlKCnQWAJgRqeSJg6Zm2vUPbHo2edXJZjAAjcBKBvjC+OZPUlJwsRfs3qq3pmFDFIxRLsAVAW/gD6Kffgy5q9EeqfqbkEHDh7N/Y6Y9qSpIpwb4CgKo2ijwQqKPTPiutZAYm52EEjEagz2SDfCd6WIg+CrhI0BaALxSBPozD34cBaeiT7fhSH90e3PDfVe/Fg42SH8j2FQAcSp2Jwv+Y3m5rF2sMNIYhvsAI2AgBigDoN3sWSuFFrUfXOHG1WGCS4TGt6vuxvUOTfgRCJntb6IGXrGUoaOWvYjjp9w6jHVmKyhP7CgCgHEgZvRRGSGOTWGOgFFjnrIyA5RGg/f8U350JY+DrEWv4W16QZdhBQBSUZwBd9Sjk7AAerkArfib9EaBDfeow6FFztz7nydhXAAhH9uPToH8PaSyxq3sQBvBMgBwJ9uQ0sszJGIG0QaBPwPzU2dwtFL+qohxd6g/gap6OlfWiGoXUzwMBlYPx6IJs/ELcOF99fGxAV5sJ+woAGc59IDhudANqAebPNf80tvjDjO8yAumPQA/tAZhMdYfIPVMcVRYnLgAEcbIfRKxowqfJniZ9usZkHgK06qcDfRrixPRPlhv7CgB/uKELajZ0YkTA4mTBSzVfQ2M3CwCpgsj5GYEEESC53ytgDju4hzyPxVE8DQBF0/Xj5O4LkSseHpKEIHnx4CL8ySQIAQfu9YfCEdh+bBAiBtmr2FcAGOpUtAOA1YL6F0gAYLIHAkooCJnHdoK7sw6UUADCOcXgm3kKhPJZA2T2COjG2c7s+d+FL/D+vuTjM+iBUSVuAdDqnSZ6P33iPj353dP+Pf02HRQ9GpWmZdCqf0/jIPSjx4SRZG8BQFX24anAwgSA+iYWAIwc3DKUrYRDkL/tEch/dzM4/GNjP3irT4Pui26DQFm1DOzagoduAavaiOAzAKhjewKu6Ml5tuhkizaSXPvoZEO9jPwmg8GeoYBjqChKbeyriM+6+m4Iso5NBPSm1EkTfvmf/hEKX7tv3MmfmMg6vB0qHrwDsve+aQpPdq+EVv69AgSAbsEGgB6XE6x+EmA6j11a8ffiYUfvHeo3bfInPO0tAID6kchBFcLJ/1id2NCgItuf1nWjyrf08f+Mqv0na6cS9EPpk/8FGfVC5dHJ2EyL++T+JyLw3KFPxe7/l+Rli4x7lhZjx4hGeFwKqvlDsB0n/kNt5m8R2VsACMPHRnRqImUePNSWSHJOaxEEcne9CFmHtmvmlmwEip+9i0700JyHEyaOQGco8Typ5iBn4907jqZaTEr5K4tzU8rPmfVFwOPEcMi4v//BwX440OJP6AAfPTmxtwDw6E10HoBQ35wDh1kA0HNAy1JW3vuPJcyKp+0wZB35MOF8nEE7Ap0Clv+uIB5n69MncIv2lo5MyQLASDxE/aI9/s7+IKr6B6KH94gW9+0tAAyNAqFagIOH2jkutqin0aB6nQOd4Gk9mFTpmYfeTyofZ5ocAYr9jzFrTKf+9l7T6xxdYWVx/uhL/NskBNCbD2iPvwGN+2iP/1iHWGFweLNZAFDFbgP0YzTAVgleEMMHBX9PDQFXTwu6VCU307h6mlOrnHNPiECHAOM/YqbugNg+deIMNKUw8SBAEwLJNzQhQJN+BN0ryZ3vfZz42/owwIJkZG83QOoMRUGda3Iva736cu++FphSxhK6XniKLkcJ+JNmwREYTDovZ4yPQCf5uptMtP//ybZDJtc6srqyghxwOXitNxIVY35FV/sYsrelNwh17eL29rW2jkeFM/i2VrCMSrdrD5kiMDECjIBRCPTg6l9E5G/a/+/qHBv/wah2jlduZUneeJf5mo4IuNGan4Is7W3wRtX8Ry0w+VPzWQD4061HEId6AkMUfbq3BcglkIkRYASMQaBdgPEftaSrvsOYBiVQamURCwAJwKU5KRn00XlydZ1+eB+t+WvrB6MhlDUXIEFCFgCGOuFdkX3hD4TgABoDMjECjID+CJDnnwj3P2rJnu1i1f/Ew/RSFgAIBz2I9vVp0mzB43jJoG/HkQHo6BPgW6pHY7AMFgAISFV5Syc8ky6mlrcBksaOMzIC8RDowNW/CHcrF9oW1X5UF481w+9lelxoAMgxAFIBmiZ9shNrwkmfjPl2HB2Aph75DPqSaSMLAISaE4QLALsEnxSWzODhPIyAFRBoE/SuDnUPYFwnEaLHyV6ZVV6AamqawJi0IkBwZeCePp3Ed7gV1fs46X90dBBa0mTSH44DewEQGgUDH0FXNplfZw8Hx8zvjU090NbeB2WsrjMTdq4rzRGg0L8DgubgI7UNwtGdVV4onAcrMED7+WE8JbJrIBTd08eTkG1BrAGgbv7N7bRGEH4aywcfHrPFoONGMgJmISBq9U8v1rdfEX+2w+zyIrOgtlQ9bgzF60ILPm8gAgdbfNH9/O24n3+ozY/W/JZqSkrMsgYgBp8CL+A2z2diP0V8bkcB4PJLloiomutkBNIOATz2HkRZ/0d6B8A3KDbiWxbt/xdxACAa2EP7+KgN8oehrTckZVAeEQ8gCwAx1IcEgNgvIZ91Dd3Q1NIDU6cUCKmfK2UE0gmBFjTOFqT9h4MfHRUOJan/FfzPbuQ6bqnvD0WgzxuG5p4QDAZstKxPoMNZAIiB9fCNO6FmE8XsrIhdEvG5A62Gr7yUBQAR2HOd6YMATfwtpAIQQKhdhm2vfiqg5pFVVk9J//1/UuOTL34gOtlHoLU/gJO+KLFvJP5W+MUCwIleUvBtsekFdPe46cQlAV/IDuDKS5cKqJmrZATSB4E2BOYrFQAAQABJREFUnPwFxf6BUHe/8NP/qCfnTS1Jmw6lSZ5W9nTEBk32vbiyb8Nwu/1+nuxT6WQWAEagF0EBQBEqAJA3QF19F0yfxsY7I7qGfzACGhGgdX9zkFTfYjQAu987oJFT45KVFWRDSV6WcRUYVDLt1ZMbXgQt8oO0qveTZX4QugZRhS+mOw1qqRzFsgAwvB9cruejzp+CAyS9+e5B+OK6VcM54++MACOgEYFOnCt8SZ7GqLGKCZO5sd73X9834X2zbiysLDWrqoTqiansaS6PIFZBVNPQ/nw3TvA0yYcFHNiUUAPSLDELAMM79I9faoGajXQ40DnDL5v9fdsHR+C6q1eAB614mRgBRkA7AjSxNAg0vu883CI8+A+htaDKRPU/LtmduINKxw6TzSHJXjSRB3By96FP3SBux/T7wtCPantW2Gsfy2ak5BlmLMqP4SWhAoDXG4TtaAy4ZnX1WO74CiPACEyIQAda/ntRfSyEcPJ745mPhVQ9vNKcTA9MKz15vDiyhWp1+pc+1ZORARGm45ej94YSHP+Ks3hEHQqOQ3BSVLwQTup04h0Z1PvxaEX689FvEccsnuSYv6WAAAsAo8Fzhh6FsOsneHnoiRl936Tfb7x9gAWAJLF2OzKTzIn+wkryeWOVqp7ky4h4UvfbVp0p1O8QFgwzBl/SnzTtNwgK+0tMOwZ80NzYlTT/emUsy8+HnccosCkTIxAfAY4EOBqfoeOBhYvxBw+3AxkEMiWOQK6b1J/JyW+57tT3TkMFU8ZZWmlrR6gQ86ZIoQwqI7n2hzKEesGm1HIK+uMTtfpHzve9dygl/vXKXFGc/u5/emFl93JYABhvBCjw6HiXzb72sgTGRGa3WY/6Mp35UJIxI6miqrKXJZVveKZwThEEyucOv6T5u6/6dM1pJ0oYdmH92cnV781Pvf6J+DLyuujVPxn/vfXyLiObqKlsl8MB5YUcR0QTWJyIjwMedwyEw1IIAO+8dxh6e73jssgX4yOwuPCS+AnGuVvkmQZTsxeNcyfxS32rr004U6BsNnirVyacb7wMveVJ1J+F9eefOl5x0l9rRkMzkS7hjbV1EEa3NdE0taQIY9zzuk50P1ilfh4p4/XUn2+hUzx2jnfLzGuhUBhee/ugmVWmTV3VeWdAVbb2gEoOxQVrym9CxXlyqvPRwPUvuRC8s7W7cqouN3Re/jdJbx2Mqb9kLU7mCdTvcEPHzDuwGH3aP5ofI39TwD+Re/9kAf/yEzuMbKLmsmeUmWj9r5krTjgcASf6QiwMHYTz/O9F/+g7XRNBFLWSaTwEll6bi5eFHg5EbDU0dsMF583HKFjpI6tVeQAyKbSXgUQT+fSc5dDqOwQDoY64NbkcHjiv4jaozF4cN11CN9G82jvvTMho2AOunpa4WVV3BrRf80/g02n1P1QZ1l+I9Q9g/YFJ6ndkQFs11p+vj/YhbmPxJrnp+XR83x3F8ujYX1HUf7QNPnxnv6jqT9Sb4XbDitmzxlr2n0jBX0QikKEGYJ3vWfi7gd/BZb7X4Yzgx9G/C/3vwOX+1yBDDcIB1ywIK+ZNy+bVJBL5ZOpetv4IqJG/xaxCZ94g+tEWF2XDzBnpI9mbIQBQlzsVN8zJOxNVohnQ6T8GYXzARpIS1RJcUPENmJI1f+QtHX6pLg8MoiZAdWeCp/kAKKFRDuokJMw+Hdqu/SH4p5+iQ40ji1BRsBkoxvodWZAxiPXjC2gkYf2459865/+APzd124eRZU/8S08BYBAn/sMBsgAQQ/RyeG7DGzDQ7xPDwLBaq6eUQ0UR7/8Pg0Sar2WRTriz72dwVuBD8Ix5D0H02pLQfjg9uBN2eJbCoGJOFEdjl2HSwJ8kIzUbn8OcwrUA5WV58G8/uBIcBq+ak0Qp4WyrUbdS6DJ36EXUELR490NPsBHCkRBkuQqgAif9bFdxwvwnk0EJhyCjbhd42o9GBYFwbjH4ZpwCofyyZIpLOI+C7c/ow/p9WH8kAGH0lPDlLYOQx5z6hzP8Xj9Atw6B+mna/9SnQi/6pYuicEcvPPi/z4iqfkS9Fy5fAoU51nXjHNGYNPqRpfrgv3p/AtPCTZpaVe+sgH/K/z54dXBJnqxCjgMQDyFF2YhhrYQLAK1tffAeRgc8kwMDxeutuPdoj58M/KaCPkZ+cSsb56bqdIFv1oro3zi3Db+kYvt9+Vg//qULUdAfkZM/ibAvPfK+FHDmZWXx5C9FT4xlYr33Gc2TP+WeFm6GGsyzITtxQ96xtce94hWq3o7Lmgw3MyKPIRu4XhFPT27ddfyYAvG8MAeMgGgESIFwTKDqn9ofbO2Getz/l4HY+E+GXhjLQ6bqh0v9b4y9McmVyzAP5TWYulkAiIfwxpsH0JbsT/GSmHWvo7MfyC2QiRFgBACO4ORP1v+iiF6cz2+RY/XvQFuSGeXpYyMkqk+NqHdZcC/u74+2vZm8JspDeQ0lBXpYAJgMYdVx92RJzLr/zHO1QK6BTIyAnRHoxkeA1P8iydfUBc0N8b1LzOKvEn3/szzoWsMkHQIVkfakeUolr5ZKlYhygAWAyZDacsNHmOTdyZKZcb+zawDefIfjApiBNdchJwJ49gyu/sXyRra4z26R4pUQBWJ2RblYQLj2CRFwpODf7wRjF3sRRf2YBYAJu27YDRV+PeyX0K9PoRaATgtkYgTsiEAdDn2/wHj/hHnv4VZob5bjnI787Cwozcuz41CwRJvbHUVJ89nmMNhDSQEWADT1zkDXw5hOCmufvj4fPPMCBSpkYgTshQCp/ltFbvwj3C6M+f/UQ29JA/ycqXjwk7ketdK03QqM7HQtxHV84uvsiOKAT9wLjGxiCAfzy4lzZiRLspa99Q4/qPCgLOy9/OpeaGnrlYUd5oMRMBwBmvcP+VV8DMXSwW37YXDAcOtsTY10O50wnUP/asJKVKI+Rw685Tkt4erf9KyCXoWC0RpGrz/2rUUdHAdAK76K+isUtSkyoHDMQuEI/PmJj+CbXztPK/dSpRP9EpcKDBsyk+iClcbLIcFW/9RN7mAIXn5Kjpj/xM+M8lI++IeASIBKM3vg0qrtcGrJQSjLGNrGafMXwI72OfB842nQ7tM/kuIfsq+BFaE9kB/R5lHe68iFP2RdnUCrEk+qKCq5uOMZBEzaENj9WDcsvZaCxS/VlsHYVC2tfTC7uhTKS623/1fhUSCbdU/GDhCJSz+GC+hEXPhbcPnfIoHZy7Yn3oOWhm4pkFXQ9W/VvGrwuISvR6TAQwsTV01/F/5x2RZYWnQUijz94HGGon/0fXFhHQoGOyAQccG+nmlaitOchsL67nHNg9MDOyED4luw0qr/v/O+AXXOqZrLTyJhn9PvuWX3i3f5WQBIBL2l1x5AHeTtmCXRRUwitWhOW9fQBeesmWO5EMElGAY4j0ee5n5Ot4SHMHyvVvvmAYz1fxAFBtFao3BnHzwvSdQ/Gg/TSoqhmq3/NT8aN855Gb44+1VwOiY+NcqpRGBF8SFwO8LwSVe15rK1JOxwFMI7GSuhNNwF0yLN42bZ5l4B/5v3NTjmrBz3vl4X8fDKex/5/vzHqTwWHxNB9eGbPoaaTS/h6+jiRLIZlbaxqQeefWE3fPYyKZQSmps5ELXilkKG0swzJ9QHAYrgh1v5mojS7sfJf+JXtqZiUk5Ehn+P3vdayuXoWcD8aYauEPVkVXhZp5fug8/P1G64eS2m3ds9HT7omKcr762OEvhx3tehPNwBK0O1UIafRG3OEtjhWgKt+GkC+fHk75/F6mEBIIaE1k8VfozrfykEAGJ56/O1cNqK6TC1Qv+9K62QJJquK8STf6KYpUt6suTXSgdQUvCLnv2R2QPv7INujMQpC1UUF3Dcf42doaDu6MY5uGZLkG6c+5LuAkCMBZron3WeF/tp6ifKsndt+fbCw7FKeSc2hoTWz0dufB6TSmMJRAaBG/64Dc8s0ris0tpOA9P14NJOsDeXga3jouMh0Kpx878Ot0p7EhAW4tWZyj2n14eGfx+mUoTueRdUGasi1p1hgQXOzmuGaTmJR+ObntMG1bnjq+oFNifVqjtdEP7R8EJYABiOhtbvqjoCRK3ZjEp36EgHvPbmAaOK171cElUa8QXPZC8EKIqfFmM+0hI0SSAhkpnK0w+8IVUnlRXkQ0meoe5hUrU3VWbm5Gk7gne8eubmN4532bLX8PG7Y8t3l3QObwALAMPR0Pr9kZsewaQfaU1uRrrHnvoYKFSwVYgMwWiPl8k+CBzB/fzJ5vVBVPmT6l+GodH0yRForJMj3n9slCzkvf8YFJo+c91eTenGS5SXQt7xyhN5LaxGnnnsOwsfGs0DCwCjEdH0G+0oAf5VU1KTEvl8Qbhv4zsQERwmVWtzaSI4qtUaTGuhnE5aBLT0dxAn/73kISDB7O/0+uHph9+VCs/i3BwgDQCTdgT6g1naE49K2ZdC3lFFCf3pwwfq5Wb/uIZXLAAk2zVbbnoSs25LNrsR+fYfbIPnX95jRNGGlEkrwn4Z3vaGtI4LHY7A7sH4Gh+y9duL9gEaTQSGF637dxfqH5747SugElMS0eIZ+vqnS9Q0w1g52J+8t8SBvuTzGtagBAsO41j+oCMAKARc7v7ujptHZ2cBYDQiif2+M7Hkxqd+4pmdcBhtAqxANPfvwF0LGV76VsDLqjwe8sXf+6cF/wFc+Q9IYPRHy6Q9r9RCa7McAX9ifV5RWAjlhbz6j+Gh9fNQbwU0eRM/VKdxsASO9FVorUbadB93BqArcPzBUtD975+2jfA1ZAEgla7bctOzmF0qB+EIzqq0FUBbAlYgH66yPkIhYLK9YSu0hXkciwAZe9LkHo+OYpouCSZ/4jHQ0g1vvLArHrum31PQ73jJzCrT602HClXEbtOBixJuysaDF+HaeVytecJlicqwrzcIDYMjHqwid9D9g+H8sAAwHI2kvqs/xGzx33BJlZt8ptb2Ptj8mFyuS/Fa043WgO/2q7gdEC8V37MaAgdx5b8LVf/xqB4nfwr1KwO5I2HYcu/LMrAygocZZcVQkJM94hr/0I7Au20L4em61Zoz/OXYmfBem6En8WnmJdmEh/pDsBcFgDGkwrcyvv/BnNh18nRhSgWB3Y8dg6XXLcEi6E8aqqvvguKibJgxLXH1l4hGkEdAE04GbocCuTgqrS17i0BQnjpJlf+JV4UG7M941IwTf90476h4eYy650QZ/rn7X4OOVrlO2XTisbBnLJwHbhe/qlPp+48656DXkQsWFRwDR9SGe2xpoYgT/nBoLTx8+Hy8ad030BGc/Hf1TPjwOVXV4Yy8c+8zhIB1Wzm2/8RdqdlQjVDuRgYyxTExtmZ6aXzvby6GWTOsIQTEWpCD77q5mQqUu3mAxjCxwidt55B7J038k63padV/ZMJ3lPmt3f/KLulU/4TC/KqpsHQmG//pNSKmZHXB5VUf4GmAB2BK5pCdR4uvED7snAtb61dBi7dIr6qElHM4NvnHewBVGAyqGdPh/y3pZAFAr26q2fBfOF39o17F6VVOcVEO/OB7n4G8XKlkE03Ny8DRWYZCQDEeHpTrUiEDT0Bz84jVhJ3RiciAkzT35LffEwJoxz/ayon33onxRGkPSuQCOnC0FR6WUPVPAvylK5fjiX+8+o+NHf6cAAF88Pb0BuBAHz5c2uiO4P+u/AW/TrWBNXmqq3+fBxmevZhQOt+RhfOnwN/81VrLnRo4OeicwmoI0OR/CCd/LYKCGW1zob//7//vExDGkNqy0YrZM2B2xRTZ2GJ+JEOAtk8/6vJD00iDv/hcKvBa8CcrL2DRMj5M2u/ufTKAtgC0gXiV9kzmpGzvGIBgKAyLF1jfrcUcxLgWIxBoRZXBIYnU/q5IBDbf9Rx4B/1GNDelMgvR6O/UObNAQa0XEyMwEQI+FFzfbfdDO+2/JUbTI2d9/VfsBZAYaPFTq577MMH78ROJufv8S3vg1Tf2iamca7U9Ai24TJFpz5+C/byw4TWpTvmLDRJy++PJP4YGf06EQBtO+q+1+KEnkPDkT0U6PapzLQsAE6GbzPUt68MYi/drmFUS2+aRjXj40R2ws7Zh5EX+xQgYjAAd7ENRH2VR+9NL7/0nP4DD+1oMbnlyxc+aUgZFGPaXiREYDwF6jsjFb1u7DwKphH5XIit4C2A8hFO5tufxFlhybSEWsSaVYozISycGf1LbCEsXV0JBvvWMAo3AhMs0FgEK8tMgmTh89N198PZL5LQjH3ncLlizcC44Hbw2k693xHPUj5q0bW1+aPSmHjQFt5f6eJQZ0ae+wX/GYg8bUXSqZVKEwF/e8yp0dQ+mWhTnZwQmRICUkhQBkHz9ZaKe/Y3w4pM7ZGJpBC/LZk5Hq3/XiGv8gxGgp+joQAjeaPVCD52apQPhgnA2awB0AHJMEfueCsLSzx9Ct8AvjrknwQWfPwS79zbDqlNngMfDLxsJuiStWKA5fy9a+vekvkjRFZdAc5eU7n6xRtJJf6fMmsHBL2KA8GcUgT6c8N/r8EcFgFQ0/qPhRPPSEAsAo1HR63ftY/twK2AZFrdYryL1LKev3w+79zTB6afNBLebh4Ge2Nq5LB8uKz71KtH4ADLhoHb3w8afbZXHEGEUOC6nA85eNB9oC4CJESAEgjjb017/x10B8BpzaqqbtwAMHWvBv8Li5bQ0QsbqG7vhF/e8Cn7UCDAxAqki0IuayVovAAkBMpGjbxA2/O8z0h3vOxyjZTNnQE5mxvBL/N2uCODjUz8YglebfXAQA/voueofBanKS79RiOj6c/cTg7D4c/vRmfd6XcvVsbCubi8cPtoBq1bOYMMjHXG1U1E03VNo3wNo8GfgyyopSJ0DXnjgx09BOITSiaREqv/l1az6l7R7TGWr3R+GDzoCcAT3+ynAj5GESqceFgCMRJjK3v34Xlhy3Rz8ttzoqpItnwIF1Td2wcrl0zFaICuFksXRjvlIM3kgQMZ+8rXeiVH+NvzkaQjGzkOXj0Vw4fN29mJW/UvYNaay1I2+/DtR1f8pqvz9JknRGU6FbQBM6eUl178MEP4S1lVgSn1JVNLS2gcHDrfBactngMvFQkASENouiw9fVJ/6FeiTzNiPOsIx6INNP3kG/Oj1IjMtnz0TygvzZWaReTMQgV408NvZFYTdGMd/wOgl/6h2lHicdNwKkykIrNt0ESjqC1iX1JjPnV0G37rtfMjKwlN4mBiBCRCgmP5HcOVvjG3SBJVqvdwzABt++jSEdHKX0lptoukqCgvhrEXzJH8jJNoqTq8FAXLl298XhCby5zdY1T8RP/Pz3cBbABOho/f13Y8eRq8AOmvyTL2L1rO8zq5B2P1pE6xcgf7I7CKoJ7RpURZN+Idx4qfgPoLeW3FxDHf0osHfVikP9xnOeFaGB85B1b8TN2KZbIIAPjCtuMdPVv2f9gShX3CMjOocFgDMHXnnXPYS+DwXY6XTza04sdp6en1Qu6cRViybBpmZrAlIDL30Td2Li5W9GNynT1J7On9jB2z6xXNo7S+jaHJyXFCs/zMx2l9+dtbJi/wtbREIo6jciCf17cAT+w71h4xy6UsIP1JDLyvyyK2OTqhFVklcswHNfeFD1PsVy85yYUE2fOv282F6FUU2ZrIrAuTVRyv+RlyxyDi10susfU8dPLHxLUt00aLpVbBoeqUleGUmk0eA9vSP9gfhGE7+5NMvE5VmOGFNWQYLAEI6Zf2Gq0BVnsC6pbYHIGxIA/D1L5+N5wdMFQIVVyoWgUFc7R/CqH4Dkq76HfgE7X9tN7z27E6xQGmsvTQ/D85dsoCP+dWIl9WS0Tzfgvv6FLa3jbxP5Jr3T8C5tNAD1bkutgE4gYiZXyhK4OLrinH6P8PMapOpK4T+0x98dBTyczNh5gzplRbJNJHzjIMAzfd16NdPkz9u+UtJLlRNvPvoNnjv9b1S8jeaqQy3G85ZMh/cHOt/NDSW/92FbnwH0ajvQ1Tz1+OKf1BK69ghmF0oNK8o8YBTUVgAEDbyhlwDL8P6q4TxoLFiUgHTKYL0OX/uFFy9aMzIySyJAMXwp1j+3fgpK7nDEdj6u1dg/+5GWVkcwZcDH5o1C+dBQU72iOv8w7oIUHheWul/hEZ9FLGPfPkl0/SPC+5MXPlPzRoKOc2v8nEhMunitRunogj2PtYmvRAQQ2TZkkr4yk1rIDvLE7vEn2mCAK30j+E/HZJHhnb2e+Hhu5+H3h6MO2wRWl49E+ZMLbcIt8zmRAjQvn6jNwTNqOanCd9qRFtma6dkQTapAZBYABDdgzUPrsGwJa8gG5YJBF5emgff+Oq5UFUpbVwj0b1qqfrpNUahfOvR0E/mFQy9rHoONMGfH3hN6rj+ozt/RlkprJpXPfoy/7YIAhSshyb8Rvyjk/msTHPzXLCo4OTijQUAGXpz3cabURR7UAZWtPJAJwjesP50WLOaX2xaMZMtHS74oQtX+7TqR42/1OREa6pPntsJ7762R2o+RzNXmJMD5y9byOdsjAZG4t9h3OvsxNV9K074FKjHoJP4TEfAgyEn1lZkA33GiAWAGBKiP9dt/CkKAd8RzUai9V90wQK49uoVQMeZMlkHAdrnr8dVf7/E+/wxNN2BIDzx21ehuaEjdskSnxl4tO+FpywBCvrDJDcCtLJv90egzReOfpIQkG60sjgDqrJHxv5jAUCWXq7ZjD3j34rsXCILS1r5qJxaAF+9+SyYVsnxArRiJiodBfFpwBU/CQDSE76dfDjpb7n3FQgGJTdMGAWmEw/5IXe/4rzcUXf4pwwI0Kq+3YeTPrrqteOk75PYal8PvCoyXXB66VhBlAUAPdDVq4wbNuWjz9VrWNwKvYo0qxy3ywnXXrMc1p5LPs5m1cr1aEWAVvqNaMBEKn8rkEuNwPanP4Ttb++3ArsjeKRIf2csmAOVJRT5m0kGBAbRnZnU+p24yu/ESb8PtV92oUynAudPyUTV/9gX89grdkFF1nZe/8dKPLz8bWRvpqwsxuNrycKp8OUvnQEFBRzmNB5OZtyjVxyF723Cl50lVvzHQXH0DsDme16G3u4BM2DSvY7l1TPQ4n+K7uVygdoQoNU8HbbTgxM+WeqTj35AZutWbc1KKpUThdE15R4o8oxU/ccKYwEghoRMnzWbFqM99htWCBc8Hmz5eZlw/XWnwWmnzhjvNl8zGAGyU+7ElT5N/BTJzyrkQkO//W/thVee/sgqLI/hc37VVFg6c9qY63zBGASikz1N9McnfJr06ZhqpiEExtv3H44NCwDD0ZDp+3UbzgCH8jKyZNnIIRQzgDwFigot2wSZRsSkvJBWsx3V/M3ozkc+/VYheglFuvrhsftehe6OfquwPYbPaaXFcPr82bjm4tfqGHBSvIDDGgZQjT+AE30f/qCVPa3y/Wm+d58KbHTc7wL8i0c8UuOhI/reug3X4ob6ZmRjfP2NaP401E9nCVxz5TK0DZjP8c814JVMElLv08RPq34LLfijTXWjtfVHL3wM2179NJmmS5OnvDAfzsJIfw40/mNKHgFa0ffhRD+I45n+yDqfJnwvXrOQTJs8ADrlnI3R/pZgvP/JiAWAyRASfb9mw1dxK+C3yIal+2renDK4ft0q9hTQaTzRCr8Nl/xtOPmjXZPliKbJ/ro2ePz+N8Dnw0MHLEx56Ou/csF8yMXYGORjrbAV7Li9qaKwhwt3jJNPK3eI+tfThN+P43gAr9Hq3oJDedy2irw4Cyf/ZRTsR8OMoSGJyKZw3VEE0kQIoBfjGafPguswbgDZCTAlhgAuhKLx+TvxpdmFL1CrLomcgz547g9vwbFDbYkBIGFqxZMJrvJZGMxzSElHYzwDhYAsjIuRgVbXFHKdrLCH/hz4CeDGNG68N45RtoQtnJwl2nKn426DOMGjRx3+RaKTO6nnyd2OJnua9GnyJyGAyTgE6IS/pRonf+KCBQDj+kLfktdvuAOPEP65voWKKY3OEbjskkVw0fkLwIXug0wTI0CTPk34HbivTz78Vn59usNh2P7sx/DBW/smbrCF7ijuDJz8q3GDLrkxTOHYXSgFuFFgiAkFLvqO2wikSaDT2uiT7p14THAADHfnorwxovR06BARyhwnBAyaoHEIRSmCE3AsyI2Kr//QMIO5qKX8UHYI4aRNEzpN2qFIBCf4oUmexmNssqdrlJ+uMQlGAPttUb4HKNRvInS8uxPJwmmFIbB+w3dQCPipsPp1rnhKeT5GEVwOy5dO49gBw7DtxxdrD75V6TS+Afxu9fcrHdtbv/MIPLvlfYjgZJIOpLg9xyf/xF646dB2boNcCESP9y3KgKmjovxp4ZIFAC0oyZRm3YYf4mz5HzKxlCovdKjQFZcvh2VLq6Lq01TLs1p+2s8nf/0eXKaRQR9Z86cDkVtfx74mePrhd8HntfY+//D+oJW/s3wmKM74FtbD8/B3RsAIBDJxq2l1iQcKhgf4T6AiFgASAEuapOs3/gO+W38kDT86MbLijDmweu0SyC3KhnzUquaiHjMXVZzpNEhpbscIpKjORwtnnOz7Igoa8aXJjH98HNDE33O0DZ754zvQ1+vVaXTIUczQ5D8LJ39e+cvRI/bloizTAeTnP3xLKFE00undmmjbrZ1+/YZv4HbA3diIYbuA1m5SjPuVZ8yGVZecAqHszGjjclEYyMG90kyHCpm4x5mNLT5+nHUsi5SfFHV3ECd5L07wg6oSNYgawLk+zeb7E9jTxN95oBlV/dugv8934nq6fBlt8Jcu7eJ2WAsBmrTJx38e/qU6gaea31rIpRu3NZu+hDvED2Cz0lIXOWdRJZx9JZ40WJI/ZiPcjSM3CwWBTBQMshQUDMiYioA4LhyYJRWRup7c8PxYN63k/TjR0yet8mU/YhdZ1oU8uK/fVFsHzz76Afj9aK2YhqRkZOOe/0xUR5k1stIQRG5Sygjk4spnZUkGFAy3/kyhVBYAUgBPiqzrNn0WFHUL8pK2fnVTqorhomtOhdzppWhxrG3IkoBAWgL69ES/D8Vno1UqGUqjvBCVnh347+hXegjTENFKnb5FMA1N9GTxTJ+4qB/6jd/Tw6SNWps4udB/vxZD9779Si3g2T1pS0pmDrjKZvDkn7Y9LH/D8HUFM3JcsBhd/MhTRC+icpmsjsD6By8G1fEENiOtY+66PS4495KlMHfVbAjjGes0OTOZi4ATUQ929MG2Fz6BPTvrzK1cQG2OnAJwFlfy5C8Ae65yCIE8XO2vKPJAYZKGfvFwZAEgHjpWujckBDyNLE8e/9FK7ZqA1zkLKuHMS5dBdkUhrsh5GE8Ak26Xnf4AHN15DF7b+jH4femp5h8NliOvBJxFdKofj6/R2PBv4xGgGBHz89xAwX1IY2kEGVSsEaxymZMisG7jDfiu2ojpbNOvHrcL1ly4COaumAmOgtyoen5SnDiBJgTckTB0HGmDbS/WQh1+2omcxVPBkVtspyZzW2VBAN/e0zCE5KJCd9S2yUi2bDNRGAmiVGXXbPwd8vNVqXgyiRk6eGj1eYtgDh5D7ERhII23pQ1D1I0Gfd117fDBa3vg4KdNhtUjbcFoIOIsqQJHdoG0LDJj6YtAaYYTFuPEr5eR32RIsQAwGUJWu1+zGZct/j3IdrnVWNeT31w8a2D1+YtgxsJKyCjOhaB9lCIJwUgvACda7nfgpL9r2wHYW9uQUP60Soy+/a7SGaBkZKVVs7gx8iNA+/vk2jeFDoswkVgAMBFs06pat+mb6BlAMQKYEAGy+l+I4YaXnD4bitGTIIIGhHbWDrjQZD/Q2Q9H9jTA9jf3pV2wnmQGPU36ztLpHN0vGfA4T9II5KOB34ICF1RkYGApAbOxgCqTxoozakWgZnMuagFIf4ufTKMRyM7JgCUrZ8FMNCQsQiNCyPaktSEh+ekHegag5Wg77P34KBzc14ynso1Gxb6/Sd1Pan8+kMK+Y8DslpOKfx4a+E3NwhW/wFlYYNVmQ26z+mo23Y9e7LfYrNVJNZeOcJ27qALmLZkBpdOKIbMwByJoXGg1LQE9zLS6D/X7oK+9DxrQcG/XB4ehp2sgKVzSPxPu9xdVgCOPjf3Sv68laCE+oOW4xz8XJ/4SOjNaAmIBQIJOMISF9RvXo8v2w4aUbYdC8cmYPrMMZs0th/JpJZBfkgvuXIy1hLEIwhgNTuQC2omRDx2hCIQxEI8XY+13NXdD3eFW2L+7EXyD6XPojqHDLLrfjyp/jPDHxAgYiYATl/h0Uh9N/HkUmUwi4hMtJOoMXVkJOz4Eh9XWsLoikFphOMOT69t47m/uTBdMnVoE5ZWFUFSSBzn5WZCVmwHubPzL9IAThQQFT+mis9kj+Ec2CBQ9kIiiCpLwQPL/0Df8xAvR1wLp5cMRiARDEAqEIIj+9v5BP3hpRd89CK2NXdBwrAN68TtT8ghEI/uVTEPrR379JY8i55wMgRwMRToz1w0zcPJ3G+XIPxkTk9yXSxyZhFm+nQACd97pgNo5vZgjJ4FcnJQRSF8E8G3nLJgCjvwSbCO/+tK3o8W1jOb5KbivPxPD9pZ5xO7va0GBnwItKFk1Tc3GZmSdQpkxMQK2RkBxudHQbxqr/G09CoxrfBG68VVlu2Aa/ul0To9xzA4rmXVgw8BIw6+8B5CGncpNSgwBR1Y+Tv4Yz99hro91YlxyaqshkOVUopM+HdJD6n4rEgsAVuw17Txz/2rHilOmGwI44UdD+nJUv3TrWWHtoYm+EsP0VqCa34jDecxumDXFFrNRsmJ9X3qoCIKRTiuyzjwzAqkioGTmRk/xI9U/EyOQCgIUrIcm/Er8o5P50ol4hZhOvTm8LSFYNvwnf2cEbIGAwwHOQvTtzy2yRXO5kfoj4ES3nWLc0y/HCZ8C9ZCqP12JBYB07VmIrEnbpnHDGIFxEFCy8jCwz1TgVf844PCluAjQyr4Ug/OUYaCe0kwUIsl31wbEAkC6drIKN6Rr07hdjMBwBBT053cUontfDoZ1ZmIENCBAq3qa6EvRVa8UD+DJTONVfjw4WACIh45V731h0+kQUXkLwKr9x3xrQoAWaXOnToFF06dFz3Lo9EegIxCGzkAEevGPAi4xMQKEQLbLEVXrF+Mqvxgnfdki8onqJRYARCFvZL2RyL9woBMjAeayRSNQkpcLp86ZBfnZQ0f30ouMwq3SH1EgokIXCgTdwQj00B8KBL4wiwRRcNL8H1rN02E7BbiPT5b65KPvkTQSn+iusMdGh2iUzax/3f/f3pnAyVFV+//c6u7pnn0mM9kTsm8Ekkkii4rsiPyVxxpcAHE3CYgQd59P81CfqPiihCwgsiVhcYSgiDxBARGUNRsQyAaEEEIyk2SS2ae76/5/p2cmzEx6enqp6q6qPvfzqU93V9W999xvVdc5de+55955HinjwWxWKXUJgWwRKMJSzkcfNYqOqkY0vxSfXmEYBY0wBhrCOmYQsGHQiDUVpKsgW1fP+npiyp4VfZfCZ6UfEmWfNOgU/0JJlysn5oLApavKqENvRNVjclG91CkE7CIQ8Plo8qjhNHHEUDhoWTcVqx1GAfcONGBrhGHQDIOAt4h0Fth1KdMql+PsFKMbvxiKvhQ/+M2e3/KDeTp2nxbEOJlkCCAOFNfu6jCX47VIlL9rL6AI3pcAj/OPHTI49tYfxBLNVqcg3haHwAmMt54JnQMwCKLoIdDUgq0ZizQ1wUBownfNizZJsoUAv9GXQtEXQcnzxt75rPALsU/eVq1HLkytZ5qbEi+5ax5pBQNAkhBwPwGsoUgjqyvh4DeSSguxDLNDEjoM0EPQ2VPQhJ4C9itoxdb9iY4EMRD6uVYK1hxe3KkIK2Vitl1sfj0r/BIskVuMffx2b13fTj9CyO5eBMQA6IXDpT/mroLHv34O0nd6RLm0GSK2EODXvGGV5XQ0FH9FsfsWsuTeAfgewigw8QnjIEIx44ANhDbsa8O60GGcw/4IbEx4IfGQOy93G4CC546UEJQ5T7Pj7vnOz06lz8qfjQBJziEgV8M51yI9Seb+vgSPmBfw15qaXgGSSwg4gIDLFX86BNGRQBFYATzc0G0UsE9i2DQxi4EoCkOBP/lYBIZDLIETz3DoTpy3O/H5JjZOPOGh+zRW0NDFsWRAAXcHuVHwfvTzwa4U85TvKtoPRc4KnZW2H9EV8XIeU/LojT+s7Hkf5+d9ktxJwPpBNXdycLHUbTeL8nfx5ctz0VkhjaweRFNGDj88pS9fkLDi9EMzd7of9NSivf0R8oWHtDP7BMQAyD5z62q8eOWXUNhnrCtQShIC2SHgh1f/mCHVNGnEMOKpfZKEgBDIPoGeZmf2a5ca0ydw0R3Tsb758yigKP1CJKcQyC6BUEGAxg0dggh+Qyjgl/eP7NKX2oRAbwJiAPTm4Y5fl99VTG0K4/40zR0Ci5T5TIA9+odUlMYU//BBlXAEy2ca0nYh4BwCYoI751okL0mrWopnqij/5InJmTkgwPP2x2AO/7ih1VQccs5UvhygkCqFwGECPmXSpLJdiD3RENu3t62Cth4aCcdNeFVmOYkBkGXgGVc3967PoYwrMi5HChACNhDgaV5DystoDJT+CLzts5OfJCEgBAjTIsN0wZh/0TmjnqcSf1svJE2RED3yzvG0ZseHqD0a6HXMzh/y77STrtVlf/LOyWQaL6LYUquLlvKEQCYEVCAYW47XhyV5R5UGaUJpgay4lglQyespAoNDB+n7M++ho4rrErbr7ebB9D8bPk11beUJz7PqoBgAVpG0u5xzby6iUBEH+znG7qpyWP5e1P0Kts2Y2vg2hjnKMJmZ+8WOwvcP4XMMNkkOIdCp9MtJFWHz9/Hkx5NlKMK9jSv102Asv4rrJ0kI5CWBQl87XX/c7TSqKLHy74bzTnM1fffFLyCYVLB7l22fMgRgG1qLCw4V3YgSvaj8D6Fd9yKS4d00/Y1/0qJFPUKb9GH4qXtGUCRyJpTJuThyNjbpCemDyO6fKlhERmEplD42f4IHFALK7EHYO96KMeF9bImfRhcFYgFl7JZRyhcCTiLwyfFPJa38We5RxfV0ybin6M5tZ9ndjFaxy+1GbEX5F6+8FEpvlRVFOaiMKNp0K8Kc/ZDWfJbf/FNLc3+PV872U0jpc0kbMAj02NQKkLOTIeBHWFcdRLDJUCkZRfg00n9n4Ah0Iwox/x/GAK/RLkkIeJ1AyNdBt3/kfxFRMZxSUzvMAH3+nwsROrpPz1pKpQx48m4xAAZklOMT5q6cAglexIanr1eS3ongpBdQ7aUvWdYijovgM87AgkinwRg4GX3OgywrO48KYqe9QaUlNBiOfEMqyijsK6QX9rdbToB7BUYVoVeg2B+LF295BVKgEHAAgeOqt9B3Z9yXliTXb/wkvVA/Oa28SWVS9Hr65nxSNchJGRH43O0haia+e7yk/J+nqDqfHrh0d0Zs+ma+/3OvYhdvN2IYwaCXx80kw2BjAJs6Cfsr+maR351x3itKiruUfilVlZXGYr93s9nWiNVsbEi8ot7mQ2Hagq0qaNBIGAPDC/0yRGADaykydwSGFe1Pu/JM8iZTqTLVNjEAkiGVq3Na/L9G1TNzVb0N9b5M7eEz6U9fbLSh7PeL7PQjWIcdvP0vjABFc1dNRgSa48ik4zD0cBz21eBY4fuZ8uAb+vtKgqGYsh9Uykq/mMqLigcIzNO1OoxNeLj0eiyfV9/eQRsbwlSJpWGHwxgYCWOAl4yVJATcTAADaGmLz/EC7Eym0hvEALCTcCZlz131SSws/tVMinBY3noo3fNsV/5xG6001fLMgti2KnbKV24O0L7QMZioPpOUMQ2sp2P/0djGYoOqdHcqQBCe8sJCKisuhJIvwie2whAWn0lNqxZ1LyOXBRy8lO7+Dt466LWDHVQNP4FhMAaGYrUcXjdekhBwG4H6trK0Ra5rtXkqoCIxANK+OnZmnLtyIpTlLXZWkYOyv0i1n30zB/XGr/KWr7JXTncvwfvnxMIs+6bCuRBGAY3HdTgKB3kb0/XplJB2/GrxrjLUztFVg05ApD1VHApScTBIJVD0HIXPijQIypdVb/rvMelJwUvZ7kXPwF70DHAqw9qzQ0MGoqexAyGCC0uAofTASq6sEth4YHwswl+qb/MmYRTzwDg7ZY2QXz9uzVPCTjHzrexzbuS5VTzun77p6DxmT1Ht5X9ynlhxJFr52WbsZefE+A6Kc28fRlQwEj0GQ/AfrcKQQvXhTwTBQz5cN80LNOE66mJ0JrAbL/twJArvxau983RI3rj+Zmi4g2SajSj7EGY57IEWhs+EWYenyW4KFOyhskN1BCOGFfMHFr/2D9QDx0frUwjrvY8o8tGulu4F6a2vI5kSD2Hhe962wieB160fDL+BahgngzFOUCgL0ieDUM7JAYHGcCE9s2c6nTzs5ZRqfxp5DoX5MWJbemrNVdP2iQFgG980Cy6pvAE5Z6eZ25nZTP1tZwqWhlS1n38PuXhzTNJK3Y9BDlsMAG7k9PICRCZrow5+LXdAYjl2tUZjG4tT5IcxAINgMHoIqgrEd8ABl8ixIlSbB+ij7U/RrI5NNNjcH5OzzhhEawPT6bHQR6jeqLRc9tVvnEY1VW+gF4tt+4HToXAxrd5+2sAnZnCGUnoNZ+fePUlOIXDJXZjTrv4IcTx0XfQT6Po/3SmIvSjHOTduLQtFoztx09jWa9TQYdJz9e2OMQISXUf2F6iEQTAIEQir4EdQhs1Df6hETZdjCQic2/Z3+kzLQ+iKiz8nvwOddfcUnksPhax/XE0u30Xfm3EvjICWBBKiCxBv/Tz9b/PBUQnPy/Bgo689MLr2uxMOpuYRlGGtkj0Bgbl38Tjz/0H329rvk0ACew4ptZBeXfO6PYVLqUxg2yNL2qd/7Eo8MdTxdhFhpcqe+Tx9jzcnJxavCYMjdYhCuKM5Qm82hWk//AmacCBqYuoj2uIXHwInX0LLZbu09Y/0qdY/kw9jdv0lH0WpJvwa+SlCLwem9ndaWvv3tZfRv/cejV6qQ7FIf/EKea5uKt3w8sX0djOPJNqX0Ft48x++NflBrkGGAOzjnHzJ7JF+wLgXY8aDks/kijN3IIzcQ66Q1OVCRn3+xUY0+mU0w7bQYTzWfnx1kA6iN2BbU4R2oxuePfednuA6cDgscbesbNCUo2egAs6FFfAjqAoqKAfpJ+jm46XP4zo20gWtjybdpAtx7hbfBHqx4Jik8yRzIi/7+4uX58aWAZ5dva3XcsBr6ycSH89CajcCxNPLY0nu+G4Sufy85K7F6Pq/Jpci2FK3om/R7y9nnwZJWSBw4eLXF6OarN1HLRGTtjdFaWdzGL6JWWigjVXAjYDGFgdoYhmCEUnvgI2ks1u0goG6+NBPaFQ0Nbednb7hdG35D7IrbBZqA45frlk49bBPFm57STklMHflx6H8v55TGeypvAVv/7fZU7SUGo9Ae7DjOuzfF++YHfvY+e7YigCdObyQpsJRsBBv1W5NsGVoW2OYnt7T5vghDrcyzoXc46M7U1b+LOfo6G4aF30nFyLbWed+P0Wv71mBGAA9aWT7+6fuGY0q78Tm3idnf8y0uotqL+l0s+3vHNlvKYGHF8w4gDeeb1haaBKF8bS8SVj294xhodgQwZCu2AFJZHXcKewn8Fx9G4UdMuPBcYBcJtCEyNtpSzwxsiPtvE7MiE66q2sXTu/1TBYDIFdX6tQnYIxF7kH1VbkSwdZ6FS2ztXwpPC6B+xdOuxPd8Tnxu+DgPBy17wT4CZwOY2BiacCVEfzYyZHXKJDkfgIluiXtRpSayU3bS7uCLGaMavMva66durpvlWIA9CWSrd/V7/wMVX04W9VluZ7HqPayl7Ncp1TXReCJvW2qLceD8jw8MK0cwwMwBNggGIEZBLwcsFvSDvg2RFzg4OgWnrmSsymDSVWNBuJ4eSDxs+Dx99rj/vnEAMjFBb541Tno9M96V23Wmqr0kqzVJRX1IhD45tovtobNTzy/rx2Oebn3zONeAR4SmFNVQGeNCNHMygJ43Dvf3x7zG2gfpg5KcjeB7f6j0m7Atgzypl2pxRn5Pn5xXwfBCDgnsHDtZ/sWLwZAXyJ2/75w1SjEmb8L1cS1yOyu3v7y1VukQ3+xvx6p4QgC391Yif/7L3g/T9XbeMBZ3djsXX9UsZ8+NDhIZ8Fx8JgKNgacG6SnmT0DJbmawBu+0bTbNzjlNrzrG0pvGbYG40lZpnQybNjfQQc6usJ4K0z/+95zVT3LEQOgJw27v/O4v0/zuH+13VXlrHxl3gjnv9wGjs9Z43NbcSAc+W9IcDiWxDstEceOZQcxY2BcCRsDITpzRCEdi54BDufrUas4tzdGHteOMNm0uvD8lAmsKjwPk7PcfTeyH0ufNTwqA+HA93vCEAOgJw27vw/ZdR2qOMnuanJYfhPe/m/LYf15W3Xw2pcmovHz+gLYjIfANiyg4+TECw6NRc/AB2EMnD2iiOYMKqBRWAaYZxfkMhUa8njMJX+r6n62oIYeDp2WdHEcCvj5gplJn+/EE99AoC7+7x+RNF0V/NaLE7r3SyTAbhJ2f86963SETTscgMHu6nJU/h14+z+Yo7rzulrTUOxTEnfFwdcOdSC4DdYzxhu30xMC82H1QT82xMWED8OBDo0IaZHY0sCHMKyRLa8Gtj2qsLiQJG8QuKPwIjpklNLclocR/jZ+B2UEsSDvK/oEPRg8y9WNfgvK/9WDnctox2lIgWn6rsX+q/hYbk3sONJ5cten7x5Kkeh6tA1LyXo2aTJ9R9P9n5G4/9m+xBj7R/f/TlTbv9sy/umTMS1vSllcGyHbEqdVH/Q/7UN8/3qMadbjk+fs25VGF/uopjJoV/FSbo4IDDXr6WNt/6BZ4U00NNoZM2uPr4rWYTXA/wudTHsMd4/Ovgnl/wor/0R/DU0tYR0cTYunIzCQJHsJLFpk0KtRnn/pZeXPDP8qyt/eW6m/0gOR8BWw5ftX/pwRDwQeE+QAN9PhfOdGyx+h+2l4kS+2cZN4elMdPPX3t0dpP6yDJnbaS/Tg40xJJB6SmFYmyj8JVK47hRX8nUUXIfraRa6TPaHAuO+5py+p4T5FRQHVfikGCJaIAZCQqgUHX5mwCE/bMywoydlFyNS/3F0fbeBplpzm4zeEDhgBM/F26+LIvTHWvKDPaBgEvHHidh2AIcAr/7FBcBCfPA0qlRSE8j8BsxQwU1GSEHAFAe4IW3+gnXa3xB/aiNsIFbOAlrjxRSBuexy58+KVp0L5/w2yef1xspWmb59KixbJvKls34iY1hPoCOxJ9R4rw2D7cVVBKsIKf15NsAeoEb0CDWwMYGvAsoCN+Ix3k3K8ghGFBh2N3hHuAZAkBNxAoA3rWz+Pef58f6eYomEyh0kPQIrUkj79gruGQPnfjfO9rvzx8qmWiPJP+s6w9MSCdv+ZmleyTTEdgjL85942mg2P+8EI1OPFxHq8HIYOb93eEfyYZGfCg2h/e1e0xEKfAQaGK8MWe/G6SZuSI1DXZtLa/e2xnq/kcvQ6y1egfaeJAdCLiUU/YuP+ahVKG25RiU4uppGCsQWNnCyjh2VTs9JtHHeZP4uIgeMxBW8a3nzzweed21gBZwLeJAkBNxLgQS3259mKLbUBrj6tVWaNGAB9mFjy89WJP8BrsbvnkiQP4jZafdmh5E+XMy0loKgmo/LwBOE5wzxmPntQkIo9PCSQESfJLAQcQIBnvqyF0c49WBknpWrEDM6YYp8CLll9MpT/D/vs9epPNkCXe7VxbmgXLsA4K+TkcfJ/7GmDFzHeKhywhoAVbZIyhIBXCPCDdkdzBMN2rdYof5SHv/l46QGw8g6Ze9tg0mZ+jPt3cvsL1V6+2UqEUlaKBBRx/H9LEi8e9NrBzvChNQjNWy7d5JZwlUKEQCYEGvG2v/5AR8yZNZNy+uaFi0yF9AD0pZLubx73p4KVyD4y3SJcl0+rG10ns9cE1lRmdZPYQfDpuraYMSBL4lpNV8oTAskR4JgdmxDU5yk463IPndUJ7w2VYgBYRfWV8d9Bp8rZVhXngnK20B8ufcwFcoqIaRDgKXQ8HPD33W3EsQNkWCANiJJFCKRDAP89XsjryffaaDvW8eD/ok1JyxCAFWQ/uepEXKX/tqIo15Sh1W8Qfc6+W9M1IHIrKGLhtGA2m21h63imwCsNHXggYY58eefyvbltsdQuBLxLoB5RLTc1hC0b509ECrNfm8UASEQomWOfWV2J+Kr34lT3BllPpp29zzkElbOq9y75lQsCAUP5o13z2e2sn7sg/4VhgcEIkTe1PCDT6OyELWXnHQH+f/HUvj1Y4yJbCc+OgBgAGdFGCJbwytvxJjwmo2Lcl/lWmfrnjIuGiH6lbdHsPTTq8IZSVxel4YU+moLFhUo5yI4kISAE0iLA/jabD0bovXYs2Z3l/tRyv1EmBkBal60r09xV34TyPy+TIlyY1yQjusyFcntSZI5ytzeLbw0xiHhQcdxx3rhHYAp6BCplxoAn7y9plD0EeB7/VvjY7G6F8Z5lxd/dIp7lIwZAN41UP+euPp7I/Emq2dx/vn6I7vvcdve3wxstKAtgMk8OU6xHYG+UqoMGTUCPwBBeRSe3IuWQhlQtBBIQgKLfix40dq7dh4Wqcp3K/GIApHcNzr+9AmbbfchckF4BLs6ljSUult5zolcjjj/r2xy9RBzmWY8HWn17eyyS4LiSAI1GeGEJKngYj3zJYwK8IiX3lrHibwzn+p/aeSH4mVGF9S9kAC/lGxPj/gH/bXjkjk05q/szbMLUv8fd3wzvtKAAK94MctDatc0IVcqzBv62uzU2h5l/SxIC+UiA7/1N+C889m4brdvf4Rjlz9eiCs8MfnbIEECqd+bFq7+OLBekms0T52tC4B+Z+ue0a8kOefvQteikxEFMeA4zbzzWOAY9AqOK/IRpi5KEgGcJ8Jz9PRjX57C9dR25G98fCPAwPDM4SQ/AQKR6HNcLao77belfry1THT325s3XA1SoV+VNa13U0FFFPvI7eA17Xqt8I0KZPra7JdY7cIAfjJKEgIcIHMA9zj1fj+IefxFL9LJvTM7H5frhy0Nzo4o7DQDpAegHUt/d+pqaCrOd7v1C6OWjzivYSj9p/SAtbZ1F0XzxeFLqt7Ty8ua+XOR37glgPm/s7fqtpnDuhUkgARyfY1EFObJgIboCRqJH4Cj0DMgKhAmgySHHEmhF/I1diNj3Nt723TTUxf45AdXZFScGQJK3l9lGy6Drx/PpVUYbLS5+gi4PbqKFzafSP8OjkizFtafBj8Vc4Vrp80DwCSU+ehsGAHSsKxI/PNkpircKDBHwMMbwQjEGXHHx8lhIVvTvtmLePrr57YjPbzda7igcDyfd7iQGQDeJBJ/ReTOvgvL/dN9TZvv30JPl99HDHRPo6qbT6S3T8nVZ+laZo9/qj1j1780cVS7VJkGgCFN6xuKP/YbDewHiNYUfpLzxSoQIbEQ8PskGAX+XJARyTYCD9bDCfxcbr8zn5jS+xE9FPabniAEwwNXU82fPMMn8RaLTPl6wnU6v3EFL2mbTT1tOoCbtsdmBWsvUv0Q3gEOOTS4LxBYR4fj9bk38sOWNw6LyMMEQTHPkYEODCzFnuavb0q1tE7ndQYCXxd4Pg3QvFD4H6uHeKi8kjtU1obS3bhKf3ARXVi+YXmLqwIs4ZUqC03od2mWW0H+2fIRWtU2DD4gn8L5CtZfNEO//XpfZMT8uXPx6r6fTTsw3Xg8nJK8lnj1QzYYADAIOOiQhiL12hXPbHn6z51gWdYiqyZ9sBHgtzR4UhN9Np/Nfd9ukB6CbRJxPkwI87p208uciRhpNdEfJI7QgtJ6ubTqNno0Mj1Oym3bpX4vyd8/1Go0/+J5WX2eIUfeIPaCk/BLGC6V0L5YShEXAPQMcCGkwDIIQWwiShECSBPitvmfMh0QAACvDSURBVL4NSh8zUupxX7V55C2/v+YPC/mPUP58rhgA/RDDuP9X8Qp/aT+HB9x9vH83PV1xD61un0rfgaPge2bRgHmcd4LeT22t9zhPLpEoEYFjKwroQEebpx9q7Xhg85rpvHFig2AQDIGqAh8NQl9nGTYxCRLdJfl1rCVixrr19+Ptfj+UvlMi8mXjKrBxPHPQ+45/PeuU/0hPGl3f9bwZx5jKeB4/C+McTnlXsw7Qr1o/QNe3nkDtuncXTMqFZTODUj+j31/2/WxWKXWlRqDvEEB3bp57/0xduye7MrvbmOiTo5xVwiCogCMhL5jEwYiklyARMe8c47d5XmyH/wPsXMpz9N3sF5PJleFA4R8cUoDFuuLrHTEA+tDV35xRbDYbL2D3tD6HMv65LVoR8w/4Q/vkjMvKQgER8vnH072f3pmFuqSKNAn0ZwBwcfx2zCFIJXUS4HgJ7DtQgQWU2CBgw6AUsyekq8C9d0hM2bOi71L4rPTbXOwEa/WViDfu37MOGQLoSQPfzWa1HB+WK3+uZqKvge4rfYieCB1F12JY4OXIYN7tzKTUGlH+zrw0yUrFoXd53jJ71Esi4vDE+xGhraePZBBGARsDHIugFIZBMQwC3nrMlBJ0DiCA2xj3sknNUPSN+MFv9vyWz0NBkuIT4FlBfZ3++p4pBkAPIpEFs75IWl/eY5ctX08LvE0vlq+i29uPof9qOYnqTEtGGqyVVZuI+y/J7QSm4CFgwqN5G2LySzqSQDuMgr1wAuOtZ0LnAAwCH3oIVGzedLHPoBIYCCX4rWQ6Yk9Uln7nN/pGKPoWKHne2DufFX4r9omqTx41z/fn//5ASYYAugjpK2dON03F4/5Z9dY7oEN0XcsHaVlbDUW0YwKfrEPgn9kD3TxyPPcEEg0BHJYOT86NBztoB0LwSsqMADoMYqGLuZegBBv7FXC8gu5PdCSIgdAPYg1DFC/u1BLlN3eKza9nhd+EJXKbsY/f7t0dZqefhmd591go/2PLMd8/Ce0uPQC4OJ3j/ur3+JpV5c/3RaXqDCv81dAG+gaGBf6vYxzvznHS8vaf4ytgafV4EMzAAyEE7bVZhgMyQsvDy+xB3hjmHoPevQZcMPcOwPcQRoGBTxgHeMKycdC5scFAsTjs7I/AxoQXEjPh4ZUwFDx3pLRBmfM0O+6e7/zsVPqs/NkIkGQfgXFQ/sckqfxZCjEAAAFOf0vxcTQDyVWa6ttPD5c9EAsrzPEDtpvluRKljoqj9+aqcqnXJgJQNjwmyIrnVaxaJo9hezizgutUgkcaB31rZD8DXsWRhxt4cRa+NuhUwKeBtdoJSyer2Ccf83c7cePC8QyH7sR5uxOfb2DjBJvjsIHBChq6OJZ4OKg7yA0HKovwwa4U85TvKjoC8Vmhs9KOmCYUfKeSR2/8YWXP+zg/75OUYwK4btPKCmhiaWoqPbWzc9xGO6qPzJv1KdilV9hRdjplcljhjw56k1a0zaQfNp9Eh7IdVlipm+mOz7elI7vkcT4BfkNgBbLhAE8RdL68XpaQFWcEF6HT/aDnxRjYePAyF2lbagTYkKypDNLwPlH+kimlh/2YzOneOkd/tWaSUvoWp7UKblv0tdA62lR5G305tJF82XtfC1OEbnYaD5HHWgLsGXzSkFCvRUGsrUFKEwJCIBsEQhhq+tDgUFrKn+XLWwNAf+7UkGkQj/uXZuNCpVPHcKOZVpQ8Rv+uWE0nBXalU0RqeTT9gR647J3UMsnZbiTAK+19BEYAx9aXJASEgPsIDA4ZdMrQYGwaa7rS560BYBY28Ap3NemCy2a+OV3LDnMMgTG+Q/ZVrUxZ9c8+uo4rmYcCTqwK0nSEDs7bB4HjrooIJAQSE2A3DZ7id0J1qJc/SOJc8Y/m5f8+Mm/mJcDxpfhInLlXYRjg4uAWeqXidvpZ8T+pRFke4W0t1V7xb2e2XqSyjQCeJjxn+MPoDSjmwURJQkAIOJYAx6H4yNBQzKHXin9r3hkAesHsiZiq81vHXuEBBCtSEfp24fP0asUddHloE/x4ezoPDZA54WFe9U9SvhLgSHin4MEysTQg89jz9SaQdjuWACv7McV+DNsVxkJYWyVoXhkA+msTg6Y2edy/zCqAuSpnlK8xtuzwM+X30AmB3ZmKsRdT/2ozLUTyu5sATyObVh6gk4dkNq7obgoivRBwFgFev4KddmdUFsSmiVopXV4ZAGakmN9yZ1kJMNdlsfJ/GkbAnaV/oaGqOT1xFC2XqX/pofNiLnYQPAmexWwMyKiAF6+wtMkNBDhGxNEI6nMylD/30NmR7CnVDkkzLBNx/i9GnK55GRbjyOwGhgEuC75GWwbdRj8q+hcFVUrziMOkTdcOiTjygnhAKI41w8MBZwwvJI4dIPHvPXBRpQnuIID/Hi/kddqwEE1AYB/+L9qVbCzaLpFTL1d/Zc4E0xd9CTlzFl4vdanTz7E1Wkk/wCJDSS07rGkV/eHyy9OvTXLmkkBSawFYICCvvrYJ6wnsa0f4N0lCQAjYQqA66KOjKwKWjvMnEtTzPQBQ/oGoL7IKEPJC+fPFnuQ7EFt2+LGyWjrGV5/o+qNTxJCpf4kJyVEQ4C5IDjhy4uCgbd2RAloI5CsB/n8dXx2kD+L/Vd4zvrPNQDxvAJi+yK+wgOeJNnN0ZPGnF7xNL1WsjAUTqlat8WR8lmovfT7eAdknBOIRGIw3lI/AEPjAoCCWy/X84yMeAtknBCwjwP42x1UXxP5TQ3MQlMvTawFgvv8n8Ip7lWVXy4UF+ZUZCyd8UXAr/bjlRFraOgtrmHWN/CiSVf9ceE1zLjJuH447zlsd1nXdfDBMB3jVGElCQAgkRYDf8ifBx2Z4ISJx5nAgPodVJ8Up7ZPQ9X8Uxv3XoYBBaRfiwYyvRQfRQqw2+Gh4LOYOBsdS7SWWRxTyIDbHNilbPgADAaiHb8D2xjDt5YXerQpNMVClclwIuIkAtO0Q9KCxc20VrxntgOTJHgA9d3pB1Bf9PXiL8u9zk03DssOPlN9Pfw2PX/7/bn1AlH8fPvIzPQLVeKBVB4PUjCXu3mwK087miCwTmx5KyeUxAj684nNvGSv+0oCz3rk9aQCYVYHrgfkEj91HVjan/Rza4rhVEK1soJSVGwIcTvgYrC3Ascrfbo7SjuZwzCjIjTRSqxDIHQH+L4wpCdBRUP4BO+fyZdBEzxkAkfk1HwePazJg4v2smu5Rt76yx/sNlRbmigA/8HgOM28H4R+wAz0C77REKCrDA7m6JFJvFgiwnh+KcX0O2zu4ILfj+8k011MGgP7ajFFmhO5Ew53Vz5LMlcjiOYZWS7NYnVSV5wTKMcVpRkEBIgsWxIyAXS1ROA2mFKwqzwlK851OoBL3+EgE7+EAPm6aHOMZA0AvOtUf3dNwLzR/ldNvllzKp0n9U9287sVcyiB15ycBfjByVEHeWtEVsAs9Am+jZ4D9BiQJAbcRKPSpmNI/Cm/7bl1J0zMGgPlew0+xlsmH3XYTZV9eLYF/sg9dauxDgB+e7BTFG0cZ3N0axSbGQB9M8tNhBFjRjyj00zB089sVnz+bTfaEARCZP+sczD36ZjbBubSuXb6o70GXyi5ie5QAP0h548WHDoVNei9mDERj3z3aZGmWiwhwsB5W+COweS34lesNAD1v5kiT9F24n5wxsdLZN/ZSdctLYWeLKNLlMwF+2PI2GbMIeJhgb1s0FmyoDkaBjBTk852RvbbzstiDYJAOgcLnQD3cW+XV5GoDQM+d69NqG5S/rvbqBbKwXe2GNn9nYXlSlBCwlQA/eNmbmjeePVCPIEN1MAg46FAjegokCQGrCPCbPcey4FDX1SGD2AjIh+RqA8Cs3nodLtLp+XChLGjjSrVi414LypEihEDWCfBLGMdK746X3g6LgMMQ18d6CExqYwtBkhBIkgAbl6zoqzFVrxr3VcjDb/mJkLjWAAgvmHkaQo5+J1Hj5Nj7BAxT3fT+L/kmBNxNIIgHNk+54o0TGwT70TOwD9ML98Op8BA2MQncfY2tlL7Ib8S69QfhLX8QlL7TIvJZ2dZUynKlAaC/dMxQU9PdaCgiLUgaiAAehE9i6t+Ggc6T40LArQTYIOheoIjb0IEHxAEYBA0YKjjIGwwC6SVw69VNTW5+m+fFdjj+BDuX8hz9AodG4kutZdaf7ToDQC8iQ+/xrwKKYdbj8GiJSqb+efTKSrP6IcAPfI7Ixlt3CsMoYN+BhrCOGQRsGDRG4EsgXQXdiFz3GVP2rOi7FD4r/ZAo+6Svo+sMAHNvzQ/RujOTbqGcuMM3pPJPgkEI5DsBDk88CE5eg4Lvk2iHUcC9AxyLoBGGQTMMAt5kxsH7jJzwDdPvEWzHoGIo+lL84Dd7fsvnnh9J6RNwlQGg5886xdT6B+k3Ny9zLlWLnozkZcul0UJgAAJBGAVD4ATGW8+EzgEYBFH0EGhqwdYcNakJBkITvmstXQY9WVn5nd/oS6Hoi6DkeWPvfFb4hdgnqt5K0p1lucYA0PNmDIFbj4z7p3YPtBhGwW2pZZGzhYAQgN45oreAqaDDIBa6mHsJmrCxXwHHK+j+REeCGAj93D4KU+vw4k5FPn5zp9j8elb4JVgitxj7+O0ehyVlkYArDIDOcX9jJbiMyCIb91el1Eq19Pl97m+ItEAIOIMADy+zB3lpgHsMevcasITcOwDfQxgFJj5hHKDvjY2Dzo0NBqIwzmF/BDYmvJCYCQ+vBKDguSMlBGXO0+y4e77zs1Pps/JnI0CScwi4wgAw98z8PpB91DnY3CEJVv1b5g5JRUoh4A0CrOA6leCRxkHfFrKfQQRWAA83dBsF6FTAbxOzGAjBj3Tsk49FuhdPhP7kGQ7difN2Jz4fQ6Sxn7A5DhsYrKChi2PJgHzdQW4UvB/9fLArxTzlu4r2Q3xW6Ky0/YYRW+GOlTx64w8re+4l4fy8T5I7CTjeANBXzjrZNPWP3Ik3d1Irrf+uVqzdmDsJpGYhIAQSEWDF6Ydm7nQ/6KlFBzYeEpUrx4RAsgQcPeSivzZrMJQ/j/s73lBJFni2zjOVcWO26pJ6hIAQEAJCwH0EHGsAoCdK6Qhx7PqR7sOac4nf8tVPfDjnUogAQkAICAEh4FgCjn2zNufP/DZcas51LDlHC6aXqNra7lFDR0sqwgkBISAEhEBuCDjSANBXzjjBNNWPc4PE9bW2GB2RO1zfCmmAYwmw3xkHzmmBB5rG7OxiDGZzYJYe/mSOlV0EEwK5JuAjkyZF3qQh0c4JWnt9VbTVP46iOZgE6TgDQM8/ttI0jXtxkQK5vlCurF/THep3r+53pewitKMJsGf5tsYwvdUUjnmn9xS2c3EeH40vCcCpradDW8+z5LsQyF8CQd1B57c9Rue0P0klZksvEE1GET0SPJUeDJ1F7aqg1zE7fzjKAIiN+2vf7XipGGtnoz1ctjYMQ1b98/AFzlXT2jCv/d/1HYiG12PeWQ9heDW+7Y0RehPbyCIfTSgtkBXXevCRr/lNYLC5n77XuIyOiu6OC4INgrmtf6ETOtbRz0oXUJ0xKO55Vu90lBOgOW/WQq3oPKsbmS/lKVKPqmVrX8uX9ko7s0Mggrnl/65r71f595SCzYOdLVF6cm8rPV/fTnXtcEWBZS9JCOQrgULdRv+ZQPn35MIGwn82LiXOk43kGANAL6g5Dn7//5ONRnu1DozILvFq26Rd/RJo7/eIRQe2HAzHYuCnVByU/h6EvXsWhsPje1rpDQwb9NN5kFKxcrIQcBuBS/BmP6qfN/94bRkVfS/WGxDvmMX7Wh1hAOhraioQ3Oo+NC57gx8Wk3RAcdt8Q9c/4gA5RISsElANdlbHkel2tGS2llQzQt692hCmx3a30vr9HXSAw9xJEgJ5QCCk2+ns9n+m3NKPIQ/ntTk15NwAiI37d9BtaOg4mxvr7eIV3aQWwb1UUp4R0AftbPA+dOGzEWBF4lC1O2FMPL23jR5/r5W2HArHFtKxomwpQwg4kcCx4c1UAOe/VBPn4by2JkUHc+4EaC6ouRpjhBfY2lDvF95oRHx3eL+Z0sK+BOBvvx1G9OS++636zcvh2pG4V2AzDAA2AqqCBhwH/TS80B+LOW9HfVKmEMgFgWFmfdrVZpI3mUqVqbbl1ADQ82fPMbX582SElXMSEFD6dnXLS7a+CSaoXQ7lkICp9Aal1Tn2iWCPAdAtL5dej+Xz6ts7aCOGCSqx0t5wGAMjYQzwkrGShICbCRgZdMr6EBnAzsTPjpwZAPoLU0pNMu9GA4N2NjIPytaG1rLqXx5c6HhNVGSst9PNviiLc/p5Kd39Hbx10GsHO6gawYWGwRgYitVyJLZAvKsv+5xOoN6oTFtE26cCKsqdAWAGC1eAjG1dl2lTd1lGrNj5iFq20ebBIpdBySNxtd/8mwor9tKzxZgfBOXLYX3s7Qc48oLxird70TOwFz0DnMqw9uzQkEFDQn6qLMCEV9z4koSA0wls9E+NRfjj6H+pJCzmRi8HpqSSJdVzI+TXj+fECTC6oGYBpP1MqhLL+UcSQPhImfp3JJa82bPmqmmIJ6r/ZVeDQ4jvOwKBfXKdDmEO4VYEGXqmro0e3d1Ga/e109vNEWq1yUch1+2V+r1BoNEopmcK5qTcmKcLPkCHVEnK+VLI8BQ/O2x5a0gkhL7q2GPNKN2Q6Bw5ljSBrf4hax9N+mw50ZMEtFL3K00n29W46eUFVNfWhvC/2e4HiN8ilmNXazS28RlFfoOq4Ug4GD0EVQXiOxCfmuxlAtWhg3T2yJdoVtV2GhzsdJuqay+ntfUT6NF351B9W7nloO4uOo9qIq9RmdmUVNmHjBK6u/A/kjo33ZOU0ms4b1b70fSC6SUm+V8graamK7jk60XgKt/y9Ut77ZEfeUfgnBu3loWi0Z34M5fZ1Xhe/Oc5RPZzihGQqJ3sL1AJg2BQgQ8GgUFl2LL6oEsknBzLGYFzRz9Ll45/ggK++HEtOswA3f3GqfTQ2ydaLuPkyFv03cblVKYTGwH81v/z0nm0GYsD2Zgafe2B0bXfnXAwq/+L6PyalWjUZTY2LJ+KbjT8wVFqyXOH8qnR0tb4BC5a/NpNWJnvyvhHrdnL3e0vN3TEIvxZU2J2SoH7QMwYKIchUIEf5TAOeGhDUv4QuGzC43TBmGeSavADOz5Mq7efntS5qZw0xNxHVzQ/QCeE4bcbJz0XqKE7iy+kvUZVnKPW7UJv4Y33L5z6dS4xa0MAUP5fQX2i/K26jppuFeVvFUz3lxP1+Rcb0eiX0ZICu1pTiGV/j68O0kH0BmxritBudMOz577TE4cg5rDEvHUn7iXoNggqMN+wKqio092x+wz59AqB46q3JK38uc0XwlDY3DCaXtw3yVIErNh/Wfrl2DLAsyOv0uCu5YDrsBzwWv904mWBs5DajQD9uruerJjBet6MY+DV+BwqLequWD4zIoBV//RUtXTDloxKkcyeInDh4tcXo0HXZKtRLQgRuL0pSjubw8RLBbs5wY2AxhYHaGIZghHJDAM3X8pesivMX/n1CStoVHFqAXl2Ng+ma56b16ssL/yAvf7LNQunfru7LbbPAtDfnFEM5f97VCjKv5t6hp+YBPVnUf4ZQvRg9vZgx3VoFmYFZCex892xFQE6c3ghTYWjYGEWYwZY3UIOd7ytMUxP72kjjlIoyRsExpe+l7Ly55aPLq6jcSXveQPC+63Y76fo9e//JLLdADCbDQ5SM61npfI9MwLoyLwxsxIktxcJPLxgxgGl9Tey3bYCjKdPKvXTGcNCsSGCIV2xA7IthxX1NUH5P1ffhpULxQiwgmeuy5hQujttESaWvZt2XidmxB19de3C6ft7ymarARCZP/PzqOyzPSuU7xkT2ORfvu7vGZciBXiSwP0Lp92Jhv0hF43j4Dwcte8E+AmcDmNgYmnAlRH8uAeA1yiQ5H4CJYHWtBtRmkHetCu1KyOm/a25durqvsXbZgDoK2dOR1f1TX0rlN+ZElBL4LghryeZYvRwfp/Px4G20n/1sYANDw9MK8fwAAwBNghGILa/z0Vj6zvg2xBxgYOjBZfK00U0hQvTbl9jBnnTrtSejLvCEYOd8I9IthgA+nOnhkxTsbUh4/5HIM9oR4NRHOWplJKEQL8Eaq+eVGca+lyckP7rT7+lp3aAewV4SGBOVQGdNSJEMysL4HHvfH97zG+gfQhFLMndBLY3DU+7Adsa08+bdqVWZ1TUppRx0UPfnBLXC9IWA8AsbOBx/5lWt0XKw9S/GzY2CwchMBCBB78+7SXE+frqQOdl8zh71x9V7KcPDQ7SWXAcPKaCjQHnBulpZs9ASa4m8MahYZiuOijlNrzbUkVvNQ5LOZ/TMqAT60v3XzOZZ+DFTZYbAJF5sz6FmnjsX5K1BKKGz5RV/6xl6unSHrh2ykq8yP7EiY0MYsbAuBI2BkJ05ohCOhY9AxzOF8NbkoSAZQQQHItWbTsj5fJWbj8Dfx23341qUbxx/54wLF3lQ3+1ZhLmFfwZFQR7ViLfMyeAl6c/Gks33Jx5SVJCPhF47a83PTH17KuKcf982Knt9kO4CkTpG43egXElASoPICgP9rUhuEAu4wuMKQpQKYcRlORqAu+0VFOJv40ml+9Kqh0cCvjhd45P6lynngQnsd9A+X9vIPksM3Fi4/6FDf9GhTUDVSrHUydgKn16YNmGJ1LPKTnynoDW6sJfb14ODo4aEhjounCUwQMdmva2RWJLAx9CBMJseb9ypGAepuApjpLcT4ADAl049l90ydh/kN94PyJkz5ZFTB/d++Yp9OCOD7n97X/5A9dMuRJrZg/4d7Hs7kaoX347jetp2BOyfE+LwKvG8vXH4mINeEHTKl0yeZ9AzAh4/UfwC8DmzgT9T/sQzre+Axs+ec6+XWl0sY9qKqUj0y6+uSp3aOEBOmfki1gNcBumrDbExNjTVkHr9k+kR975AO1prcyVaJbUG4vzf+2Ua5JR/lyhJQZAZN7MS+Dte58lLZBCjiCgFX3Fv2z9b484IDuEQIoELvj161fjIcEhg13ft81DBHXw1N/fHqX9sA6a2GnPApuAFwo6eWghYbKCJCHgFgJYFZy+c/81U3+ZisAZGwB6weyJpjbhcWzfUqSpNMiD5x4wis3R4v3vwSuboyZh5cBPw8HpVlTvqWm6vFTxARgC+9kowOdBfPJ0vlRSEMr/RMxSKJOx/1Swybm5JdCMl8TPr7lmam2qYmRkAOivTQya4dJ/kdKzU61Yzk+SgNLX+5ZtGNCZI8nS5DQhECNwwa82z8QQ4Rr0AY7zKhKO5tuIXoEGNgawNWBZwEZ8xpvcx/EKRhQadDSmJspSwV69IzzZrp2I+XFB57Tf1NuXkQEQnVezFA8QjjomyR4CUUPTRLVi/Vv2FC+l5jOBc2/YXO039L3QfanPk3IpOFb+7Ex4EMZAe9cUg0KfQYNDhivDFrv0MojYlhBQj+mA+ek1V01LewGwtA2AyIJZF2PhkZS7HCxpd54UgrHaPxgr1s/Nk+ZKM3NBAM6BFy3efDW6EH+B6gtyIYLUKQSEQEoEInB2+emMg1OvW7RIxevQSrqwtAwAfeWsMaap16KW1EMsJS2anGgY6hS1dN1TQkII2E3gov99/QMwAjh892S765LyhYAQSI8ARrU2KzI/88C1R7P+zTil7AmsvzInEDXNe1GzKP+M8ScsYL0o/4R85KCFBO5fOPVFny6uwRvBz1Fs/InSFtYnRQkBIZASAbzpq1v8BdEPWKX8uXZ/SiLgZNOI/hKr/J2Yaj45PzUCmvSNqeWQs4VAZgRqF47mxYO+e/7iLff6yLwVbxtzMitRcgsBIZApARjlL0e1+tKDC6c8n2lZffOn1AOA+f6fgNPf1X0Lkd+WE6j3tVbeY3mpUqAQSILAg9dOXl9V1PRBnPodbI1JZJFThIAQsJgADPBDeBH8Fv6Lc+xQ/ixu0j4AesExo03tX4c8VRa3U4rrS0DTT30r1v+g7275LQSyTYBnChQY+r/gH3Al6pbQONm+AFJfPhKA7qdVvnD027Xfnv6enQCSMgD0olP90T0N/8DJH7JTGCk7RiBi+M1xasnGd4SHEHAKAawlcBxpzVHGTnGKTCKHEPAggccx0P4tK8f5EzFKygCILph5A2n1jUQFyTGrCKj7fMvX8ZLKkoSA4whctHjLmZrMn0GwDzhOOBFICLiXwAuYVv/j+xdOeyibTRjQAIjMr/k4TmKhBjw3m4J7tS4E/jkJgX+e8Wr7pF0eIMCxA37z+oV4KfgR+iqP9UCLpAlCIFcENuJ/tOiBayc/mOwCPlYKmlCp6yuPrzJ1x6sIpz3UykqlrH4IaLXWt2LdnH6Oym4h4DgCXT0C10EwdhqUJASEQHIE1sKv5vo1X5/yh1wo/m4RExoA0fkz4YmupDu6m5bNn1jO6Qr/snV32VyNFC8ELCdw4a9ePw3rC/KsgY9iS/hcsbxyKVAIuIMA1uCiv2pTX79m4bR/OEHkfv+okfmz/kOR/qMThMwTGeqM1oqj1B1PtuVJe6WZHiRw0W82TaKocRXebr6I5hV7sInSJCGQGgFFbehFr1U6+vP7F05/NbXM9p4d1wDQX5w+yAwGNknXv73we5Wu9I+x6t8Pe+2TH0LApQTOX/xmBZ57X0LQsK+gCZNc2gwRWwhkQmArZs7cbKrQ7x68dlxDJgXZlTeuARCdX8MLg3zLrkql3CMIhA2tx6kVG3YdcUR2CAGXEzj/N6/NMUwDhoC+DE0pcnlzRHwhkIhAO5Tqn4iMW+6/ZtLfczm+n0jI7mNHGAB6wXHDTB3ejhPkj9pNye5PLMLiW7aeH46ShIBnCXx82cbKYHuA7/NL4SZwgmcbKg3LPwJKPYtFela3FYRXP7xgxgG3ADjCAIDjH2LQq6+5pQFekNMwzBPV0o3PeaEt0gYhkAyBC2/YNEb7jU9hyesv4HxZgTAZaHKO0wjsgAK9Fyvj3rbmG9O2OE24ZOTpZQB0hfvdiozBZDLLOZkTwDzq5/3L18vbUOYopQSXEuAogwiCchFcpC/CMMFElzZDxM4PAlu00g8YprqfV9B0e5N7rQaIWP/z0SBR/tm9qr/JbnVSmxBwFoEHrpnyAiTi7bsX/fr1GVrrC9ELeQF+z3CWpCJNnhLYgPtxTVSbD/xx4bSXvcTgcA8Ax/s39zTsQONGeKmBDm/LbqM+PFbVvtrhcDlFPCGQdQI8TKB86mw8fBF+mD4GAUqzLoRUmI8EWtET9YzS6s+GL7qm9uvT3/YqhMMGQGTBjHOVNuC9KCl7BNSPEPefo6hJEgJCIAGBc29+sSjQUnYaHsxna22eoZQ6OsHpckgIpEQAvU6bDFJ/Q1jevxqq6InahaNhBHg/HTYAzHk1DyJ4x3neb7JjWthhqMAYtewFW5d7dExrRRAhYCGB/1jy+gh/RJ2BnoEzELDsDBQ9ysLipSjvE8BbvXpcKf13GJR/x+p7u73f5CNbGDMA9ILpJaYO7MPhgiNPkT32ENArfcs3fNaesqVUIZBfBNgg8EXpw4ZJJyHc6odhGMwCASO/KEhrExB4A8eegbH4NGnzGadF5Esgt62HYgZA14p/f7a1Jim8FwFD0fFq2Xp2fJIkBISAxQTOvWFztd+P6bXawOJaejaK50W2RlpcjRTnTALvQLG9hCA8a7Fw5Us6EH12zVXT+AVXUh8CMQMAkf8WY/81fY7JT5sI4O3kGUz9O8mm4qVYISAE4hCIhSc2Oo4xonoOhjvnYNx3DnwJpuHU2HMwThbZ5XwCu+Gs95JW5kuIKfGSETFfqP32dBlWTfK6dU8DPCvJ8+U0KwgovcSKYqQMISAEkifQFY/9aeTgLZYu+OW2IeSLzEaP3BwT0w4xJjwJjmAcmEgWMupi5JCPZlJ6C67NFlhrL5tQ9n6/76XaqyfVOUQ+V4qh9NdmDTYjeg+kFys4O5dwlxH1jVO3vBTOTnVSixAQAqkS4LDFBeHgdMM0MdtAjUf+8abW09FjMAXffamWJ+cnTQDOeBor5hlvIODOG4apN5HyvXrswUlvLVqkYKNJspKA0vNnnWKSftLKQqWsBAQU/QBx/3+a4Aw5JASEgEMJnHPj1mBRpGOiqYwpWOlwIowDzD7QoyEux0/hmQhDsYmBAAhxUhT78LKpd4IbFL3Cp34Hb/VbfX5jM+3v2Fa7aLrERIkDzq5dfphUPAYmKTsE2o2OyK3ZqUpqEQJCwGoCj1w9qR1l8prucdd1n/t77aN3tgwzDTVKm3oEKXMUDIWR8PsZgW20UjQMy6xXIX8FtgA2LyTuzWxAHzI72u1G+97B2/sujMm/q8jYCWe83WGfuTM4dMqe2ksUGwGSHELAjxt0Giwwh4jjeTHuVre+wsMtkoSAEPAggS4Fx8t685YwXf7LDcVtvlCFSZEKrXwwCIwKTSY+VYVBugLj3OX8CQWK/bqSC4NXu4K/AhsPsQSjgr93P8BL8SXm14X9vJprsPMs4iVqW/g79kfw0di5X5mYFnew8zsR6muADwRO4QLVAVTWYJJqwDkNkA2bCSXvw/lmg9LRBoP8DaFoW8PKb81s7i5DPt1FwA8PyqmxK+4uuV0praHF+c+VF06EFgI2EOhSnKw8BzQWbKheihQCZED5DxEO9hOAXf2UWrFhnf01SQ1CQAgIASEgBAYmwJGyygY+Tc7ImIChZOpfxhClACEgBISAELCKABsAssKWVTT7L+dt35DyB/s/LEeEgBAQAkJACGSXAAwALQaA7cz1MrXoSXa+kSQEhIAQEAJCwBEEYAAor0xFcQTQOEK0GkZQpv7FASO7hIAQEAJCIHcEeAigKXfV50HNmlappc/LQhR5cKmliUJACAgBNxEQA8Dmq2Uo4yabq5DihYAQEAJCQAikTMDAAgtdQSFSzisZBiCA4BtPqOVrNw5wmhwWAkJACAgBIZB1AohNgxCOkmwhgMVDZOqfLWSlUCEgBISAEMiUAKJKqjcyLUTyxyWww7dv8p/iHpGdQkAICAEhIARyTIBnAWzOsQzerF7RTaq2Vha+8ObVlVYJASEgBFxPwNDKFAPA+svYYrSHb7O+WClRCAgBISAEhIA1BAxf1HjdmqKklMMElFqpfvfq/sO/5YsQEAJCQAgIAYcRMGh4Oa9rLTMBLLwwhhFZamFxUpQQEAJCQAgIAcsJGByiFtPVnra85DwtUCl6TN308st52nxpthAQAkJACLiEAAcCIq3ocZfI63gxTTJl6p/jr5IIKASEgBAQAjEDwFCmGADW3Atv+eqm/MWaoqQUISAEhIAQEAL2EYgZADR443pMB9xpXzV5UrLSN8rUvzy51tJMISAEhIDLCcQMALWITAwErHJ5W3ItfpMR8cvUv1xfBalfCAgBISAEkiLQ2QOAUw1D34EPnVQuOelIAkrdoW556eCRB2SPEBACQkAICAHnEThsAKilG7Zo0s85T0RXSKSNiCFT/1xxqURIISAEhIAQYAKHDYAYDqVuFiypE8A0yofx9i8BlVJHJzmEgBAQAkIgRwR6GQC+iG815HgjR7K4tlrM/b/OtcKL4EJACAgBIZCXBHoZAHiLDcMJ4Gd5SSLNRuPt/89q2foX0swu2YSAEBACQkAI5IRALwOAJfBFfXfi482cSOPCSpXWP3ah2CKyEBACQkAI5DmBIwyAzl4A/cM855JU8/H2/6BaseH5pE6Wk4SAEBACQkAIOIjAEQYAy+ZfvmEVx7R3kJxOFOWQUpGrnSiYyCQEhIAQEAJCYCACcQ0AzqRM+go+mgcqIG+PK/qeWvaKRE/M2xtAGi4EhIAQcDeB/g2AFevfwipBP3F38+yRHvESnjWGrF9hT+lSqhAQAkJACAgB+wn0awBw1caw8hsUqcftF8NVNRzyGXRFZ/hkV8ktwgoBISAEhIAQOEwAfmyJk77y+CrT7OBpbuMSn5kXR02tzPP9yzY+lBetlUYKASEgBISAZwkk7AHgVqulz+8zFF2Ir62epZB0w/SPRPknDUtOFAJCQAgIAQcTGNAAYNkR6Ga91uqr+Jq3iwVhKOQBY/mGnzr4WopoQkAICAEhIASSJpCUAcCl+VesW6mV+jK+5p0RgHGSR1Vr+aX4zLu2J30nyYlCQAgIASHgKgJJGwDcKv+ydb9Df8DX8TVvFGFM+YcKz1d3PNnmqisrwgoBISAEhIAQSEAgJQOAy/EtX7cEHwuxed4IOKz8F/9b/B/44ksSAkJACAgBzxBI2QDglvuWr/81hgMuwVfvBgpStFrxm78of8/c7NIQISAEhIAQeJ8AXnLTT3r+7BkmmX9ECWPTL8VxOSPo3PiBb/mGnztOMhFICAgBISAEhIBFBDIyAFgGPW/GEK2MezEecJpFMuWymL2mpk8GVqx/MpdCSN1CQAgIASEgBOwmkLEBwAJC+Stzfg3PELgBWynvc1sCiFrlV1eqJevq3Ca7yCsEhIAQEAJCIFUClhgA3ZXqq2aN0BG9TCs6r3ufCz53a62v9K/YsMYFsoqIQkAICAEhIAQsIWCpAdAtUWTBzE8qrf4bv6d073PgZyM6Ln5j+At+qZY8d8iB8olIQkAICAEhIARsI2CLAcDS6kVkRPfUXIQKeEXByba1IPWCW0jpW42O6P+oW1/Zk3p2ySEEhIAQEAJCwP0EbDMAutHoRaf6o+8d/DQp+rIifRL2215nd919Pt9AzbcZHZFbRfH3ISM/hYAQEAJCIO8IZFUZ6wWzJ5paXwHK2PToLNBuQj1/Nsn4nX/ousdlCd8sEJcqhIAQEAJCwBUEsmoA9CSi5x873iTfmRDgTMwiOAvHKnoez+D7JnQyPGQS/c3vb/ynWrKtPYOyJKsQEAJCQAgIAU8SyJkB0JMmDxPQeweOjRo0WWmahGOTNakJEK4a3wuwlWMLYmN5G7AdgNHQgDCG+/H5GmYdbPJF1StUGn1N3bDRu9EJ0XBJQkAICAEhIASsIPD/AXmsLWm+tRDLAAAAAElFTkSuQmCC;" vertex="1" parent="1">
          <mxGeometry x="-90" y="-855" width="60" height="60" as="geometry" />
        </mxCell>
        <mxCell id="4vZDOsLuTZYOKLJQRf3i-54" value="" style="shape=image;verticalLabelPosition=bottom;labelBackgroundColor=default;verticalAlign=top;aspect=fixed;imageAspect=0;image=https://images.icon-icons.com/2699/PNG/512/google_bigquery_logo_icon_168150.png;" vertex="1" parent="1">
          <mxGeometry x="-616" y="-1082" width="29" height="29" as="geometry" />
        </mxCell>
        <mxCell id="4vZDOsLuTZYOKLJQRf3i-55" value="BigQuery" style="text;html=1;align=center;verticalAlign=middle;whiteSpace=wrap;rounded=0;" vertex="1" parent="1">
          <mxGeometry x="-590" y="-1080" width="60" height="30" as="geometry" />
        </mxCell>
      </root>
    </mxGraphModel>
  </diagram>
</mxfile>
